<mxfile host="65bd71144e">
    <diagram id="dQu7fsagZKkCM3Kz8omV" name="Page-1">
        <mxGraphModel dx="490" dy="192" grid="0" gridSize="10" guides="1" tooltips="1" connect="1" arrows="1" fold="1" page="1" pageScale="1" pageWidth="827" pageHeight="1169" math="0" shadow="0">
            <root>
                <mxCell id="0"/>
                <mxCell id="1" parent="0"/>
                <mxCell id="26" value="" style="shape=image;verticalLabelPosition=bottom;labelBackgroundColor=#ffffff;verticalAlign=top;aspect=fixed;imageAspect=0;image=data:image/png,iVBORw0KGgoAAAANSUhEUgAAAocAAADOCAYAAABM3KhvAAAgAElEQVR4Ae2dCZwcVZ3Ho+K1ruKqiKDAsoAoq6wQAuScK5MEWDmU+wo3cguEhBzcCIRLAUEElEsOZYWQAwghBAJy5Q4k4QiBECAh11w9fdT128/v9bymphkmmUzPTFfVrz4+qru6+h3f99p85//qVfWCNhEQAREQAREQAREQARFoIdDr3XffhZIYaAxoDGgMaAxoDGgMaAwkcwwsW7YMq1atQjabNXrYS5osAiIgAiIgAiIgAiKQXAK+76OhoQGURAqi5DC5Y0EtFwEREAEREAEREIECAQoiI4iSwwISvRABERABERABERCB5BJgBJHRQ8lhcseAWi4CIiACIiACIiACrQjwulPJYSskehN/Alm8/eEELHkLmPX2ckyd/Qrmv78Y7368AouXzsebSxZFOr2x/GW8NO9pvLn0I8yfV4fpzz6HAEvRnPsAQf464/h3sVq4yQTcAPDgAD7gZF14WIgXpqbxwYosXpo9O9K/Df62F72xEO++sxSL33gLby5aireWLMX7y97D8veX4tlnn0CqqW6T2emLIhAXApLDuPSk2rHxBBzg3AtGYOvv3Yhvf28Uttr2cuz80xux03Y3YNvvX4Qf/uCSSKevbjYau+7yZ+y0zW34yXZ/xFe+NABpZw3cYA34b742EWiPQNZ4YZORQwTAlGn3YuvNR2H7bS/A9judE+nfBn/bW24xBtv96Ar8YIuLsfWWl2PrLS/Ff257Bf5z20vQq9cRmD9vVnt49JkIJIKA5DAR3axGhgkELjDmklsxqPdH2G+Yi6GDgb69M+izcxq1fRzUDEakU9VA4IhDgL67pjC031r06nUIPAA5Z63kMDwQ9LpNAqlmB/VNy0AxDAJg1hsL8ONtnkD/vkvxq1+7kf5t8LddUelg6DCgsipAVRVQVQ3UDgFqh3rYfsdFmDvnlTa56KAIJImA5DBJva22GgKpXCNGXnYFBu65CtWVQE0NUMtUAfxyMNCvMuKpFthjYCP23KsBB+/v4BtfPx2cKgTSQE6DQAQ2QMDn5+uQyWTQmPEx6fmZ2Hbrl7H3XkDfARH/bVQCew0KUDEE6FuRT3sPAvpXA32rPHxvmzewYL4ihxsYIfo4AQQkhwnoZDWxNQEXq3DxdZdj794rsfvuKezR30flUAcVVWn067cKVVW5SKdBB3rYq3Ythh7gYXDNSnzxS8PR7NAOG+CmWrPQOxEoJhCYPyCawHllBwGeenUGdtrxFdTuA1QOQaR/G/xtV1Y1YNg+Lqpr0qiuzqKyKoWawSlUVq/DD7f9F+bPV+SweEzoffIISA6T1+eJb3FD88cYfdl1qO0H7DsMqNkHGDQsiwFVzRhcm8HgCjfSqfdAYNe9AgyqAIZUu+jV6+SWgOG6/HVkiR8BAtAuAZef5uXQhY+nZ03DFt/7J/r0X4M+A4JI/zb4264e1Ix9h8C0o7YyQM0gB7VVWVRXNOJHW72CBQtebhePPhSBJBCQHCahl9XGIgJNGDn6Gvx823XY7ecB9uZUWVUKe/XLoWIgUMOp5ginwcPy03+DK4FDfwl8+Uu/NXK4vuldcx1ZEQy9FYHWBFqmlZuamsy1qi+//ip23GYq9h2axj77Rvu3wd/1oP6Ouc6Y1+ZWDwK45/GKgVlsteV8zJ49szUPvROBBBKQHCaw09Xk93Hl+N9hvwE57MMIwjCgap9GDBoUoLoCqBzsRzoNqPkE/SpWYFhtGgP2eA+9eh1r5DALRQ419jdMgNcaAqvgOI5ZkPLSrLnY/nvTUDuwCQP2zEb6t8Hfdt+BWVTXAgMpilXAgIoAg6p99BvUjO9tNQuvv/7qhiHpDBGIOQHJYcw7WM1rg4AbYNTlI9C3j4vqIT4qK4DqvkB1dSOqBudXMXIlY1QT/8EbWOWhupoRkSZ8cbPTkDELUhrMauX8P/6tuVAEeFf88BYEATzPg+u6Zh/+nJ/x2Zv8PLzZY/ycG7/DvHO53GfODX9Pr0tPYM2aNZ/JlP0V7keewL5iH7Gf+TqAj4D3PDLTy2m8tmAGtv7mDDASXVHrR/Z3YX/PA/l7rwEqq3MYXAMM7A/zR2FNdRZb/+B5XXP4mVGjA0kkIDlMYq8nvc0Jl0N2PyWBwlYsCjxGeaQstLW1JYXMozgfW0Zb0tlWvjpWOgLpdLpVZuG+4VRxW/3OLxgxlBxKDluNHr1JKgHJYVJ7Psntlhy26v1wNCksEhS75uZmpFIpI4zhz8IZUCoYdeL5TJQPHtPWswQo+ewHyiIjuuGNfc5jbf0hoMihViuHx4peJ5OA5DCZ/Z7sVksOUVdXZ8SPklBfX28EgmL30Ucf4ZNPPjHHKHzFG2XDCkWxLPI98+PG86x8MB9+xsQytHU9AQo6+ZO5FXVKIvs9vNnP7DG+lxxKDu140D65BCSHye375LY84XJIYbDbhx9+iKuvvhpHHnkkTjrpJJx++uk466yzcNppp+HEE0/Ecccdh+OPPx6nnnoqzj77bJx//vm48847MW3aNKxYsaLN6WSbd1tyaT/TvusIMNIblkBOJYc3RoMp+MX9Y+Vdcig5DI8XvU4mAclhMvs92a1OuBwyetfQ0GCmfzkQwpLAyBE/Dwsko1Dr1q3D+++/jzfffBNPPvkk7r33Xlx66aU4+eSTjURefPHFeOihh/DSSy+ZvMMDjNFECgqlRZHDMJmueU3WY8aMwfjx4/H000+DfwDYLdzX9hj7JHwpgORQcmjHhvbJJSA5TG7fJ7flCZfD9jqekmA3Sh3fM8rExGnK8Of2PAol/49kwoQJuPHGG3H44Yfjd7/7HZ577jlwxaydarbna9/1BHr37o0ddtgBAwcOxKBBg0xk+L777jPizj4J9yP7h1POtp8kh5LDrh+hKqHcCUgOy72HVL/SE0i4HFIMKHSUgXCE0IJu61jxZ/w+82GyUmHP4X7evHm44YYbcM455+CKK67AU089ZUQxfI5edx2BvfbaC7vtthtqa2uNIFZUVGDXXXfFFltsgUMOOQRXXnklZs6cafrE9qONKkoOJYddNzKVc1QISA6j0lOqZ8kIcJ3F6GvOxR675O9x1ndIM/buCwweCvQfUIdB1W6k08CD+WxloH8FMGDAamz2lbOQ5ToQH/B5f+Nu2NavX28ijSzqjTfeAKedR4wYgQcffNDIpBVKXv/GiCTFhMLJjbJiN35uN54XxY31ZuTVtjncBnuMeytn4c+LX1tGzI8Lh8h2+vTpeOCBB3DzzTeb60cZtd1pp53wrW99y+x//OMfY/PNN0efPn1MFJF7iiMjiz/72c9w3nnnGZnnHwWsazaoN/fD5Hjx8Cpmv/4CdtzhDlTVAL2rM5H+bfC3PbA6jcraHKqGOOhX0YC+FXWo2SeHPv0/wX9s+S/MmSs5LB53ep88ApLD5PV54lvseOsx+roD0H/PN7HffkDVAYvRpw9vjNuEYUMaUTEAkU67D1qGQbVZ9OuXQm3NInzla7/O388Ya5Hz3uvy/g9LDhdG2OsMuRL64YcfNtGsZ555plXU0p7D79oFFJQVG8W04tLllS9BATYSZ0WurSwbGxsL8hz+nG23wsjv81rPuXPn4u9//zuuu+46jB071iwOYkSWwn3TTTfh/vvvx8SJE40kMhr41ltvYZtttjHyx8ghI4Y777wz9thjD+y5556gLB522GEmsjtlyhQsW7asUAUjsUjBPFKH98F2PsbMmW/jh9/5O/r2BgZUR/u3wd92VQVQUwXU1vCRecCgAcCwocCA/i623uotzF8wq8BDL0QgqQQkh0nt+SS3uxm4avwf0HeXdzBkgI/BQxej725ATf8m7DvIQW1fP9Kpcnfg19XAwP8Ghuy1Gl/7whngE9E8H3DcTyNx3T0EKDuMTFGAGN3iCumVK1cW5LGt+lhRauuzcj3GOlN2rRxSbCmDNgoabhNl2CZ7nKvAubjnjDPOMCvIGRHkQh9KXFjkitvPcqyYUwh53WG/fv2MDPbt2xf77bcf7rrrLsyfP7/VFD/7xH6PeWbwGjyGmE0gtwmvvbIO/739FAzoDdTWItK/Df62q/rkULOXi9q+Lqr2TKOyTzP2GeShsk8TdtxqEebNlxwWjy29Tx4ByWHy+jzxLc41r8Yfbh+Ogw4cg8OOuQiHn3E4Dj7+PBx5ykk44sSTcPRvop0OOnYwTjjtBBx57Ok49fTRGLLvPkj76+ChCQFaPz2jKwcDhYNRNO6tKNnyKEqMJPL6N4oQI1b2yR5WknhuccSQIhOFjfUOt5mv7ftVq1YVIqLhY/fcc4+JCo4ePdpME7/zzjsFaWO7yZLnU67Jj+9ZTlsbp5WHDBliIouMDtqNnIs35sP8bV7GCTmz7/APijV4be507H/wmTjgyAvxyxNOjPzv49ATjsUhxx+DI04ZjsNOOgaHnHAEjj5tOA4/+ShUH1iDd5e9VYxI70UgcQQkh4nrcjWYc6xObiUa1wMZB6jLLcfqpvWoy67EJw0fYl3j+kinxsbVaKirR3NTgIY6B4vfXGKelZvxm/DJ+pVdPgBshIwFFcucFUBKDq9LpAjylivXX3+9qRePcTWtnVrmQcqljcSFxbHLG9KJAtg+Sld4YzuK5YxTxryfJO8lyVsE8TrCTd1YphW8JUuW4OOPP25VB96+iBv7x0Yy+Z3izcF7CJCFH1DEV8HHJ3hvxQdocDJoxKpI/zb4265rasS6hno0pBtNWt+0DqlcI5qyDfhw9fvIZrvvD6hi9novAuVCQHJYLj2henQbgUxqDVx/FdUFQNr8Q8h/IvnvZDMDK+ZNhPdYgazzAQDKgGPaE/hA4AFea1/pMubFEhcWpbbkkdOdvDdfeON5VnZ4vDjP8Lnl+prtphDbayptPXmbn2OPPRbnnnsuVq9ebQ5beWObrehRrnl/SCvVPJGSWZyYv022DJsPJZF5cCuWdR5jHSmtlrUZKy7g5/hHVADXoyw5CNAAimPkfx8BwDYW2mGBmf8P+Kwshz7WSxFIDAHJYWK6Wg39lACl0Ifnr0M2ux4+V/LyHwwrh2b5Bh8dF9HEanv5fwDzQuUinWmAh0YEaP34tE+ZdM0rCo8VE5ZAObGSF36KB2WIgnjNNdcUplIpK+EIYtfUsPS5hgWMbbDSRXmjCPIpNBdeeCEWLlxoCicfRky5kYk939aM760MWnb2s7b2NjpZfK49zkUuYVln/qwbz2c/5Py18NEM3whhfpU7/8Ywf0uZS1Yj+rso/J7zQuz7+XY4bjp/jaVp76eS3BZbHROBpBCQHCalp9XOAgEbGQnMv3gMkfAjRhDr4GE1fA+RThkvCw9ppLIr4QT18BHAYwCRjz1u+xK1AptSvKAQhqcrKR8UD+6ZuFmBskJiy7399ttx7bXXFmSJEhOONNrv2/PLec82Urq4Ucy44pjXWHI1seXD6V372rYlLG72WHhvOYb3xXmwPMuNYsnN1iXM0PaLzd98FnCYBHD9LP/bsogpjSBTB3hupH8b/G3zN+C2/EHIPwo9N59aMbBvtBeBhBKQHCa049Xs+BKw/+AXCwNb3NaxciNx5pln4rXXXitEEFk/Rru42ehXOdWZQkUBs9JFuWMfWCmjLN99993m1jO8nrIzG2XSbuxLCh+ZWBG1dbDnaC8CIiACm0JAcrgp1PQdEShjApQSyolNFAb7mvvObu0JZnufbWy5FJ6DDjrIrGbmd2yUka/D195tbH5dcR7raCNxNn+2nYm8LQde7zdy5Ehzf0eeF5Y7+7229uxDTje3JXul6MO2ytQxERABEbAEJIeWhPYiIAIbRYDC0l7aqEw2cBIftzdq1CgTfaNohQVxA1/tlo8ZHSyuk5VyWwFeX8gFJ0888cQmRTytfNoIpJVPvrdy2pY82vK1FwEREIFNJSA53FRy+p4IJJSAlZRiQbTHO4uFETPKF2+UzellO5W8oWvxOltuR7/P9tqNsmZlkccZ4bz88ssxbdq0Vos/7Pnt7e2qZbabeW3Mohz2BSOKViTby1+fiYAIiMCGCEgON0RIn4tAxAhQKMKyYCNaPBYWms42y5ZT6nxZL67e5U2g+dxfO426MZLU2TZtyvdZPyuG/D4lls86vvrqqwu8ycpGAjtaBmWZZXCBCcvh1HRYApk335eybztaR50vAiIQLwKSw3j1p1ojAt1GoCvlkI2or683T/j4xz/+Ubj2zkYRu62RbRREEaMQM/F1WNR4+rx588yNre3xsBTaY21kWzjENtqVxvYgv1ccOeUxyiLrYTcJoiWhvQiIQGcISA47Q0/fFYEyJGCnF+11aZSIsECUosqUEFsO8+frUoqJXXhCITr88MPNM5hZ72JpKkVbOpoH28qN+3DEkO/5SMDf/OY34CPy7EYuZGTvZWiPb8zeLkoJSzH7lfkV82Yfh8/bmPx1jgiIgAi0RUBy2BYVHROBCBOgmKxcudI8Po2rZfmat1ChnDAa19mNUkIRoaRQ3pj4mseKhWVTygoLIPN7/vnn8fvf/75wO5tNybMrvsO6heWQjJ955hnccsst5jg/p6zxHMulI7eymT9/Pg488EDsscce2HXXXVFbW4sdd9wRv/71r/HHP/4RH3zAp+Dkt3A97DHtRUAERGBTCUgON5WcvicCZUrg1FNPRa9evfDVr37V7Pmaaeutt8b9999vnsJhq877BzIKxY2Cx41CY6/v4zErNoxi2S08xfnFL34Rd955p5FDG6G0EkrRY/7h79o82tvbMnkO8+C1h1ycEt5sWXyqCM/n++6InFlOZGCljNcBMmp40kknhau4ya/Ji89ZZr8NGzbMLG7hAh1ex3jCCSfg3/7t37DffvsV8uf5tk9s/eyebGwf236w57LeYam3EdtCxnohAiKQSAKSw0R2uxodZwLnn38+9t57b0ydOtUI1eLFi/Hkk0+a26pQNviYumKJslOl9riVM7u3vPg+/AQUSscWW2xRuI8fz7ORP5un/S73VjrDx9p6TbEJi8rMmTNx/fXXG8m0osPvhcXHylBb+ZX6GNto27d27VqT/dixYzF9+vSSFUXZ/Pd//3f89a9/LeRp+4ORQ/bls88+20q8LRu74pnvycXWlRnZPOyex6w0FgrSCxEQgUQTkBwmuvvV+DgSOOOMM8w0ZFjEKAKMsG211Vbo3bu3aTajRxSQ8BYWhhUrVhQ+YoTsvffeK7znCxt9oqTwXn7cGDGkmFhJsV/oiLjZ73JvZZX53HDDDXjhhRdMljY/7m0E0dbHltmVe3KyUUOWw+nkyy67rBB97UzZVux4SQDZ3nzzzUbubJsperNmzcK3vvUt3HrrrYWiFixYYKa0x4wZYx5B+Pjjjxc+44uJEycameR3x48fj3HjxpnpafaZ7ffw865bfVlvREAEEkVAcpio7lZjk0Bg9OjR6Nevn7nlCYWCsmGfzDF06FAjHOTw+uuv4+ijj8ayZctayQencP/0pz8VUP3zn/8017tRKn/+85/jiCOOMM8H5gkUFUoKo1uXXHIJ9txzT+y8884YPnz4Z0SpWKgKBRS9CEexwsK3cOFC/Pa3vzUyaEWJXw2/Dkcbi7It2VsbhWO5tuzjjz/e3HqnZIUA5prRL3/5y2bKnvmyXFsen9NMcWTfMIrJ6CX7p2/fvjj77LMxYMAA8zmv1eTG/j/qqKOwzz774Kc//anp94MPPthcesDj3MIibg7oPyIgAoklIDlMbNer4XElcNpppxmZo/RZmWBbX331VXz729/GwIEDTdN5DR8F45VXXjHv7XVrhxxyCA477DCz4pZ58BxOmXKamreV4TWGfLyd3ey1jWeddZaZvuZzhL/5zW/iV7/6VatVuxsrH+E626igjdIxKsYpZm422sXXNtoW/q6tX6n3Vg5tvnfccQfuvffekskV20yZY+Twa1/7mpE9sn/66acNX143us0225h+4VNYGGHldYlf+cpXCtFd5kEx/O53v4s33njDCPWJJ55ovjNjxgyzSInt4JNo2L/Mm1t3yLXlpr0IiED5EpAclm/fqGYisEkETj/9dPzgBz8Ap5cZRWIkkBHCXXbZxYgA5YrywJtMf+lLX8KcOXMK5VCyampqcPHFFxv54s2ct9xyS8ydO7cgY4888gguuOACI0MUPsoFo1DcGOlj3lw4Qcm0x6wY2ilj88EG/mPPZZ6UPsoMF2mw7OKN53aHGLJc1sPKKqdhbeQtHPEsrl9H37PNXHVOthR6rlbmSuXtt98eX//617H//vu36rfvfOc7uPHGG00x9ppPiiO/T6Hn1PEBBxxgpN5yZTsog+wn9l9HVlJ3tD06XwREIFoEJIfR6i/VVgQ2SIBSSCngqlZOdzIxmshr9pYsWWK+T5Gh8HFKmJFDG4WjfFF2Tj75ZCN/nMplXowcvvzyy4XpZCtjlCROfTJaaAWQed1+++342c9+Zsriezs93BGBo7xws8L53HPPmWv7Bg8ebFZd85q6CRMm4NFHHzX1p5R2x2bbQAZsN6OGdrMc7ftN3ZMlrwdlBJYLcfh6+fLlePvttwvRPa40J39KJCOMvO6xeGPf8TF+3Bhd5JiwYstjlENee/jDH/7QnGP70LzRf0RABBJLQHKY2K5Xw+NKgFOvu+22m1mBSlmhDHBxip16te3m9CJXw9ppZR6niPHeepRDuz300EMmckXRYOTq0EMPNWLJzylIPE5JC2/8TlVVVasbP4elJHxu8WsrkmHRYjlchc2yuDqaEU/uKbebbbaZuX6yOJ+uem/lkILNqBvrS6liHUuxWUGj9H3hC18wos18yY9lWz7hssjFTrdTqhk1pCwzynjfffeZaxJ5M/FTTjnFfI1l2HIYieV1otpEQAREwBKQHFoS2otATAgwSsipYcpF8Ypl20SKBh/zxinLF1980Rym3DCSxEUrvFeilQcraYw0PvbYY2ZBCmXETl/yNaN33Gy0j7dasdc28jjrsbGRvbbkh/V98MEHzYKXIUOGmGvp+vTpYySYZVnxtXUylenEf9hm2xabDY/ZuvGzq666yqz+5XHbNsvKfmdT92yvnVa2i4PsoiIroSyLssj3m2++OUaOHFmoM7/P1eZWGnkup5V5iyNbV1u3n/zkJzjmmGMKkmuPay8CIpBcApLD5Pa9Wh5TArzOkFOvXMFKmaHwUfQoEZQGbrxWjquVubiEEUS72QUovOaQAvTnP//ZROzC16PZhSy8VpHRMwrI5MmTTRYsj9/729/+ZqYxedAK1caKU/F5NlLHW7BwNS7Fl9ffUQ759BBO67Jtthzbls7sKVBWwpgP62SlipJGphRoW6b9LPydTS2f/Jg/5ZAR0vC0dfhWM7YvyYf9xXM57UxR5jWGvPb0f/7nf8y9Lnku/2hgX/HWOMyf5Vx33XUmusj7YBZz39T663siIALRJyA5jH4fqgUi0IoArzGkQG3oWb4UPsoCpxq5opXTy5xS5rEzzzzTRPu4mOEb3/iGWWDy0ksvmfvrcXqSkSpen8iNU9OcRrYSR1FiNI+3tQnLUkeiesyD8sLNChGFhvVj2yiFO+ywg5nuZkSTW7gsc6AT/2HZ4fzYNiuAzJbXVD788MOtSmD9Srnx5uXbbbedWWgSlnOWQfG3MkdBJVuuMOcU+/e//33zBBU+RcXe65ASz9vYVFdXm+l+9jHP5Z59xY3ts31YynYoLxEQgegRkBxGr89UYxFolwAXjzBKxFuhUCDC/+AzgmSnYBkBo9RREJgoeRQF3ipl1KhRpgxGHHkNIz9nZIqRxm233bZw6xOeRBnhbXIoF3YqmlJJ6QwLVkfkkPnayBijYHbj4opf/OIXqKioMNccUnasRPKcsMDZ72zKnvmE86KA2fcsj9ddkiuny8k4XIdNKS/8HUYMuZEdn69s5dhKoJ1eDn/HRjB5I+x77rnHSCHzITvb31xoxJXrjA5PmjTJyC1XrLNdbEsp2xCum16LgAhEj4DkMHp9phqLQLsEKBVWMMInWrnhMftkFCsEjAJy9SujX5QySh4/o3RYOeMiBxvB4nGbmJ8VULunwLz//vumeB6z8mI/D9er+LUVSiuath487/nnnze31mEUjAtS+Lxhbvbc4rxK9Z7sLD8+DYbPkrZtCguYPdaZcm1EMMyKx2z5Nm/2sT2X5fI9I4Rtbexf3neSi3psn1v5pnxa4bT7tvLQMREQgeQQkBwmp6/V0gQSYNTICoR9BjAxUDysJFgZC+Ph5xQu+12KiRUPfi88hWrFjJIUFppwfuHvho+39bqtellpZXt23313c00lbwTN6xBt/W1d28qzFMdYDuVpxIgRZlqX9bTCZhl0NDr6efVivrwswIq5jf6xTIpguJwPPvigVTaWH6WP3Fhv5sV7XfI6RNtHNi9+mfl1Nb9WldQbERCBsiYgOSzr7lHlRKDjBKwcWHGxObT1j7+VGnsOZYTfo1DYKBinp/me37d5WjmkgBTnwbwog6yHrYvNf2P3NqoVPt8KER8PyMf41dbWGkmzssO9fR3+XkdfhzmF6892Ll26FBdeeGGhXTaSyjJYP8uno2W2dT6Z29XmNl8ea2uzU8/8jCIYboPtR97nktP9lq3tQyue4Wdpt1WGjomACCSHgOQwOX2tliaEgBUJu7fCR0kIyxMlwUamKApWKKxMEJeVE4uOgmSlgsessFlBpEyFy6DMhIUmLFs2z7b2Ydmx37H14vOEeZ3jpZdeWpBQ5hEut608N/aYrS/52Xbxu2Qxe/Zs3HrrrYWseK6VLcuv8OEmvgiXGc7Ccrf9ys/C5VPIw58xH9sWnmujt3xtyyhVncP11GsREIHoE5AcRr8P1QIRSBQB/p8WV/FOmTLFtLvUEbtimDayRtG67bbbwGlcymtYxPian1uRLc5D70VABEQgSgQkh1HqLdVVBETALJzhbVvsM6EpZKWUMkbTGIW0UTUbZSN6XuPIqWQbMbXdwXPt+faY9iIgAiIQVQKSw6j2nOotAgkmwFvwcHW13camjzUAABvASURBVEo1pcz8KJqcwrZTsnwfnjrmZ+Gooa2D9iIgAiIQFwKSw7j0pNohAgkiUHyrnnB0ryswMH9FBruCrPIUAREoRwKSw3LsFdVJBETgcwmEJc1GDEsph+H8bfSQlWHEsHj6mhFERRE/t6v0gQiIQEQJSA4j2nGqtggklYCd4mX7rRRaSSwFk3D+doUw86UY2vL4nuLIFJZJiWIpekB5iIAI9DQByWFP94DKFwER6BCBcPSOctYVQmYjhowWWvljOfY169BWJLGUktohKDpZBERABEpIQHJYQpjKSgREoHsIhCN4Vg6tuJWiBuG8rPBRBrmxPB7je1u2LdOeY99rLwIiIAJRJCA5jGKvqc4iEGECjptGKtWYb0EAODnA44M/Wl5zH+uENOBmqZlA4ABIw3Gb8032I9yxqroIiEBsCEgOY9OVaogIRIVAawPKZvis5iwCSiGfdEJJjHGiEzqZAPCATNozkkhhtk4clV5UPUVABOJLQHIY375Vy0SgbAk0N2dM3RynJYIGF02pOi7zACdv45yyGcBnpNQHPAYOW6TYD3Lwg3TZ9pkqJgIikBwCksPk9LVaKgLlQSDgc34pQT5SzfWMFZpU37DGvA+QRZxTLnDgwYGDLBwvV5hOdl0qseSwPAapaiECySYgOUx2/6v1ItDtBHyv5RpD+GhKrQfA6CEF0YfnBWDwLM4pHxVNwcEn8FCHgO12gFyWIcTWU+7d3jkqUAREQAQASA41DERABLqVAOUwf32hi2yuCX5AOcx70QP3TcLU6X+Ldbr3gTdwz8NT8K8F0+BiNTzKsQ/k0pxmlhx262BUYSIgAm0SkBy2iUUHRUAEuoxAyzV2vL7QRgx56WHDOuBHW+6FHf7zgVinXf7rEfz3T8dhzGU3YU364/xVljZoGEgOu2zcKWMREIGNJiA53GhUOlEERKAUBFyHTxfx4fmMGFIQ+fiRvCf26rUDKioR63TgIKB/7+m44qqpSAdA1s+BTPILU1qiqKUArTxEQAREYBMJSA43EZy+JgIisGkE6IGuccLmvBFymhkps0J5s14noLIqiHWqGAoM6p3DhRedCgR86grdOAtOtwOpTYOqb4mACIhACQlIDksIU1mJgAhsmIDkUHK44VGiM0RABHqSgOSwJ+mrbBFIIAHJoeQwgcNeTRaBSBGQHEaqu1RZEYg+Acmh5DD6o1gtEIF4E5Acxrt/1ToRKDsCkkPJYdkNSlVIBESgFQHJYSsceiMCItDVBCSHksOuHmPKXwREoHMEJIed46dvi4AIdJCA5FBy2MEho9NFQAS6mYDksJuBqzgRSDoByaHkMOm/AbVfBMqdgOSw3HtI9ROBmBHw4MKlISKTv/Gzuc9huuU+h8eiugrtp2oP1WWcqqo9tJcqh+XlcPTFv2l1n8P8w1F0n8OYDXc1RwQiSUByGMluU6VFILoENiSHlRU+2k8eKivKN1VUemgvDRoCDNw9m78Jtu/B93UT7OiOZtVcBOJJQHIYz35Vq0SgbAlsSA5rqoEop+pqoL00sBYYsFsGo8adAnguPC8wT0jJP0KvsWz7TRUTARFIDgHJYXL6Wi0VgbIgsCE5rKr00X4CqirLN1VWAu2lVnIYihwaOfQbyqKPVAkREIFkE5AcJrv/1XoR6HYCG5LDgQMzaDcN8DCwjNOAAR7aS5TDwrRy/kJDEzn0+LzpQJHDbh+QKlAEROAzBCSHn0GiAyIgAl1JYENyWFPjo91U5tPO1TVAe6l/DdD/F+n8NYchOfTNIp2mrkSvvEVABERgowhIDjcKk04SAREoFYENyWF1tYP2UxbV1eWbqmqyaC/tVeFh7583YeTYk81qZXL1kIXksFQjTPmIgAh0loDksLME9X0REIEOEdiQHO6++2q0m3p/jN3LOO3W+2O0l/YYkEOfXeoxYvSJZkFKEOTl0EwrQ5HDDg0mnSwCItAlBCSHXYJVmYqACHwegVQTL64DPL8ZQBa5XK7lVB/nnnc6Lhw3NtZp3Ljf4sLzbsTkSVPBRSgBWeSArL8IcD6Pmo6LgAiIQPcRkBx2H2uVJAIiQAK0IQCO22wS4Jt7/fFYKsUFGTSkdpKfBaKcsApN9YAT1BkUzekGBMaXP5Yc5oeG/isCItDDBCSHPdwBKl4EkkrA912kmusBuAg4t0pp9Nv3QuOMDDRGOHmoM0+ICfChiZymM3WcVwbQAC+d1NGgdouACJQTAclhOfWG6iICiSDgo7HRPibOR87Jv3ZzwFWX34lbbms/3Xr7XxDlNP7GRzD+qll47Km/tPS2a6TYdZuQyyRiAKiRIiACZU5AcljmHaTqiUDcCLheGtlsy8V2AEzkjCFDD/j213tjSO2CdlN11RxEOR1w0BTsP3gWxlw6DjledukDbrYJuWwKgQmdxq3H1R4REIGoEZAcRq3HVF8RiDgB1280U8iMFHILzApdl7PL+P43h+Dok5rbTUee0IQop6OOasBRvwTGXnolsrzE0gUCpw75mXXNK0d8eKv6IhALApLDWHSjGiECUSLQZOSQizDMI+PAaWXH/K/3T87C4Ueh3XTUsUCU0zHHuTjpCOCia8Yg4Lob82SUdSaCyPsdahMBERCBniYgOezpHlD5IpA4Ag1Y/cn6/CKMAMjk1hg55KWHP976FJxwDNpNxx4RIMrp6BMbMPxwYOSVx+UX4HhA4K6Cm2lZl5K48aAGi4AIlBsByWG59YjqIwIxJ+AigGdW5zrwOLdMOUIDMnCxw3YjcOzRiHU6+hjgqEMyuPCKS/IXHAYuPIee6JggYsy7X80TARGIAAHJYQQ6SVUUgTgRkBxKDuM0ntUWEYgjAclhHHtVbRKBMiYgOZQclvHwVNVEQAQASA41DERABLqVgORQctitA06FiYAIdJiA5LDDyPQFERCBzhCQHEoOOzN+9F0REIGuJyA57HrGKkEERCBEQHIoOQwNB70UAREoQwKSwzLsFFVJBOJMQHIoOYzz+FbbRCAOBCSHcehFtUEEIkRAcig5jNBwVVVFIJEEJIeJ7HY1WgR6kIAPNDfmzFNSYJ6OUocALnwX+OlOh2H4kUGs05En5XDMsWtxzrjfAHwiCh8j6AJe4KPJ58OWtYmACIhAzxKQHPYsf5UuAokj4GV8c9NnJ5uD4zUAaELAZyy7wI7bHYLhw/1Yp8OO9HH8MVmMumJUy2MDnZYbgftozPJRgtpEQAREoGcJSA57lr9KF4HkEXACEzX0HB9+wGcJZ5HJ+mhuAP7rR4fjyKMR6/TLfX0cdoCD88aNRVOqDummtflnTcOBYzQ5eUNCLRYBESgvApLD8uoP1UYEYk/AzaSNDDU3pfOPj4OLpiYfgQPssevpOPK4xlins08BzhgOXHXDLfDhwfPqjSAHSPNJgtpEQAREoMcJSA57vAtUARFIGAEvf71hcxOjhoDjZM2zlimHW2+xH44+Ioh1Gn7oRzhs2Apccc11LXFCTiWn4fqNihsm7Keg5opAuRKQHJZrz6heIhBXAry4MACcrG9amMnmrzlsrAe++x97o3bgi7FO+w+5E8P6P4bLrxmHrEcUjokcZp06BHkkce15tUsERCAiBCSHEekoVVME4kIgcHJwcx6yzflJ1JzDiJmDIACuueYePPJ/j8c6/fOR53Hf7csxc9ajZhrZ5WIc5K+/dDJcmqNNBERABHqWgOSwZ/mrdBFIHgGGx+hAJkrmI5Nbi8b0KnPIs8uWTXSREcYYJjSgaR1v4rPEyOHqdXY62WlhkrwhoRaLgAiUFwHJYXn1h2ojAgkgkIXv+/kpVBMoc9HQmF+xu36Nh2zOj3Vy0IhMCki5C4whZ5q4ICWNAA1IubqVTQJ+AGqiCJQ9Aclh2XeRKigCcSOQX4hirjvM0Q55zZ0DJwf84YZ7cNNtd8Q6XX3dg/jD+MV4/Im785FCI8j5aw/dltdx63G1RwREIFoEJIfR6i/VVgQiT8Bxm831hZTDXI4P08s/IqSx3sWB/3siRp27Jtbp3HNewDknvY3f//FG81QYwyEboDntwNOClMiPbzVABOJAQHIYh15UG0QgUgRcOI5ZpmtqnXNSCAIPuQxw5CHnY9xoxDpdfSlw0bnAdTfdBJ9rctj2nAs/gOQwUuNYlRWB+BKQHMa3b9UyEShTAr6RIbMCBT64WjmbTZtHyJ1w9OUYObY+1mnsSOCyUcD4W67Nr9JGU/7hyshKDst0xKpaIpA0ApLDpPW42isCPU7Az08rm3q48PzmfI1cYGjlmRhzEWKdLjgfuOJi4KpbLoGHlLn5NS8+dP16rKv/qMd7RxUQAREQAcmhxoAIiEC3EvC8/P0NPXPfGgc+WlboukBV39MxYlQ23mkkcAkFePwIuHDzU8vmWkMuzNFq5W4djCpMBESgTQKSwzax6KAIiEBXEbBy6Lo0IqclcpZftHzUr67GuIsR6zT6IuCSS4BR14yEuQE2MfAFb2wT8HnT2kRABESgZwlIDnuWv0oXgeQRaHl8nmtuY8Pmc8WyWZeB/f/3fIwZE8Q6jeWCmwuAa2/9HQJaYdByr2+fq7a1XDl5Pwi1WATKj4DksPz6RDUSgXgTkBxKDuM9wtU6EYg8Aclh5LtQDRCBiBGQHEoOIzZkVV0RSBoByWHSelztFYGeJiA5lBz29BhU+SIgAu0SkBy2i0cfioAIlJyA5FByWPJBpQxFQARKSUByWEqayksERGDDBCSHksMNjxKdIQIi0IMEJIc9CF9Fi0AiCUgOJYeJHPhqtAhEh4DkMDp9pZqKQDwISA4lh/EYyWqFCMSWgOQwtl2rholAeRJoStUVKtbQuA5A1rz3csBB+56PEePceKexwEWXfYRr/3Aj3GwDkHEArxmBB6TNc5YLePRCBERABHqEgOSwR7CrUBFIMoGWx4EEgO/zdRZB4MF3gEMPHIkx4xDrdM5veZPvtbju93cg05gFmnnj6xQCH8ihIckDQ20XAREoEwKSwzLpCFVDBJJDwIHjOObJIHwiiOc3w/McOBnggH3OwEUXpuOdxgKXX7wOd971aP6BKMaVm8wzljP4JDnDQC0VAREoWwKSw7LtGlVMBOJKwIHv+/nHxgUBAvCxcS5yGeDk48fhjFMnxToNP24ihh/zMH43/lqkUzkjiJ6/zkQOPaTi2ulqlwiIQIQISA4j1FmqqgjEgUA21zJ1GgCex6cqO/kUAM9Om4sF85fFOi16Zw1mz/kE7yx/ueV6Sx8+1sHJAplc/vrLOPSz2iACIhBdApLD6Padai4CkSSQc+vz9aYXMsFFc7rlmM9AWkOsE1BnppB9LDdSnEo1AlhHDPB4+aE2ERABEehhApLDHu4AFS8CSSMQ2BW5LXKYc5rhB2lQC1d8sBqZTC7WKXAbwUXaPhrNlHLO4W4N4AFkoU0EREAEepqA5LCne0Dli0DiCLRcVxcATg5oTnOaOQve1ubyy67C9Vc9HOt087V/xpUXPoxJj01HYx1MFDHlvI/8jHJT4kaDGiwCIlB+BCSH5dcnqpEIxJpAEARmOtn3APPa3OfQNVG0kef+HrfehlinP/0phz/fBNz10G1mVt3yCODCN9Psse5+NU4ERCACBCSHEegkVVEE4kTAypDkUHIYp3GttohAnAhIDuPUm2qLCESAgORQkcMIDFNVUQQSTUBymOjuV+NFoPsJSA4lh90/6lSiCIhARwhIDjtCS+eKgAh0moDkUHLY6UGkDERABLqUgOSwS/EqcxEQgWICkkPJYfGY0HsREIHyIiA5LK/+UG1EIPYEJIeSw9gPcjVQBCJOQHIY8Q5U9UUgagQkh5LDqI1Z1VcEkkZAcpi0Hld7RaCHCUgOJYc9PARVvAiIwAYISA43AEgfi4AIlJaA5FByWNoRpdxEQARKTUByWGqiyk8ERKBdApJDyWG7A0QfioAI9DgByWGPd4EqIALJIiA5lBwma8SrtSIQPQKSw+j1mWosApEmIDmUHEZ6AKvyIpAAApLDBHSymigC5URAcig5LKfxqLqIgAh8loDk8LNMdEQERKALCUgOJYddOLyUtQiIQAkISA5LAFFZiIAIbDwByaHkcONHi84UARHoCQKSw56grjJFIMEEXCffeM9z4DhZuG4OrusDATDivItw+22Idbr71mbcfsvruOsvE+EgiwBpAA7S6VSCR4WaLgIiUE4EJIfl1BuqiwgkgEA24yEI2FC/kJqbM/j4o3U495wxGHXR3bFO5501AZdf9gjuuOthrGtcAw/ZBPS6migCIhAlApLDKPWW6ioCMSDge0BTU7OJGPq+iyDwzHtGDtd8koIHxDqlM4ALJg8eHDbbRE35IpVqjEEPqwkiIAJRJyA5jHoPqv4iEDECgQ9kMrlC1JARRJ9BRFqS2XtAEN+UF0MX2aARWT+NplQOxgkL0dSIdaiqKwIiEDsCksPYdakaJAJlTsBIEOvoY+3a1cjlMvC8wMjhsqUrUbd+dazTyrV1WLF6BVbXf1iIHDbW+2BElddfahMBERCBniYgOezpHlD5IpAwAg31zcjlGD/79JpDImioz+KuOx7A3+6dG+t09z3P4t4HHseTzzxlIocmYMq5dEUOE/ZLUHNFoHwJSA7Lt29UMxGIJ4FQ5JDXHGazadTXNxo5uuevf8fExxDrNHVyBk89uRzTpr/aEjnML982U+vx7HG1SgREIGIEJIcR6zBVVwSiTsDJBeYaw6amhkL00E4r3/bHuzF5qh/rNOUR4KlJTZg0+VWk3RRSmbXmVjacUs5mtXI56uNb9ReBOBCQHMahF9UGEYgUgSzsjbDz1Xbg+VkTOfzrHY9j8iTEOz0Z4PEJKUyd/kzh/o5AHW91aCQxUl2pyoqACMSSgOQwlt2qRolAOROQHEoOy3l8qm4iIAKSQ40BERCBbiYgOZQcdvOQU3EiIAIdIiA57BAunSwCItB5ApJDyWHnR5FyEAER6DoCksOuY6ucRUAE2iQgOZQctjkwdFAERKBMCEgOy6QjVA0RSA4ByaHkMDmjXS0VgSgSkBxGsddUZxGINAHJoeQw0gNYlReB2BOQHMa+i9VAESg3ApJDyWG5jUnVRwREIExAchimodciIAJdTsBzYW6CHX58nnk6SAD85c4H8dRktJ8m8SbS0U2TJqYwcUIdZsycCgS8uaELH6vhOYBnHinY5V2gAkRABESgXQKSw3bx6EMREIFSE/C9z8qhfUIK5XDylPQGUhaTp0Q3TXrcwcTHUpjx/DOAb56sHJJDPnNamwiIgAj0LAHJYc/yV+kikDwCARCY5yv7rR6fF/j5yOHjE4E4p0kTfEx8NIsZz81kqNA8GcYP1oIRVQ96fF7yfhBqsQiUHwHJYfn1iWokAvEmYMSQTfxUDl3Xh5XDCZMDtJsmARMinPJy6GDGc//Ky6HPAOL6FjlMxbvv1ToREIFIEJAcRqKbVEkRiBGBIjkMAq/wjOG/3vUQJj7RHOs0aWIWEx9LY8ZzL0oOYzSs1RQRiBMByWGcelNtEYEoEAg+veaQYshkrzm89+5/YMoExDpNmrwWEx9fhxnPPxuSw3pFDqMwdlVHEUgIAclhQjpazRSBciHABSlGBuHD910jh3a18v33/h+enOC3nx538WSE06Qn3sPESSswY+aThZl1P5Aclsv4VD1EQAQAyaFGgQiIQLcSoBzyGkOaUbEc/u2+f+KpaRPbT888iqcinCY9tRgTJ7+DGS9MzK9WNtccSg67dRCqMBEQgXYJSA7bxaMPRUAESk0gAO/t58N1c4Ws0+mWVbqccjZ3++Md/+KZPK7WBpBxGgA4ZiGOWZvDg75WKxcGhV6IgAj0GAHJYY+hV8EikEwCVg493vW5ZXMc3tMFSDc7CODHOjU15+VwfcNqI4eMpFo5DNy0RaK9CIiACPQYAclhj6FXwSKQTAJ+wIihnVIO4JsLDvP3Pnx36XK8+/5HsU7LlqWxZk0zlq9YlpdDe0cfRk2d5mQOCrVaBESgrAhIDsuqO1QZEYg/Ac9MnfotC1F8eF4+ashFKi/96zXMmbMy3mn2Wrzz9loseetN5EW5JXLoA4ocxn/8q4UiEAUCksMo9JLqKAIxImDlMD+XCjhOfnqZcvj01Gcxb04Q6/Tyiw14ff4aLFi4GPkp9vxTUvL3BP90qj1GXa6miIAIRIyA5DBiHabqikDUCTBaxnsbWjnMZDKmSXyk3rSnZ2DuLMQ6vfYvH6/Pq8f8+W+2cLByyJUqerZy1Me36i8CcSAgOYxDL6oNIhAhAoyW5Vcq82I7oLn50+vsXpj5MhYsQKzTwtnAkoUO5s9f+qkk83Y2ric5jNA4VlVFIM4EJIdx7l21TQTKkoCLXI7RwrwcplKplptiA6+9Ohez56Zind5cALz9BrBg/rKCHPpuADfnSA7LcryqUiKQPAKSw+T1uVosAj1KwCvMnOaX6TpO/t5+PP7izDmYOw+xTgvmAvPmNWDewnfyd3IM/Py9Dk2v5IW5RztIhYuACCSegOQw8UNAAESgewlIDiWH3TviVJoIiEBHCUgOO0pM54uACHSKgORQctipAaQvi4AIdDkByWGXI1YBIiACYQKSQ8lheDzotQiIQPkRkByWX5+oRiIQawKSQ8lhrAe4GicCMSAgOYxBJ6oJIhAlApJDyWGUxqvqKgJJJCA5TGKvq80i0IMEJIeSwx4cfipaBERgIwhIDjcCkk4RAREoHQHJoeSwdKNJOYmACHQFAclhV1BVniIgAp9LwD5bmU9J8TzPJJ7MZys/M+05zFuQiXd6BVg838PiRSvMjcB93wWC/CP0/Fz6c7npAxEQARHoLgKSw+4irXJEQAQMAT5bmU9H8TwHvs89n7Ocl8Nnp8/EnDmId3oZWDQ/i0WLlhc4SA714xABESgnApLDcuoN1UUEEkGAj0jJy2EQBAU5dF0fM59/CXyCSJzT7JeB1+fVY+HCt83j8xyHj83LRw4Dh48V1CYCIiACPUtActiz/FW6CCSQQF4OzXSqiRjmI4eUw5dfmoW5s/1Yp9mvpvH6/DVY+PoSMIoqOUzgT0BNFoEyJyA5LPMOUvVEIH4EWsshp5a58ZrDuXMWYs6clbFO8+fVYfGilXhj8SIEcOA4HgOp+eihp8hh/Ma7WiQC0SMgOYxen6nGIhBxAp+VQ/oh0+JFb+OdZStind58sx5Ll36Mt95ZDMABI6ZWDgNXC1IiPrhVfRGIBQHJYSy6UY0QAREQAREQAREQgdIQkByWhqNyEQEREAEREAEREIHIE+ClPsuWLUOvyLdEDRABERABERABERABEeg0gYaGBqxatUpy2GmSykAEREAEREAEREAEIkyAEUOKIaOG2WwWvTi3rCQGGgMaAxoDGgMaAxoDGgPJHAOUQkYMKYbcNK0cYdNX1UVABERABERABESg1AQkh6UmqvxEQAREQAREQAREIMIEJIcR7jxVXQREQAREQAREQARKTUByWGqiyk8EREAEREAEREAEIkxAchjhzlPVRUAEREAEREAERKDUBP4fS3wLobvDQZgAAAAASUVORK5CYII=;" parent="1" vertex="1">
                    <mxGeometry x="90.00350997924807" y="39.00079170227053" width="647" height="206" as="geometry"/>
                </mxCell>
                <mxCell id="27" value="Stack" style="text;html=1;strokeColor=none;fillColor=none;align=center;verticalAlign=middle;whiteSpace=wrap;rounded=0;fontStyle=3;fontSize=21;" parent="1" vertex="1">
                    <mxGeometry x="208" y="142" width="60" height="30" as="geometry"/>
                </mxCell>
                <mxCell id="28" value="" style="shape=image;verticalLabelPosition=bottom;labelBackgroundColor=#ffffff;verticalAlign=top;aspect=fixed;imageAspect=0;image=data:image/png,iVBORw0KGgoAAAANSUhEUgAAAoMAAACdCAYAAADPLXJMAAAgAElEQVR4Ae2dB5gVRbqG3XR3ve5e19Xrutc1oSA5w8STZ4ZozllXV911dV1dc86oJFERs6iASjChAiI5J0GCYVUkSZo8Z07q8N3nq546NCMwo3OGOWfm7+dpuk+f6uqqr2ro9/x/1V8HQDZRQBRoEgWq7Q1Yu2Us7n/0SQwZMRaDRz6N+wa9ikFPPoOHnny4zv3xx2finrvexuovViGSiMO0WA0DdgyAOm+SaslDRQFRQBQQBTJMgQMyrLxSXFGg2SiQsID3p87Hsf/3FHp0WIncXp8jp3MYvqwydG67Bjndv9vn7uu1BJ2OfxFTP16DhEFZEgCKEY/ZsFHRbHSSiogCooAoIAo0rgICg42rr+QuCuxVARMxfLJwEVof9yb8eVH4/THkZQEFASC7p4FAPva59/MAbY5+DzPnbIKtnhKDjZ2IRGyYKNnrc+ULUUAUEAVEAVHArYDAoFsNORcF9qsCFuYt/ALdO85CYQEQ6F+BbL+BQL8w8vzfwx+M7nMP+SI46s8v4aOZy2DRN2wDiVgcZozOYtlEAVFAFBAFRIH6KSAwWD+dJJUokHoFTODjjz9H17ZLkZVlILdPKTx9gMJTgEBRbJ8gqEDRH0OrVq/jo5mLAcQAE0hUmzDj/BRNfXklR1FAFBAFRIFmqYDAYLNsVqlUZihQgjmzF6Ig/1Pk5ceRVbATPb1AXgDIzwf8vn3vwSDQ9sRZmDztM5hmQk0aiVUXK5dxNdZlhgRSSlFAFBAFRIEmV0BgsMmbQArQkhWYPmcGOrabhJAX8AYt5PtMBIKVCHgBf8De5x4qiKJt6yWYNG0abDV5JObMIeGM4pYsqtRdFBAFRAFR4EcpIDD4o+SSxKJAahVoKAyeeMJigcHUNonkJgqIAqJAi1NAYLDFNblUOJ0USAUMTpw6dZdlMM7aiWUwndpYyiIKiAKiQLorIDCY7i0k5WvWCjQEBoOhCGgZFBhs1l1EKicKiAKiQKMrIDDY6BLLA0SBvSvQUBhsc/wiTJgyBRZoEow5q4+IZXDvgss3ooAoIAqIAj9QQGDwB5LIBVFg/ynQEBgMBKshMLj/2kqeJAqIAqJAc1VAYLC5tqzUKyMUaCgMtm61UFkGuZoJLYOWCi8oYwYzovGlkKKAKCAKpIkCAoNp0hBSjJapQCpgcPxHH8ENgwwzI6FlWmZ/klqLAqKAKPBTFBAY/CmqyT2iQIoUmLt4Prp2mgRfHuALJeAPAYFAFP68uuMMFhbF0a7NUrz+zju7ZhObXJVOYDBFzSPZiAKigCjQIhQQGGwRzSyVTFcFUgGDr739tgODdlQtSWfZcbEMpmuDS7lEAVFAFEhDBQQG07BRpEgtR4GGwGBBYUxZBgUGW05/kZqKAqKAKNAYCggMNoaqkqcoUE8FBAbrKZQkEwVEAVFAFGg0BQQGG01ayVgUqFuBhsCgXpv41UmTHDexFVFuYtOKwZIZJHWLLylEAVFAFBAFlAICg9IRRIEmVEBgsAnFl0eLAqKAKCAKKAUEBqUjiAJNqEBDYZDL0Y2eONGxDJrVyjJomFGYVhNWSh4tCogCooAokFEKCAxmVHNJYZubAg2BQb02scBgc+sVUh9RQBQQBfavAgKD+1dveZoosEuBBLBg6Xz07v4Wgj4b+QELuR4g3x9FwFd3nMFg0ESHtqvw0pu0DFqAHVeWQUicwV0ay5koIAqIAqJAnQoIDNYpkSQQBRpJgb3AoCcQExhsJMklW1FAFBAFRIEfKiAw+ENN5IoosH8U2AMM5nkBgcH9I788RRQQBUQBUcBRQGBQeoIo0FQKGMDCZQuQ1WM8Qn7AE7ShYTDoFzdxUzWLPFcUEAVEgZamgMBgS2txqW/6KLAHGMz3Ad5gHAKD6dNMUhJRQBQQBZq7AgKDzb2FpX7pq4AJLFq+ENk9J6AgAHhDgIbBUEAsg+nbcFIyUUAUEAWalwICg82rPaU2maTAXmDQF0pAYDCTGlLKKgqIAqJAZisgMJjZ7Selz2QF9gCDHj8gMJjJjSplFwVEAVEg8xQQGMy8NpMSNxcFjAQWL1+J7OwX4MsHsvMt5Adj8PoBrycBf8De567jDI4cPQaRWDUYXxAmYCMuaxM3lz4i9RAFRAFRYD8oIDC4H0SWR4gCe1TANBQM5uS8uBsM+gKAz2vsEwQJigKDe1RVLooCooAoIAr8SAUEBn+kYJJcFEiZAqaBJStWQcNgjsdWlkGBwZQpLBmJAqKAKCAK1EMBgcF6iCRJRIFGUWAPMOgJxSEw2ChqS6aigCggCogCe1FAYHAvwshlUaDRFbBMLP30M+TmvgS/B8jl6iOhOPxBwO8zxU3c6A0gDxAFRAFRQBSgAgKD0g9EgaZSQGCwqZSX54oCooAoIAq4FBAYdIkhp6LAflXAtrBs5Wrk5b2MgNexDHoLEgiEgIDfEsvgfm0MeZgoIAqIAi1XAYHBltv2UvOmVqAWDOZxKTqBwaZuFXm+KCAKiAItTgGBwRbX5FLhtFHAjuPT1WuQl8fQMgY8QcBbGIPHBwQCdYeWKSwEOndYgydeeAUJM+7EGeQBCdgpqKRt78olHlcZI5FIqJwjkQhisRii0Sh4zs00zeRTma6iokJ95nl1NeMgOhs/63wsy1LnhmGoLz/55BOUlJSoc16rrKxU+fL5fJ5OX5NVWhxYLl0/asAy6o3nWhd3vfX3Wld+Zn11PuFwGPo7tgPPdT76Xt0+vI9t4H6uTiNHUUAUEAXqo4DAYH1UkjSiQGMokOYwSMhwA4eWgNCxaNEiPPTQQ2ofPnw47rzzTsyZM0elJ8jsadOwUhtqmJaws3XrVhx11FFYsmQJysrKUFVVlcxGAyfLlC4b68Nya41effVV3HPPPXjkkUcwdOhQpQnhlrBYe6NG+j4NzToN662/45E78+Czdu7cqTTnkRuvufXm5z3pq/OWoyggCogCe1JAYHBPqsg1UWB/KJAiGBz+/MtJy6CtuCN1lkENJYQMvRFMnnvuOXTr1g2zZs3CW2+9hREjRqBnz55YsGCBTqYsVfp+XuQ5rWM8agsYzzUslZaWokuXLli9enUShpKZ1ZwQfJiHG4Bqp2mqz6eddhquvvpqpceECRPw0Ucfoby8XBWHFlSWW1s9dZ31kd9x09DLc96jv1dfApg7dy4CgQA2bNigQFBfJ5jqPKhpOuqjyypHUUAUSD8FBAbTr02kRC1FgQbCYEGBjU7tV6OxYNDdDIRBDYS0zj3++OMYOHBg0grFawcccADee+89dduHH34Iv9+P1q1bo3379gqSCCncCDhvvvkm2rRpgxNPPBFt27ZVULl582bk5uYmgXL8+PHqe0KVe6sNSO7v9ve5rhOfe/rppysodl+jBW/kyJHo0aMHLr/8chQVFeGdd95RxTz33HNx+OGHo1OnTjjllFOUJZQ6vvjiizjooINwww03KI0PPvhgPP300wrwzjnnHKVzr169cNFFF2HmzJnJKuv24QVthU1+KSeigCggCuxDAYHBfYgjX4kCjapAimBw2HMvIW7QJJiAFWWJU2MZZE5uqCBs6M+0BHbo0AEffPABpkyZgltuuQWXXHIJiouLlSuTVr5vv/1Wybdu3ToUFhZi4sSJyuI3duxYHHHEEZg9e7b6fuPGjcrSRfdmQUGBuj5mzBh4PB58+eWXKo3+R7tHtRVMX2+qI126GsLOO+88XHjhhXj77bcxadIkEIi5EXwJysuXL08W8+9//zsuu+wyZSmkZmeeeSauvPJKBYSs+4EHHojFixer9NOnT8evf/1rBdFr165VYOm2IPL5tLTqciQfIieigCggCtRTAYHBegolyUSBlCvQQBgMhSx0bPcZGgsGCX61x5/pz7R2HXfccRg1ahSGDBmixsfRavXZZ58pmQgmzzzzDJ544gk1fq5Vq1a49dZb1SSJ22+/HcOGDVPpdH7ahUqLFy2Kf/vb30Cg3LZtW1J2NwAlLzbxibYC0qJ39tln4+STT8bLL7+sLHmEOrqJX3/9dRx66KHJkrJeOTk54HhCbnQHL126VLnICXW8nxZTvX333Xc48sgj1UfeQ0gmQPOZWj+dlnlxl00UEAVEgR+jgMDgj1FL0ooCqVQgRTA49NkXEUsQAFJrGSRscNPWQHfVCXO09nHT8EFXJydOEHZuvvlmZfl66aWX8Pnnnys38Y033qjghVZEWgcJMnoMHfP56quvMGDAABx//PE49thjf2DpYr7cCGAawtSFJvpH15uPp+v6ggsuUO5z/VmPixw9erSqk77OOtOqyokyGuZo8fzzn/+sLHx0tefl5alaUXtaDg877DDlJqZlMBgMqsk2KkHNLO7alsF0BGddXjmKAqJA+ikgMJh+bSIlaikKNAIMmirKS2rcxBq4CDpu8GHzDBo0SMEPrVbcCCO0inEmLQGH4wFnzJiRbEmC0hVXXKEg7tFHH1Wwo/PkbFqGkKEVsGPHjiDwcExi165dwXGE7skQ6eYKJayxHgRnjqG8++67VZ01SLO8L7zwAnw+n7quZ0gTnO+7774k1FKT/v37qzSER07GobWU+VMXWmE5w5oWRI7DJBjvy1Wun59sADkRBUQBUWAfCggM7kMc+UoUaEwFaHdbsm4Z/EXDEfJvh99fjoLCMnhyS+D3fwe/z1J7wG9D78EAoPfCAiA/5zM8N3ocYsZ3gAHYloE4LFTYxSkoOme4hmGhBBXh9QAYNzCB4p3lGD70efzXLw/BvXc/jiGPj8JfLr0W+bl98NnKbxAJAyOGv4jzzuiD98aPxjPDBiO7S1dcfckVqozff7MR11/1D1z+13Pw8CP349rrbsDSZSvwxTfr0DO/Gz6a9QmqTeDB+4fh9FMvwvy5K2EzhCHD97n28mqAc5yrEzZMWDBtA6YFJy3TO8ZSFlk9Vx15Xe9sAPfOzHiP+5oJcKIvp77wtnDceWYVh2i6ylKyM4aTB56HB+4biqoKW33HOpRF43jhtRdwQvujsbN0E2zwRkNBXY+ebXDjjdfgnjvuRCA3iLlTFqjM33xhDNr88c/J/LdsKsfv/+dIbN5Yhq1bKnHRBVfjlpvux6tjnsKGjV8hkXDytFAJ7gRzpVcKeoBkIQqIAi1DAYHBltHOUss0VCAaA2Yv+gI+zxvo4wWKfECIAafzAW8+4PFbavcGbOjdFwT0Thjs1XUtho0cix2lnyNaZsJORBW4GHACQTek2oahgyfzSEKq+WwDa9d8hWmz38a8pVMxa+EHWPn5fKxYOxcmKtT+3da1WLhwPj5duRTLVyzAipXz8dXXn6K8cguicYJqGHPmfqxmDi9ZvArbtlWCk41nz16OrVsSsA2gLLJZPaMyvlXlWRLeiIi1U53HUarqSUiLxsOImxWImaUwrDLYNVCUsMsUHNmogI0ymOC93HfAwk4YKFbX+Z2FUsTtHYhZ29U5r0Xi22CDrmnmyTzCiBmVsGHVwGEFDJQn6zxzwWSs/XqJ+hw2tqs6EMq++HwLFi/5VN3D9kgkTMRjFr7euBELly7DkhXLsXDxAlh2DKZZjq+/Woq1a+Yk8602d+DjOe8kP6/7ZqnS/f33P8CWzcUwCbu6qThUwCbVJi80pAvIvaKAKNBCFBAYbCENLdVMPwUIF5+v/wyB0Ej4c2LIzwF6ZZkoLAKCRRbyfVC7x08wBLyB3fe8HKDdCevwxKjJiBrFYIxBO16lOKCy0olv16Ba24BpQFn6YhHAMgDDCYen4JB4WFoVR0llDFHTwcUI0yhrHVfUAMiTCcu5pg1ucRsoCzuubGexDgsJgyuUMFh1BUxjK2DvUPkwnb6P5zFXXsBOxGPfMzqfY7ojGdbsjPNMJNrXTnvavr5nVnoLh2lxK0Fp2XoYxgYAm6HryvJp46MuK+tIiOReFd6o6hWNEywNpSnBN2IB4URNGaiTNlryu2ooTatitrJGMl/qXF5tKD14rnjPBOIRZ1dQaAPRWCViCWcVF11+OYoCooAosC8FBAb3pY58Jwo0ogIJcytWrJuNUOEw9AtEMHAA4A1a6HsS0MuzDd4+pbvtvr5l4O7vV672fn2A9m3WYsjTUxG1qhyaSFQ6/sxUGYYINcyrZqcLklATM3bANHfhUizmUGI0SrzipBMgbiRg2FEk7BJUGxtgYSuqYhuVhc1GApz0atoWYgRYopBVsyurZhlomXQ/g+faWlldHQXiVTAjMYc0+Xg+WrnK6S53ZIhbJiKJOGKmofaIEUV1IoKoGUM4Fk1+x3TuPWFbCnyryaea9jTxsXJ2LFkWgl1VlbPcHssVj/MGgilvJkWHkYiWo6R4qxJSSUrQBi2P3yNifQsbOxCObUUkXqmeG6+ZEEwrot7C4chueiTHBeo2YtJku+95FRidlxxFAVFAFHArIDDoVkPORYH9qUAcWLd2K/qH3oK/RzUKvUBedhwFAaB7t63weWJq93vj0HvAl4De+/fbhM7tZ+KJUR/AJLGYgEXrU9yEGprWwLqUlm1FPOFABUGMEzkccOO1Mmd8HQGMY+pqeA7awEdwUtBEOmPZ4g6o0BxHfqt0rHi2baIqXOpY9JgXISgKRGjYYh7c6fHW57y/5lxNltHj/yygtLQclh2BCbqhdzg0yO9ZBBrS9BhCfU9N2ZNjCPV1shy/Q5XKj2ccB6mgUIOhvpd5usqkysa0ccCsBAwOs9RpyZBJWDMQKyvngs6Ic9m9Gti2Cci8n21JjWryjuw0dtXbGbqpLKmGvR1AMaKxctB6y/sMVXaKJJsoIAqIAvVTQGCwfjpJKlEg5QrQiMfAyz7v7Tjq8FE45qhROPbYEejS6S107vACjvnjW8n92CPGg/txf5qQ3A899Br8z29uwC13PY7tpdsc+KGrlRBGsGnwRrpwdkORCQHDQiJuo4puSpKPGp+mSc05JqKkmJpZF4QcE4jQQ8qvyYXMsua6oT4Uo7jiG1RGoqrYCVTDwGbYBhMmEA3T3VrzDD6v5pkGvgf3KDbUWNkIgRWIJcpQHS5DLMbPTvltO4IEBdeFUGTHOvxwt6xqRKNlqOQMFbUZsBFBjC7fxDYY4FhBh8gqy3bASjAdrZqOJqrcdhwGymCgCibvtaKoqKLr3kJcpa+BO4IbvdxhgCBIN7dhlCES27irnjFN2rvrTPgrLnVc1ia2O0DNdlfAqf5pcA+QDEQBUaBlKCAw2DLaWWqZlgoYqIwvx7SZUzDx7XWY/PFyvDd1Nt59dzE+/GAuZsyZi5lz5yX3WfPmw70vWboeUyeX4ttNXyvLoJpJiwhMKwabHxq40fXJyQimXQXDIsgYCFcCwx+bhFP63IqCk8+Fv/+ZOOmcyxAceDZ8/c5IXut3xkXoe/LFyPOdiz79r0WfftejsN8V8PcdgEv/cSaKjZWKnyorSrBxy0pc/NeLUDTwSvQ/7Q54+l2GwJmno+/pF6L/mRejz2kXqGcUnnIemG9e4Snqee2zzoe3/xXIKjgJtz90H7aXb3dctyaw6T9VaNO1O4IDTsVp51+ColPOhq/vaehzyvkYcMalKBh4Hvqedj6KTjkXhSefo877nX6BOs8rOAk98gsx48PlMKKEMwuV8Uo89fLz6HvWxfD0uxxZBVeh6NTzkRM6SZWTZQsMOEvVn7pQk67+k5DX91z0DpyBAadfgfMv/jvWf7u5htZi2LBjKW687RoU9jsLp5x+IwaeehMGnnkNAgNPxWmXna3yY917+fqpemcFBqBTVkA9I7/oVBTlPoz773wJ1dEdyjrIWcXRMOC4mAmOsokCooAoUD8FBAbrp5OkEgVSr4B6X38PEzE10cJUVqsSmLGo49fU1rC9HncgVkmDUAl4rxqDhxhs0JLVcBhUbkc1LJAFdSZp0Eh3/60fwdP1fhSFgC4dyxDwAlk9owj5gcIg1JHX+gUrkdN1JwpzgVCOiUDeVng8M1EwcDS+oXeTnuOYiTWrNyDoexDenovg6ZrAwAAQymfYHBPePBtBH5TrPC/bwMB+znV1LY8zrytwwvGv4dLL30KcBlFW26zC9CkTcchBC5HboxKn9Xdmauf3jKPQAxR5gNxuCRR4gECuCX+OgWCehVC+DW9WHN07lKBdq814YyxXSeGM4zCiFnDzHR+g1fHPoEfXL9HHD/QpcOrNsvTsFka/Iqf+1IJ7YR7g6Ql4e32PAaHl8PR+EvNmFMOI0HxXig07gb6nPImuXcahf7AE/mzAnwPk9YqisCCBnN5xVfeT+kOdc/iAJ9dSz6W+A3tPx53XT8f2rZUwbcfqqJrd5nhNmUCS+j9YyVEUaL4KCAw237aVmmW4AgzevGnTJhXQmFVh8Ge9JScP6AuNcVTDECM1Q94M5X6MREpx051Dkd1jG/wBe5+7NxhHkCFz/FDxEr2FQFbeFni9o7Bj+1YYCjSrsGXDdxh40h3wZpvw9QHyAnEEeU8d+WfnRxEIRJHTqQwXXXGvM26SOtjAzNkf4ogjx8Lvq0JREAgE4ggVRJCfz7IA/gIDXj8QCNrwBSIoKLDh8zjQGQpGcOwx8zF+/ETl/uUM6oQN3HT/HejcZhUKgry/7vIV+lgXA56+JrxeG37PSKxYscDxVCOGktJynHX2YPizNyE/34Q3BHgCgC9UoiCwrvrndK/A3657HMU7t6u24U8Aep0Jryn4LdAYPUryFAVEgTRVQGAwTRtGiiUKcImyBQsWJFf/0CuCUJk9LRGXcsXSHAZzPDEFg9kdS3Hh5fcoGFQa2cCsOR81GAbfemuCgkGG1yEM3vLgXejUeqXAYMo7mmQoCogCTa2AwGBTt4A8XxTYiwJcim3ChAlJiyABUO96Tdu93Jqay2kOg7neeBIGL/jL3TCQcJZ3Y/DquVMaDINvvjlewSBnABMGb3v4niQMMgRQXZa7/W0ZZDgcsQymputLLqJAS1NAYLCltbjUN2MUKCkpwRtvvKHKS4sX18Clq5hr0u6XNXrTHAbz/QaCwRiyOpTgvEvvRIIL8alwNsCceVMbDINvvPGW43jlGDwLuOuxB9DxhE+VZZDPbmoYzO5WjquvfQw7d2xTbmENgxZqQtVkTE+XgooCokBTKyAw2NQtIM8XBfaiAGHwrbfeUt8SctwASCBs9C3NYdATMBEKxRUMnnvJHSp8i4bBeQs+bjAMjhv3JkwGJ6yBwXuHPIwOx69AYQigVTKtYJArkTBwtpqrLDDY6H8b8gBRoJkpIDDYzBpUqtN8FNiyZQsmTpyISISx8ppgS3MY9IVsBYO92xfj7ItuQ9TkCh2mgrf5C6c3GAbHjn3DWSavBgYfGP4o2rdarmCQk1eaGgazupbhqn88qibjMECjhkETlTKBpAn+XOSRokAmKyAwmMmtJ2Vv1goUFxfjww8/VDOKm6SiaQ6DnNFbUJAAYfCsC29FdSKchMGFi2c0GAbHjBnnrMBSA4MPPzkY7Y5bhiKGlMmLpBcMGnCW3FMxvgUGm+TvRR4qCmSwAgKDGdx4UvTmrQDHCc6dOxfr1q1LhpdhSBl3iJlGVSDNYTBQ6MBgr3Y7ceYFtygYVCF3bCBVMKiW36uBwUeeGpKEwd651ekNgylZgaZRe5dkLgqIAmmkgMBgGjWGFEUUcCvAMYJffPEF5s+f71i8GEPOVsH53MnUd0zLXY2Z2+3bBnzgym/QcQb5wUI0WoK7H3oa2T221glDHr+lglAXBhIoKDCRy9iBwTh6dB+OkuKtMGHBtuLYuaVCrVLCdEyjYu356nbD5noS8Pmi8HSrxsAzrnfyswGGglm8ZB4O/98XEfJXqTLk+RLID0WQ7wWCASDgDyPg49FWeYSCgDcfCAUcwDym1WI8+8woZ7k6rikM4LGnBqP9cUvAWcL+QN0TSPwhIFAA+PwJhDxAnm8U5i6f5ywVaCVQXlmBv171HHJ7fIlgCMgPmvAGWf8dKsh2XW7onNwILrryCWz5fo2zbrKyCjLouDpJNnx5OQNSO5v+IUFo3tOM9IoKLrMHVFZy6T5nY59iegXaXLGZaylzPRqDCzUD1dXVKr07P91P2Sf1M5mWk6C4udPys86L53we9z2l0f2bY2b5jNppVOa18tPX5CgKiAJ7V0BgcO/ayDeiQJMrwJcyJ5HoFzBfvNz4knVv+gWqX8Lu737yeQphMBQy9gmDfQdch58Cg35/TMHggNP/mYRByxQY5BjCKVOm4Oyzz8Y111yD8847D+eccw4ee+wxfPDBB6pLaDDT/UOPTeXwBG7sU4Qu92QlnYbfs6+Fw2F9uwI9DWe8190X2W81FLrv4c26T+tnJjN0nWg4dT+fz9LPYN7uz+48XdnIqSggCuxFAYHBvQgjl0WBdFGA1kE9q5hlcr8Qa5eRL0daWWrDYu109fqcYhjMoUUtGEf3bsNQvJPL8O2yDNaGQUJeXZaxPK8BDYP9T7tO5cfIMoTBJUvnp5VlMJjPGcjPYM6yuY5l0IynzDK4ectqZRlk23NpQ20ZfO2113DAAQfgpptuwvPPP497771XAeHvf/97HH300aoLcMa6trbxgoYoDXW6nxAINcyVlpaqPubuh27A03nwXrfFT+f1/fffq1P+wCF46r7qvk/fq7/TR+bH8rrLp2GV3+kfTe6y6efKURQQBfaugMDg3rWRb0SBtFFg7NixauwgC6RffnsqnLbm6JfnntLU+1oDYTDfZyp3Z4E/DloGCYO+QGw3GISdQPH3lSAMFgUN5AWgXKX1gUG6obnMXH7XMPqdem0SBhkketnyhU0Ogz4uWxcCvL44GgMGs3OqceFfh2OPMGgAzzzzDHr06IG1a9fu1uSzZs1Cu3btcO6556rrGqzYZ7766iusXLlSWRU/++wzlJWV7XYvoe/TTz8F81i0aBG2bduWtDSy761ZswY7duxI3kNAY/B0piesEj65fffdd1i4cKF6FsfEaoijm5rfLVmy5AcgOXnyZJWXzpx58XmzZ89WZVm1apX6StdHp5OjKCAK1K2AwGDdGkkKURBc6fkAACAASURBVKBJFNAuMG25GTNmjHpZszD6mi4Y0/Iad74MU/JCTCEMBoMJZHsdGOzWdSh27tii4E3DYL+B/9wNBgl5dVkGCVtMl9elCn1OvkblZ5o2hzZixaeL0woGA3lAjmckZi+dkzLLYG0YVG2vLYMGMH78eAV9XNKQG8GM7lZa+B566CGccMIJyf5EsBo6dCjatm0Lv9+Pyy+/HO3bt1dQqN3GBLaBAweqNGeddRbOOOMMXHXVVfjZz36mII3f5+Tk4KmnnkpaGAmTtEjSEqnd0suWLUP//v1V2n79+uFPf/oTrr32WlVG9mO6sWnR5L0sM3/8sHxHHXUUXn31VZUPr/M5LONpp52GYDCoyvXOO++ofBiWSTZRQBSovwICg/XXSlKKAvtdAW1J4UucL9v3338fX3/9tSqHhj4eNQhqgExJQRsIg3TjhvxAyBeDhkGvP4rdYBAGSrZWgTDYJ2QiPwj4OPGiHjBIqxvzJQwWDvybgkHDcGZ7fLpySZPDoDcAEFg93hh+AINGrMFu4qzsMC64Yhg2bf5MuYk1DFr0ExvAs88+qwBJu2XdVr7p06fjv/7rv/Dee+8pQOTngw46CHPmzFGWva1bt+Kll15C69at8c0336ju9Je//AWEN1oO2c9Wr16NY489Fp07d1ZDFwhgBEQ+l5vui6NGjVLgyWu0+hUVFWHIkCFJa+DixYsVgD744IPqHloR//u//zvpllaZAQoQ9Yo8n3zyCX73u9+B5eYEGVooOUby+OOPx4oVK/QtchQFRIF6KiAwWE+hJJkosL8VqD1oXrvSXnzxRfUC52eOjaKVpFG2FMIg4Y6Wwb3BYP+Trv/RMMiZuoTB3M6VKBhwNQyY0DC4ctXSFgeD6scBYlAwmLAxdepUtGrVSrl12T/YT9hfCGnr16/HL37xC0yaNAl0zdLC16dPHwVVGzduVKBGCPz5z3+uZrOzr/3xj3/Eyy+/rH546BnK48aNUxC5c+dOlXfv3r1Bd64GT1oDaYXs0KGD6qKEz9/85jcgAPI5hE6OFTz99NMVSDIRf/DQMkh3M8urhzzQAvnmm2+qz3Rx8x7WiT+OCLyEQN738ccf/wAkG+XvQzIVBZqRAgKDzagxpSrNSwH3gHo9IJ4uPr68OSGA7jsC455gUFtlGqRIimEwy+PAYNcuQ7Bj+2bHTVxjGawNg4S8utzEwUKosYh7gsFVny1LKxj059rIzn8as5bMdtzEjWAZJAwaiCZhkJa9/Px8ZcHT/UD3CwYzJzjxyK1v375o06YNLrzwQpx00kk45ZRT1EzkM888E/PmzVNpmJ5uWm7scxw/SKj7wx/+oOCRVmy6f0eOHKnSEARZJrqfNQxOmzZNWSRPPvlkXHLJJQpAeQ9nPN98880qT0IdwU//+GFmzIfWQvZ7boWFhcpFXFBQgEsvvRTMjzOneU43tGyigCjw4xQQGPxxeklqUSBtFOBSdXyZuwfs63FZBEa+QLX7WJ+7C68nomhA4Mud6ZOb8riGUZWg19FWS5wlEpW466ER6NRuXZ2wRjdp0AcEPXEUFkKFlsnLj6Bj+8exYzvHDHLmbwwVxVU4+fRrEfSVo7fHUm5iv79uGPQGOTElDm/3GPKDVyLOotsqHCLWrFuMww5/AoE8Sy0flxcoUfELPYwzWGAgwPGLXhOML+j3QqVxYg5yrGIY7dp/haHDnoRlxxS8WYaNF199AZ2OW4wiTgoprHu2s7+QsRKdmISFfhM5uWPx8bzZsMwEYFoIV8dx3U2D0KPdRni9tqo3YyF6PIDfZ9atrxe47G+j8N2G1UDNioWcTRyNmYiFq8FJR4QwunW5sW3Z5uwjN954o7Iafvnll+ra+eefr8LPMB0hjDOGCXe03GnLHGFQgx7TML/XX38dhxxyCOgi5j2nnnoqtCuXefEHzaBBgxSU0lpIty5B7z//+Y+yHtJtzOewDzIP/tjhxBQ+i+m1dZxl5nPY57kRIBkuh2m488cSXcXaYqkSyT+igChQbwUEBustlSQUBdJPAb4AX3nlFbXzpchtT5ZCXXICnw4Roq9pq6P+TGAgPBrVUcTMUjCioVrQwuLLvQT3PPIUcnptrBtWfgIMZtVAUTrC4Aujn08pDFZHEgoGe7bf9JNgsHPnclx4xZPYuu0rgHxp2oij2gktYwOjR49Gr169wFm2GujYxnTj0pp3yy23qCYn2A0ePFi5bxnGiJu2QPM7vXEG8j333KOgjdcIaLTucVzhpk2bFPjddtttakIHv2e/IuBxsskxxxyjsqHVj6Ft7r//fp2tSqfHxvLi0qVLceihh2LGjBkqDfN59913FSDqEEss75FHHqnc3UxEEHVvtfu4+zs5FwVEgR8qIDD4Q03kiiiQEQoQ7Aht3PjS5dgszqbkC5zf0dpC6w1f2rWBj+CoLYI8EiCZzr1Z0ThshBHjy7ayAolqjk2MYejI19Ct01cpgUGuQFJZEsYpZ1yHkL8C6QqDZsLCT4FBn99ZgYSWweycMZg2d1bSMlgbBrnWsqcgqiyDAb9Vp769ekVxziVD8c23K5VlkEZdHWfQThjKQkcrHGcGM9g0oYyQdfDBB6vz2j8a6B4mJNLlStcuQY+haRi+hRY3jvH73//9X2X9u+uuuzBgwAB07NhRzQqmhY8brZDMIy8vD/fdd59yPxPasrOzkzOMCXScXez1epXV8LrrrsOJJ56oyqj7H8cw0jpI9zGDZdNdfeCBB4JjFHVfDoVCOPzww/HXv/4Vw4cPV5NbunfvrpZw1PnIURQQBeqngMBg/XSSVKJA2ipAsKM1j1BHqwrHinGc1+eff55cIYLfExI1ALIyjBfHGZj6Ra4rSKuKcrdZQFV0O4qr4knLIGHwvkdHpswyuCcYJBQF6rHcW2O7iYcMHQHTiiqzqIbBjscuUsvbEdrqGtPoK4hAw2CBz9gjDP7z5kdBy6CPAblrYNDr5TJ5dcNg9+5hXHD5CBSXrFeWwUTCRMwOJy2DbF9a/whKd999N+68804VboYx/PRwALY14YrDCvhjgLDFcYH//ve/VUgYunW1dZA/MDgejyFdCHp0B9N6x1m9OvwMj5zAQfgkMBIOOUNZjzXUrmpef+KJJ9R+xx13qDxpXeQzmIag+uSTT+Lxxx9Xk1Y2bNgAzjbW4xfZV1kuWjkfeeQR/P3vfwcnVnEmsriK9V+yHEWB+isgMFh/rSSlKJBWCvDl7XaHEfS4c5wWQYAvYa5C8cILL4Cx5vRLnS5DjsViUGK67xhX7uGHH1auZt6nLS+oGTNINzHHDNpxLoNXgUHDX4Q3t+61ieszZpBxBqtKq3Hqmf9EQaAS2TVQlI4w+Pwrz+HHwqDX5wSdJgxmZb+OqXNmwjTiasxgJGqAMNirw+YkDHIsImEwGLDrhM3s7ATOvngINm5aq2AwGo0n3cSJiGPldfcPtithy32NHZrX9Mb+o4cb6GtMr+GRlmi3y5khXmgtdFsZ2be0xZp58Ds9GUr3QZ0fv69tkWZ63s80/E7fWzsd73WDH+uny8EfP7KJAqJA/RUQGKy/VpJSFEg7BdzuXhYuCXI1Ewb4cuQEE760aUGhFYauZFqCaEFkeBG6Ehlzjm45hga57LLL8Le//Q2bv/0OFdVbEbV3jRmkZfDRJ15Cx7Zr64SVnwqDgUKGjKnHBIpGnkDitgwacROEwQ7HLFSrqnCiR12WQW+oGnXB4PW3PKZg0O8HWG/CIK2E9YHBnj0jOOWch50JJAmO80sk3cScUqz7ggYkd+fltdrXNagxHWGK0Mc02prsPmcafp45c6bqNxy7SljTEKjvIWi6YdNdBqbhc7RVUUOfvtedls9ieXT+HGNIENwbVO4JHN35ybkoIArsroDA4O56yCdRIGMUcL/w+ELVL0pWgCDgtui4K8VJAozXxnFYBECG7PjVr36lzn/9618rOOT1A3/xK/zqwAPQ95SzsHDpEjWbuKpqJ268Y1DKLYOnnXW9sgzm1EBROsDg4CFPwDAjioQJg8+9/OxPgkEGnQ55E0nLoJHgDGVLzfolDPbuuAU/BQa7davCuZcOw/YdX2PH+hI8//yLuP3em/HgQ4/i0YcexqOPPqrGkdKlSxcrx5Ry4sYDDzyAYcOGqZnAtBrzhwLdtuxDHHtKKOQSchomNXBpWHRb3Whxvvjii5PLzPEe3Q/dUEcg1NcJdtz0Z3c6Xif08Zp+Hq/pCSYsi7YG6nKxPO5z/tCRTRQQBX6cAgKDP04vSS0KpJUCfBG6X9p8ieqXLc9rv2jdhadl0A1/v/zlLxUQEgS5vNfghwfh2ReH4aMZ87B521a1qgXdxPcOehq9u6+v2zJWj9nEzDRcFgFhsDBYheYGgwxlo2Gwd9ZrmDJ7BvYFg76ieL0tg1lZcQw88wFnAkmCPwBiScugGYurHwMa3HjUPx50nyBg0WrM4QRz585VY/04A5mz099++20VxoXj//gdw71wAgmDS2tLn3YXM29t1WP/0t/zXPdNnhP+dBnc/ZDnzItAx6P7fg15Or37M/u57uv6+9oucH1djqKAKLBvBQQG962PfNuCFdAvGv1CdUuhX0r65caXEF927rTuz9piwu91vsyP1/VL0J0/89MvWP2y1S9fbVFherqJ3Z95TX/WZdQvf52eR1pXGMCX4Ec3MVeF4LqynEDA8B+MA4eEE3OQzkdTGXOqlJXskWFPoFfnr+uEQU/ARMBroTCQUBNC8vwcP2fg+OMexo5t2x1wSQDxcAwDT78Yvtw4PAV0lUbgY6y9OsbN0a3KdKHsCDp3uxomg+2pydUGNmz6Aocc9hBCfH6QMQ5LEShylofzB6sR4thEf0LFGfR6LCfeoI+xBw0EgzF07PQdHnnsARW3kK5xIwaMHvsqOrSaij5cMq9PZZ3lyw9UqziDPr+JfgVAjx6j8c7UKU6eJsP0VOG2Ox9Hz3bfwJdvqKXreE9BEPDm1702c05uBKee9TS++uI/qt4MLMPqc21mWLvGAbK9f8pGK+G3336rglYvXLhQxQhkXEuuEMKVRLSFjnmzj7n7Pj/r/lcb2vg34+6TP6Vsco8oIAqkVgGBwdTqKbk1MwX40iKwcdcvOw1vGuw0tOmq87q2UOiXHl+I+gXpTq+/1/fSNabz1df0S9Wd1n2u0/EZhEOdntc1rPJISOR92vJCVyGD99JlrGcUs2zaJZcpMBjMqt4jDP7+0AcVDBYEdsGgl4D5E2DQjO8Og96iipTBYK/236YlDLI/6b7EI/s04/nRhUxIZP9hCJqPPvpotx84un/TXcu/G73p6/zMvGUTBUSB9FFAYDB92kJKkuYKaADjUYMhi8zP+qWnj7oqGsb0Zx5p4ePLUAOjOy93Ol7XVj73dV7jc/hcnT/z1OXT+emycHanfqnrfLiWKzcNhu6Xs7ZAahg0YO2yDFrAoOEj0sIyyFAs3nyAMNip61W7WQa/2/g53DCY4yuBnxM0AjZ8gXC9LIMPDbovaRm0EsCr415TlsGiAOApLE8JDN5+12AQBv0eE/4Q4AlG1GooPk/dK7DkNLJlUPeV2kf2M/Yn7uxbs2fPVkGrOf5Q/6hI9qGam9kn3X2sdp7yWRQQBZpWAYHBptVfnp7GCvAFpmGLxfz6668xZswYZQnhigjjx49XsdY4O1e7zDSAua0gvFdDHV+gfClqONNWOIKhTsOZme6NZdD5uq/rfJkXLYoaCHVZ+D1f1u4XM+GP17jpMvJePl+DoX7Jw7BVOsKgpdyvVWoSCWGwd5dv6oShxnYT1wcGgx5Tzf6tDYNBb91u4gcfuTcJg7YBvP7mGHQ8fhoIg3mh0jrrX5ebOBIJI91hkH2BfYP9j/1Q91HVMWr9Q7cy/xYmTJig4hHyPv4Nufsf89Gzh2vdLh9FAVGgCRUQGGxC8eXRmaEAX2h8iTFILidcFBUVqdUOOIvytNNOw8CBA9UsTA6u1xtforVhkt+54bJ2PDd9L48ERrrkaltTeD/z5aZfzHzp6k2Dnv6eoKcthjoNj7yuN/fLmkDIsqttLzD46BNPpgUM+kI2PHlAoHcYHbtcuZtlcP2GdTj4Dw+AMBjyA9neYvgY1NlvKctgfWDw/ofuTsIgYy6OeWssOp3wMQr9QG6wJCUweMfdQ9C7w3o1tpKWQW8oiqICrpds1Jl/TiNbBtm/kn1Bd5YaS7i2DvIy0/GHhe6P/DHDMYb84cTA5/zbcfdR9ml3/3NlLaeigCjQRAoIDDaR8PLY9FdAg5gGLC6j1bZtW7UKAq/xBUgA3L59e7IybtjTkKVhkon0C1PnzWu8R9+n83K/hPX5V199lXyOXotVWxHdL2eWyw2AvN/9OZmJ60Q/X1sLVTmdle5Q2zJIGMzq+m2dsNLYlsHaMGigOjmBRMNgIN/4AQx6/VUIcIJKHRNI7nvwLmcyBhfks4BxE95IwmC2f2ed9a/LMhiNVsMNgwG6vdMIBtlH2Q903+GR1wh2up/oLqT7uO5HvM7zUaNGYdKkSeoHDKFQ36fz1PfLURQQBZpWAYHBptVfnp4BCugXHCdatGnTRq3uwWK7rR10fdHace211+K8887DDTfcoGbnMpjzRRddpNzITMN7GOfv1FNPVTN5O3XqpJbd+tOf/oSbbrpJqcFltRjmhQP19UYrItdhffrpp5MuY47VYggYzgTmrGBOBvnyyy+TL29aLi+44IKkW5jPHjt2LI444ghosOQ1vrBbt26t8uBzuWyZAlAXDKoZqnDcxI+NeCqtYNDfqwodOv8Vbhj89ru1+J9D7gdhMOjbZRnM95moLwze+8Cdu8HgGxPfROfW01HgA7J8O1ICg3feMxRZHb9TlkENg30K08MyqPsej+wPBEMNh4Q57uw/+kePTs/P/JvR4MewNCNGjMDWrVtVEvcwBn2PHEUBUaBpFRAYbFr95elprABfgO4AtozBRjcxg/gSoLhuKmdTcq1Wvvz4orzqqqtUEOeRI0cqqyHXcg2FQmr1D1pV+CK88sorcc4556jYbYzhdv311ysQu/XWW5Xlha41wh0tKe6N12hl4cbQLwwUzSXlCIW858Ybb1Tua750CY9/+ctf1Pqw+uXM+xg3jjDI71k3hpfRIWW4NizXm2V5GaDYCdPCSIBWDRSlFwx6gxbyc4H6wGCWZye8IeDHwOA9999RM1bSsQy+OemtJAz29m5PKQwGfTYIg76CGAiDAV/dK7DkNLKb2N336nOufkDUSkhY5Ma+xtiFnHksLuJaIslHUSANFBAYTINGkCKkrwIayGgF0XH5uFQbweuf//wn/v3vf6uVHmgF4Xi7Cy+8ENdcc81uEMmxhu3atVNwxwC/jOu3bt26pEWFlkIuA3fzzTcrSwsBkRY67Z6mOnzREgZpneT2j3/8A2eddZY6p4uOL1iCJtMsXrxYXb/88stVWQiqTENY5cv46KOPVuMR6ZJu1aqVeknzfv3iJuTy+YRB1jsJg3alujb4qZH1mk2c7wEKC6JqwoXfC3iLnADMRx8xAtu2boGFqAOcBnDmuVcgmGfAyxh+BRFlzasrzmBWfimCfiCUZaFdB8YZrFBj/LhqyLZt3+Pgw+5E0BNXE0jy/JUIFkHN2NWhZYJ8lg8IBJyYhh7GGAwBjAvYtdtO3HL7v2BTg0RcuYnfeud1nHDUOAQ9gLeg7rWDA8Ew/B6gIAQE821k9R6PN957X7UNTAaFjuC+B59UlkFvXgLBQmc2MetULxjMK8XAk0dj3drVgB1WdVdxBtWi0jXjPp2nNcm/7G/ctIWQfx/84cIYhdx4zh9AXMWEP5TYT2UTBUSBplFAYLBpdJenZogC+oXG4nJAPKGOS3dpKwgBSru9CE60+tHNqu/jC5CWQ0IaN85C/vnPf560+ul8/H6/AjymIfAxDV+i2gXHI/PgqiHc6GY+8MADFURmZ2cjNzcXnTt3VqBJ6x/LdMYZZ6iyqBtq/pkyZQoOPvhglTdXn2Ce3bp1Q8eOHcEy9OzZE126dHHKm+YwmO0pQyiwdxj8n0PvSMJgrq9CwaAviGScQYFBd89I/Tn/NmoDHmcc33LLLaqfHXXUUfjd736nrOz829Eb/3bcP4T0dTmKAqJA4ykgMNh42krOGa4AQU1by/iCIgy2b99ejctj1TSo8ZzwxUkdhMHHHnssaanjd7QMahicP3++OqfbTOfNNOeeey7uuOMOdU2nYSxA5qvBkhbF6dOnM7ly5V5xxRX45ptvQPfuqlWr1L5+/fpkvrQ00nrJFy2fxSNh9IQTTgAnnmjAnDx5shqfyPGGzI8uaFor090ymOMtVzAY7G2ibXvGGXQsg6YVxY4d20AYDOTHlGWQMKhWLGkADI5/d4yyDIa8gI/j+upaIaWFWwbZ37TVmj9s6CbmuFf+LXA9bB65c0gCLfDsj7qvq04u/4gCosB+U0BgcL9JLQ/KRAX4kuILjTDFyRcdOnTAmjVrdqsK0xAceeTkkeHDh+/2/ZNPPqlefrxImPvDH/6AJUuWqDR8SRLCaN3j2EHmQ7cZrX68rjdaIzkZhTOa6VL717/+pSx4LBs3bVlhGfRM43vvvVeFvnGP0SJwHnbYYWrMICHymGOOSZZX55GE1DS3DBLwuHRboJeBNm3/uhsM7ty5PQmDDC1TGwYZWqYuy+Ctd9yg3MMwEupIGGx99BtIFxjMzi3BgJNewdo1nyXdxIwGZKeZm9gdcok/ejgEQYMgx73edtttCgR1/9N9Xo6igCiw/xQQGNx/WsuTMlABgpfeOLmCs34HDx6srBwMsMsxeK+++qoCME7K4OxdjrnjTGCCGmHP7Samm+yyyy4DZxFz/CAtdZdeeqmaDMIZyHweX4oejweFhYUqiC+fceaZZ+IXv/gFnn32WVUc7eIlfHIyC+GS5Xv44YdVcGxaWDh55ZBDDsGgQYNA9zCthHTN0S3MsnLj+C2+mPkdgZMTVGgB5ViudLcM5geqkjB4QpvLkUCZmuhi2TGUlOzE7/5wO/x5URVahlZEWga9ASTjDP5YGJzw3lgFg5xNnA6WwXSHQf13wyN/oHDIBNe95lAEbRnkcAhOdKI7mf1eD5sQMHSrJ+eiQOMrIDDY+BrLEzJYAb6UCGgcw8SZu5xN/Oc//1ntDMdCK8dBBx2kYIzgR6hiOvfLjLOQOWmDLlxuXMmEE084XooTRwiEHK931113qe9pmaOblrN6abnjGL5PP/0Uv/3tb8ElvzTIEQg5SYRjBZk/X7IESi4Jxpcry81Zzczj//7v/xTEEiY5e3jjxo3qWVwBZd68eQo8jz32WHTv3l2BKl166Q6DnmBYLd3m75nA8a3/gjhKFQzaPCst/gEMqhVLamCQcQbrgsHb7rzRsQyahjoSBtsc86YKLePnZJQmdhNn5RSj/8CXsWb1qqRlMGGlj2WQHcw9G191OEC5hRkOidZv7ieffLIaVsEfMLrf6rRyFAVEgf2jgMDg/tFZnpKhCvAF5R4bSADT1kLCHzf3IHk95onXOC6PUJh0u9Zo4P6sofH0009XM5R1nkzqdu/qdDVZJMukB9q789RpeKQ1Rm86QDVdyXrTdWE+7he3up7mbmLOOi4MAYTBVidchhhKVCgYwmBZWQl+e8htyjKo4gx6ykAY9PiRjDMoMKh7QeMc9d+FtvbpvsjPDM9ESzet0vyxo/sxS8K/If131Dglk1xFAVGgtgICg7UVkc+iQI0C+iVWG8QIU/o7/cLjLYTG2lCmX2rMww2V/Mzv9HhEWkduv/323cCSefI5hEIemTefp5+tG0o/Q3/Wz3GXzQ2W+pzp3Gn0/cn8MgAGuXSbr0ccxx1/KaJ2cRIGy8tLFQz6cp0wNZx53FAYnPj+OGUZ5HJ06WgZZGDwdLMM6pn2um/pvyX2Qa7mw0lRhx56aDIIOtOx/+kfKfo+OYoCokDjKiAw2Lj6Su6iQJ0K8AV50kknqbGDevJHWrwMTQdGd4szaAFDnn6mfmsTM15ejSs3wIDPjDMYSKDV0c+oOIA2Ek6cQdPEWedfimB+GJ4gY/iFneXi6nDDcrm7UBDo67Fw2KGXY9fozgpUVSZwwK+uRZ+gDV8+ECiKIcdjg6FlAqGIyj/AZ7mCO/M8xHWBAza6dS/Dv/59DYw4Z+dYyk08deb7ydnEnpBVp5uYE1d8vjgKC4FCv4neXRdh9MTRUEs/20AsXoGhI55H1zZrURC0VAxEBp32eaDGOdblhmZcxFDBS1i7eh3tyKqYTpxBElWd3a7xE1hQc284oSVmVMJEGAlUI44EojCwYMF0HHTQz/Cznx2AioqtMM1KALRa0+IegQFbrTdtogQ2KhCuLlexFFnRRLS88csvTxAFWpACAoMtqLGlqumngHad6aXqWEKCYNI615RFTiEM+oMODOb74y0GBumebtEw6Oq7cSMGRhK0YMMwbcTiFiIx4OXRk/Db/zkS36wvRtwATBsIR5yjRbq3+YOEJxZqDjDiJmLRKlfucioKiAINVUBgsKEKyv2iQAMUIPTp8DDMhq7g2m7gBmTfsFtTBIMM/+KGweOOGomtW7eguVsG9wSDr0x4JaWWwWDoxT1bBneZSRvWBxpwd0V4JwzTWVUkHnOsqxYjIXFxFAuoNGKg4fWiKy/Ht1s3q89Exh1V5ai2Da6DqHaLK9rR0llznxFX8XMaUDK5VRQQBWorIDBYWxH5LArsJwX0eD09DtA9FrH22MP9VKTdH9NAGMz30eXqhH8hDOYV2qBlsCXBoNcbQ0GBjQKfgV5dFoIwaNL8lQI3cb4nAcLgms/WAnalGi+ZdBOnAQxaiDsxD9mrHLMgoGgwAsRLELeKlfv3242r1JGuYO4WytUR1g4gXgEYDkhqGkwkTLgWLNm9z8onUUAU+EkKCAz+JNnkJlGg4Qpoi6AeVK8tgs3FTeyGQV/AgcE8X0zB4Pffb272lsEA12OuBYMvj385pTAYCL6QtjDIiDyxqImyBjub0QAAENRJREFUsoqaPxYSKs18EcSjO5W1L1xaM26UFkOSrAkY1UCknB82cG2fmnGCANecBsIoqyhGdXXTr73c8P8BJAdRIH0UEBhMn7aQkrRABTijV0OhthTqcYRNLkcDLYN5XLbNX4lQwAZhMLfAAmHw2D8/jZYCgx5PFKGQhZA3gZ6dF4AwaNDSlQLLYF5+HITB1avWAFYFCF9Jy2Bi11q/TdaPkoVhdS2sWvsFJn+wEPPmb8a0qRswf/5CLFiwCNOmTcesWXMwd+58TJ8+A5Mnf4hPPpmJyR/PxbuTV2PKh9sw+f3/4L0PZiASL4VNoEyD6jWZrvJgUaARFBAYbARRJUtRoL4KaGsg02sLoYbD+ubRaOlSCINeLglXYCHXG20xMOj3AAKD7J0WSquiuPzqh3DYH89Hh3Yj0faECTjs4NFoe/wHOOLQMTix1WQc/afxOOqIt3Dk4W+oz8e1Ho7jjn0F7VpNQJd2T6JX7ysxc+4CVFaVNFqXl4xFgZaqgMBgS215qXfaKEDrIKGQu44RmBaFa0QY3LJlU7N3E+8PGPQHnk9fyyAtlbFqzh9WE0X+dct4nNhuFPoWVKDIAxQNTKBX3nZ19BeF0bnnRoT6RdVnX2EVggEgmA+EcgB/9pfo3eNBfLqSK+cYYhlMi/8gpBDNSQGBwebUmlIXUSCFCjC8nhP3TbvlwkhY2/DU4I9R1HUq/Ay+XLMHAgB3ruqhd46Z4wohBf5qDPADJ/uA/vk78fv//jc2bAbiKjpIBCYq0G/gbfDnrkBfL9CXMQl93yfz1s+ofczpEUe/wjCKCpbhgANORTwORBiizrZgJypwwC9fhTe4E337A717GWCA6r59gJxsGyE+I9/ZPR6O7XN2nuvrt95wM2Az2p0z63Xyx1vRqvVg9Cn8Hv04Q7qO+uflmMjNimFgEdAvsBm9OozFmJc2Kl+uZXFiBDByyArkdZmIYPcdKMoC+niA3Cw48Q5d+bufpc8H5H8Df97LWLRsKwwVlc8Zc2fH2XBNH3pFxVNEApFqS7mvb37gTnRrtwbefMabNOuM01joA/ICBjx9TXi9NvyekVixYgEYntIZe5jCzi5ZiQItXAGBwRbeAaT6osBeFVCTXqOIRMJqPJoKBGxvx4ghE+Hv8ix69R6e3HtnPQHuWdkjknvn7CeQVzAM3qKhyPGMRFbPlxHIfw5t25+Btd9+6UwORQQV8c046/zrUBAYhazu76Fr1zfQtvPgZD7uPN3n3bqOQ88ezyLPMwhHHXsSKsNANOLEI7ESVfjFgX3Qtecd6JX1GNqc+CC6d38KvXuPRJeujyErZ6jKPzvnSeTkPrXbzmt8zvV//zcqyzn5IaGinLwxaR7+fNwF6NHjafToNilZd+qwp/p7Cl5G77yR8PhGIjv7fnTpchmee34iEmYpgE0ordyAx4c8i949rkaPzoPQvctz6Jn1Ejr1HIzu3kHIzXt6n3t2j2fgD96E6fPnIIEyZxidCZhRG7ZD2ntt2v3xhYbBaITBo4FbHrxLwSCDagsM7o8WkGeIAvVXQGCw/lpJSlGgxSmQSMQQjZhOwF9lkinBurXf4N1xm7Bg3vzkvnD+AnBftGBhcv9g/hzM+PQTzFk1HTMXL8KMuV9i0ZJN+GDqNEaTU1rS6mYjjFnzZ2PugrWYMm01Ppq+Eh9+shArli3f577ys51YvOwbLF/5OeYtngtbrV7BGacJWGYM778/DvPnzcSCeQvxybS5mDNzCRbOW6rKt2L5YixdvETty5YsxfKly9TOc319/ddblTsyHo/CsKPYWVaKj6bNxeKlG/Hx9P8k604d9lT/GfOXY87iT7Fi9ZdYtmoNZsydieIyzqImYJbAxDZ8+d0KTJn+MWbMWY6PPlmKaXMXYdbS+Vj+5VIsWbR4n/useevx8by52BH+EiaKnaEGDNynJm40fWwZJ/xLAvGYU6TbHr4HXduuht8rMNji/iORCqe9AgKDad9EUkBRoKkUqBmbxcmvJkAwtFUMuLhj1bMjwD72OCwYqIKBYrUUmZoAagKVZTEFa8Vl34MrU3DCTFW4WAGSjc0AtqlzxMqxz11BVZmTVi1ZVoq4UY7qSAWi0bhTNsa1My2HRgwuZ8E6ERir9ll2polzSYzk5oRFiTIkinLBMuTJvuvvmOrosuW9CcRiTO+sbhflKhsMlBIzELdslZQzbk2LQZqd8CuwqrGvna5hutgJgraqD8foOcGZbSOcLHnTniTUknSs6x2D7kOXEz9D0C8w2LRtIk8XBX6ogMDgDzWRK6KAKKAUSCh2MjhkUI0ftFSsNxucFFCuXMcWJ5nU7Eyjd9KNFYezti/zsnluI8YxfSSDBC85cJSg5UiNA6PFbCtAyCPAkR73sVvVVbDj1QiX7UQiynVtCV1c8My5jStWkL8S5CvCbMzZWV6uiOEut76J5U9eV1ZLVTCVoRVPwIpVw4qXA1ZZnfVXhlTeblCLmnGXLJzpwDWryMsJzZw13zF9tMRZ19dI7P0YZ/BlSplQYjqArtspnh4zbm3Ek8Gw73rsAXRuswqhgMCg/AcjCqSbAgKD6dYiUh5RIE0U4FJiRhyIR8lCpJpEzdhBTgjYrpiOXLe3XQFYlADmWMdsm9YqvdM65wCSEa1ZmMIgJVkO08V44DzUve+K/XiL4VgbNdBVhxOIRGk1AxI1RkFdRnIX96hh7rXcOi3d1/FEJaLRahU8OVZN6t21LJpOt7ejepAaOEdzHevNSR1VSCTKEYtztQ1LuZ+dSTr8vgYYOe4vvHdd9fN0BWw2De+hi5h0qApZA7FN3JcIgywTy3zP4IfQqfVKNalIxgw2ccPI40WBWgoIDNYSRD6KAqKAo4BN3zDf4rTq2SXKFVlOg5NFyCpGwooomOF4Ou4mYsmdS5EpuDFMRMIOENjKPRuGaVcoGGJGHNun8IwQ4wYt5aFOKAgliO5pdxsP49o4xvLWbCzfrvvo4k6ocibMKBJmPFl2lpvl5c5zXR9CoKkWxiWS7rI4RgnHNjWoq/6EPwfyohFaPWOIx+nW5nXCYBS0smpApqW0KlIG07YQiTrl0eXa0xEJG0aE5kVHO5sucAJm3Ea06ScTq1awbAdw2Sz3DX0EHU/4VM3qFhjUvVSOokB6KCAwmB7tIKUQBdJOAYNmwRpjnYXvHYjRpjW6eF3wtufzmqXESAIGUEUeIkQR3GruNWLOmD8HEA0FWXGLVru6TWNxVKDKLkHErkLcJuxZCqQoJOM1mjFSG93NDHjHcY5c68xxUat6MQQLV+rQddLHBGfjOm5kljeWqIZhVyNilsNAAmErofhrz3XeBbUV0Z2oilWqOtHdy2fGyIY1eqjPZEG6s+POjNuoxXGWDt/VlT+BMlFdBtCPjxiqq7c7lWP+BMQ02DQMsk73DxuEDsevEBhMg3aRIogCtRUQGKytiHwWBUQBUUAUaLgCHDeqJsE43uvBI4ei/XFLUOAFAsG64wxyOUN/yEkb8gBZeU/hk4UzHHjnxCDZRAFRIGUKCAymTErJSBQQBUQBUSCpgMBgUgo5EQXSXQGBwXRvISmfKCAKiAKZqIDAYCa2mpS5hSogMNhCG16qLQqIAqJAoyogMNio8krmokAqFRAYTKWakpcoIAqIAqKAo4DAoPQEUSBjFBAYzJimkoKKAqKAKJBBCggMZlBjSVFbugICgy29B0j9RQFRQBRoDAUEBhtDVclTFGgUBQQGG0VWyVQUEAVEgRaugMBgC+8AUv1MUkBgMJNaS8oqCogCokCGKOCsuczFlZ1g48+8MBIdj12EoM9GfigCf8De5x7sE4eHsQYDBvqGgN5Zr2Ha3FlOlG4uPyObKCAKpEwBgcGUSSkZiQKigCggCmgFBAa1EnIUBdJfAYHB9G8jKaEoIAqIAhmnQENhMFAUQ77HsQz2CdpiGcy4HiAFziQFBAYzqbWkrKKAKCAKZIgCqYJBnz8BwmCv3q9i6pyZgG0C4ibOkF4gxcwUBQQGM6WlpJyigCggCmSQAg2FQX9hFHn5AGGwKGAJDGZQ20tRM08BgcHMazMpsSggCogCaa9AqmDQ64snYXDK7BliGUz7lpcCZqICAoOZ2GpSZlFAFBAF0lyBVMNgz16jQRi0LUPcxGne9lK8zFNAYDDz2kxKLAqIAqJA2ivQUBj0FUSUm5iWwUK/CYHBtG9yKWAGKyAwmMGNJ0UXBUQBUSBdFbAQB2yGBYzANoBxE95Ah1ZTEfQA+QVl+4wxyBiEPn8lQn7A77PQLwT06D4Ob0+d5lSXGcomCogCKVNAYDBlUkpGooAoIAqIAloBgUGthBxFgfRXQGAw/dtISigKiAKiQMYpIDCYcU0mBW7BCggMtuDGl6qLAqKAKNBYCggMNpaykq8okHoFBAZTr6nkKAqIAqJAi1dAYLDFdwERIIMUEBjMoMaSoooCooAokCkKCAxmSktJOUUBQGBQeoEoIAqIAqJAyhUQGEy5pJKhKNBoCggMNpq0krEoIAqIAi1XAYHBltv2UvPMU0BgMPPaTEosCogCokDaK2AjBiMOwEgAFjD+3TFof/xE+HIBT8iqM85gMFQNvwcIBYFAnoXevd7CuHffc+ptJdK+/lJAUSCTFBAYzKTWkrKKAqKAKJAhChAGTTKbwGCGtJgUsyUrIDDYkltf6i4KiAKiQCMpUBsGJ7w3ViyDjaS1ZCsKNFQBgcGGKij3iwKigCggCvxAgSQMmoZyExMGO5wwCf48wFtgi5v4B4rJBVGg6RQQGGw67eXJooAoIAo0WwUIgxaXEK6BwYnvjxMYbLatLRXLdAUEBjO9BaX8ooAoIAqkoQJJGLRMZRnUMBjIB3yFEMtgGraZFKnlKiAw2HLbXmouCogCokCjKUAYtE0ANTA4afIb6Nj6bQgMNprkkrEo8JMVEBj8ydLJjaKAKCAKiAJ7U0BgcG/KyHVRIP0UEBhMvzaREokCooAokPEKWIgq9zBsC7YBTJnxHk44ahwK/fWLM8gYg8GgCb8/gaKAhd5dF+GFN15wdLEzXh6pgCiQVgoIDKZVc0hhRAFRQBRoHgoIDDaPdpRatAwFBAZbRjtLLUUBUUAU2K8KCAzuV7nlYaJAgxQQGGyQfHKzKCAKiAKiwJ4UEBjckypyTRRITwUEBtOzXaRUooAoIApktAICgxndfFL4FqaAwGALa3CpriggCogC+0MBgcH9obI8QxRIjQICg6nRUXIRBUQBUUAUcCkgMOgSQ05FgTRXQGAwzRtIiicKiAKiQCYqIDCYia0mZW6pCggMttSWl3qLAqKAKNCoCpQCKAMQQVU1MHNmFX7z838gu9Ni5HfahtzuO/a59+wcRvcOO+DL2oiszp/Al/USXhm1GlY1oAIXNmrZJXNRoGUpIDDYstpbaisKiAKiwP5RIAHAcB6VQATrt3+HOx9+BEOfGYsnnp+MQSMe2ed+7zN34O4n7sJjzw3D4yNHYOhTw7Fg4UyY1k4AW/dPHeQpokALUUBgsIU0tFRTFBAFRIH9qoBlI1JdBSAGE1UwUIZqbEepuRFRlACGuc/dQBUiVjUSNpAwgUg1YMa51nHNvl8rIw8TBZq3AgKDzbt9pXaigCggCjSRAsWwlJvYgGUB0Thg2EA4DsS5nJyd2PdOyyKTEABNpmc1DBhWGQx7exPVSR4rCjRPBQQGm2e7Sq1EAVFAFBAFRAFRQBSolwICg/WSSRKJAqKAKCAKiAKigCjQPBUQGGye7Sq1EgVEAVFAFBAFRAFRoF4K/D9Hbfv7Jr3TPgAAAABJRU5ErkJggg==;" parent="1" vertex="1">
                    <mxGeometry x="90.00350997924807" y="282.0007917022705" width="643" height="157" as="geometry"/>
                </mxCell>
                <mxCell id="29" value="Queue" style="text;html=1;strokeColor=none;fillColor=none;align=center;verticalAlign=middle;whiteSpace=wrap;rounded=0;fontStyle=3;fontSize=21;" parent="1" vertex="1">
                    <mxGeometry x="213" y="381" width="60" height="30" as="geometry"/>
                </mxCell>
                <mxCell id="30" value="" style="shape=agent;offsetSize=8;strokeWidth=2;" parent="1" vertex="1">
                    <mxGeometry x="197" y="665" width="100" height="60" as="geometry"/>
                </mxCell>
                <mxCell id="31" value="" style="shape=agent;offsetSize=8;strokeWidth=2;" parent="1" vertex="1">
                    <mxGeometry x="197" y="725" width="100" height="60" as="geometry"/>
                </mxCell>
                <mxCell id="32" value="1" style="shape=agent;offsetSize=8;strokeWidth=2;" parent="1" vertex="1">
                    <mxGeometry x="197" y="785" width="100" height="60" as="geometry"/>
                </mxCell>
                <mxCell id="33" value="" style="shape=agent;offsetSize=8;strokeWidth=2;" parent="1" vertex="1">
                    <mxGeometry x="372" y="665" width="100" height="60" as="geometry"/>
                </mxCell>
                <mxCell id="34" value="" style="shape=agent;offsetSize=8;strokeWidth=2;" parent="1" vertex="1">
                    <mxGeometry x="372" y="725" width="100" height="60" as="geometry"/>
                </mxCell>
                <mxCell id="35" value="1" style="shape=agent;offsetSize=8;strokeWidth=2;" parent="1" vertex="1">
                    <mxGeometry x="372" y="785" width="100" height="60" as="geometry"/>
                </mxCell>
                <mxCell id="36" value="Min Stack&amp;nbsp;" style="text;html=1;strokeColor=none;fillColor=none;align=center;verticalAlign=middle;whiteSpace=wrap;rounded=0;" parent="1" vertex="1">
                    <mxGeometry x="389" y="874" width="60" height="30" as="geometry"/>
                </mxCell>
                <mxCell id="37" value="" style="shape=agent;offsetSize=8;strokeWidth=2;" parent="1" vertex="1">
                    <mxGeometry x="194" y="933" width="100" height="60" as="geometry"/>
                </mxCell>
                <mxCell id="38" value="0" style="shape=agent;offsetSize=8;strokeWidth=2;" parent="1" vertex="1">
                    <mxGeometry x="194" y="993" width="100" height="60" as="geometry"/>
                </mxCell>
                <mxCell id="39" value="1" style="shape=agent;offsetSize=8;strokeWidth=2;" parent="1" vertex="1">
                    <mxGeometry x="194" y="1053" width="100" height="60" as="geometry"/>
                </mxCell>
                <mxCell id="40" value="" style="shape=agent;offsetSize=8;strokeWidth=2;" parent="1" vertex="1">
                    <mxGeometry x="369" y="933" width="100" height="60" as="geometry"/>
                </mxCell>
                <mxCell id="41" value="0" style="shape=agent;offsetSize=8;strokeWidth=2;" parent="1" vertex="1">
                    <mxGeometry x="369" y="993" width="100" height="60" as="geometry"/>
                </mxCell>
                <mxCell id="42" value="1" style="shape=agent;offsetSize=8;strokeWidth=2;" parent="1" vertex="1">
                    <mxGeometry x="369" y="1053" width="100" height="60" as="geometry"/>
                </mxCell>
                <mxCell id="43" value="Min Stack&amp;nbsp;" style="text;html=1;strokeColor=none;fillColor=none;align=center;verticalAlign=middle;whiteSpace=wrap;rounded=0;" parent="1" vertex="1">
                    <mxGeometry x="394" y="1133" width="60" height="30" as="geometry"/>
                </mxCell>
                <mxCell id="45" value="1" style="shape=agent;offsetSize=8;strokeWidth=2;" parent="1" vertex="1">
                    <mxGeometry x="557" y="933" width="100" height="60" as="geometry"/>
                </mxCell>
                <mxCell id="46" value="0" style="shape=agent;offsetSize=8;strokeWidth=2;" parent="1" vertex="1">
                    <mxGeometry x="557" y="993" width="100" height="60" as="geometry"/>
                </mxCell>
                <mxCell id="47" value="1" style="shape=agent;offsetSize=8;strokeWidth=2;" parent="1" vertex="1">
                    <mxGeometry x="557" y="1053" width="100" height="60" as="geometry"/>
                </mxCell>
                <mxCell id="48" value="0" style="shape=agent;offsetSize=8;strokeWidth=2;" parent="1" vertex="1">
                    <mxGeometry x="732" y="933" width="100" height="60" as="geometry"/>
                </mxCell>
                <mxCell id="49" value="0" style="shape=agent;offsetSize=8;strokeWidth=2;" parent="1" vertex="1">
                    <mxGeometry x="732" y="993" width="100" height="60" as="geometry"/>
                </mxCell>
                <mxCell id="50" value="1" style="shape=agent;offsetSize=8;strokeWidth=2;" parent="1" vertex="1">
                    <mxGeometry x="732" y="1053" width="100" height="60" as="geometry"/>
                </mxCell>
                <mxCell id="51" value="Min Stack&amp;nbsp;" style="text;html=1;strokeColor=none;fillColor=none;align=center;verticalAlign=middle;whiteSpace=wrap;rounded=0;" parent="1" vertex="1">
                    <mxGeometry x="757" y="1133" width="60" height="30" as="geometry"/>
                </mxCell>
                <mxCell id="52" value="" style="shape=agent;offsetSize=8;strokeWidth=2;" parent="1" vertex="1">
                    <mxGeometry x="184" y="1238" width="100" height="60" as="geometry"/>
                </mxCell>
                <mxCell id="53" value="" style="shape=agent;offsetSize=8;strokeWidth=2;" parent="1" vertex="1">
                    <mxGeometry x="184" y="1298" width="100" height="60" as="geometry"/>
                </mxCell>
                <mxCell id="54" value="1" style="shape=agent;offsetSize=8;strokeWidth=2;" parent="1" vertex="1">
                    <mxGeometry x="184" y="1358" width="100" height="60" as="geometry"/>
                </mxCell>
                <mxCell id="55" value="" style="shape=agent;offsetSize=8;strokeWidth=2;" parent="1" vertex="1">
                    <mxGeometry x="359" y="1238" width="100" height="60" as="geometry"/>
                </mxCell>
                <mxCell id="56" value="" style="shape=agent;offsetSize=8;strokeWidth=2;" parent="1" vertex="1">
                    <mxGeometry x="359" y="1298" width="100" height="60" as="geometry"/>
                </mxCell>
                <mxCell id="57" value="1" style="shape=agent;offsetSize=8;strokeWidth=2;" parent="1" vertex="1">
                    <mxGeometry x="359" y="1358" width="100" height="60" as="geometry"/>
                </mxCell>
                <mxCell id="58" value="Min Stack&amp;nbsp;" style="text;html=1;strokeColor=none;fillColor=none;align=center;verticalAlign=middle;whiteSpace=wrap;rounded=0;" parent="1" vertex="1">
                    <mxGeometry x="384" y="1438" width="60" height="30" as="geometry"/>
                </mxCell>
            </root>
        </mxGraphModel>
    </diagram>
    <diagram id="rEIVdeXNVTwm8VrZb-DE" name="Page-2">
        <mxGraphModel dx="832" dy="564" grid="1" gridSize="10" guides="1" tooltips="1" connect="1" arrows="1" fold="1" page="1" pageScale="1" pageWidth="827" pageHeight="1169" math="0" shadow="0">
            <root>
                <mxCell id="csnIcFBk05dPJXtU28bG-0"/>
                <mxCell id="csnIcFBk05dPJXtU28bG-1" parent="csnIcFBk05dPJXtU28bG-0"/>
                <mxCell id="csnIcFBk05dPJXtU28bG-3" value="" style="endArrow=classic;html=1;" edge="1" parent="csnIcFBk05dPJXtU28bG-1">
                    <mxGeometry width="50" height="50" relative="1" as="geometry">
                        <mxPoint x="120" y="200" as="sourcePoint"/>
                        <mxPoint x="680" y="200" as="targetPoint"/>
                    </mxGeometry>
                </mxCell>
                <mxCell id="csnIcFBk05dPJXtU28bG-4" value="0" style="endArrow=none;html=1;" edge="1" parent="csnIcFBk05dPJXtU28bG-1">
                    <mxGeometry width="50" height="50" relative="1" as="geometry">
                        <mxPoint x="120" y="240" as="sourcePoint"/>
                        <mxPoint x="120" y="200" as="targetPoint"/>
                    </mxGeometry>
                </mxCell>
                <mxCell id="csnIcFBk05dPJXtU28bG-5" value="" style="endArrow=none;html=1;" edge="1" parent="csnIcFBk05dPJXtU28bG-1">
                    <mxGeometry width="50" height="50" relative="1" as="geometry">
                        <mxPoint x="159" y="240" as="sourcePoint"/>
                        <mxPoint x="159" y="200" as="targetPoint"/>
                    </mxGeometry>
                </mxCell>
                <mxCell id="csnIcFBk05dPJXtU28bG-16" value="1" style="edgeLabel;html=1;align=center;verticalAlign=middle;resizable=0;points=[];" vertex="1" connectable="0" parent="csnIcFBk05dPJXtU28bG-5">
                    <mxGeometry x="0.2795" y="2" relative="1" as="geometry">
                        <mxPoint as="offset"/>
                    </mxGeometry>
                </mxCell>
                <mxCell id="csnIcFBk05dPJXtU28bG-6" value="" style="endArrow=none;html=1;" edge="1" parent="csnIcFBk05dPJXtU28bG-1">
                    <mxGeometry width="50" height="50" relative="1" as="geometry">
                        <mxPoint x="199" y="241" as="sourcePoint"/>
                        <mxPoint x="199" y="201" as="targetPoint"/>
                    </mxGeometry>
                </mxCell>
                <mxCell id="csnIcFBk05dPJXtU28bG-17" value="2" style="edgeLabel;html=1;align=center;verticalAlign=middle;resizable=0;points=[];" vertex="1" connectable="0" parent="csnIcFBk05dPJXtU28bG-6">
                    <mxGeometry x="0.0686" y="2" relative="1" as="geometry">
                        <mxPoint as="offset"/>
                    </mxGeometry>
                </mxCell>
                <mxCell id="csnIcFBk05dPJXtU28bG-7" value="3" style="endArrow=none;html=1;" edge="1" parent="csnIcFBk05dPJXtU28bG-1">
                    <mxGeometry width="50" height="50" relative="1" as="geometry">
                        <mxPoint x="239" y="241" as="sourcePoint"/>
                        <mxPoint x="239" y="201" as="targetPoint"/>
                    </mxGeometry>
                </mxCell>
                <mxCell id="csnIcFBk05dPJXtU28bG-8" value="" style="endArrow=none;html=1;" edge="1" parent="csnIcFBk05dPJXtU28bG-1">
                    <mxGeometry width="50" height="50" relative="1" as="geometry">
                        <mxPoint x="279" y="241" as="sourcePoint"/>
                        <mxPoint x="279" y="201" as="targetPoint"/>
                    </mxGeometry>
                </mxCell>
                <mxCell id="csnIcFBk05dPJXtU28bG-18" value="4" style="edgeLabel;html=1;align=center;verticalAlign=middle;resizable=0;points=[];" vertex="1" connectable="0" parent="csnIcFBk05dPJXtU28bG-8">
                    <mxGeometry x="0.2292" y="2" relative="1" as="geometry">
                        <mxPoint as="offset"/>
                    </mxGeometry>
                </mxCell>
                <mxCell id="csnIcFBk05dPJXtU28bG-9" value="5" style="endArrow=none;html=1;" edge="1" parent="csnIcFBk05dPJXtU28bG-1">
                    <mxGeometry width="50" height="50" relative="1" as="geometry">
                        <mxPoint x="318" y="241" as="sourcePoint"/>
                        <mxPoint x="318" y="201" as="targetPoint"/>
                    </mxGeometry>
                </mxCell>
                <mxCell id="csnIcFBk05dPJXtU28bG-10" value="" style="endArrow=none;html=1;" edge="1" parent="csnIcFBk05dPJXtU28bG-1">
                    <mxGeometry width="50" height="50" relative="1" as="geometry">
                        <mxPoint x="358" y="242" as="sourcePoint"/>
                        <mxPoint x="358" y="202" as="targetPoint"/>
                    </mxGeometry>
                </mxCell>
                <mxCell id="csnIcFBk05dPJXtU28bG-19" value="6" style="edgeLabel;html=1;align=center;verticalAlign=middle;resizable=0;points=[];" vertex="1" connectable="0" parent="csnIcFBk05dPJXtU28bG-10">
                    <mxGeometry x="0.0051" y="2" relative="1" as="geometry">
                        <mxPoint as="offset"/>
                    </mxGeometry>
                </mxCell>
                <mxCell id="csnIcFBk05dPJXtU28bG-11" value="" style="endArrow=none;html=1;" edge="1" parent="csnIcFBk05dPJXtU28bG-1">
                    <mxGeometry width="50" height="50" relative="1" as="geometry">
                        <mxPoint x="398" y="242" as="sourcePoint"/>
                        <mxPoint x="398" y="202" as="targetPoint"/>
                    </mxGeometry>
                </mxCell>
                <mxCell id="csnIcFBk05dPJXtU28bG-20" value="7" style="edgeLabel;html=1;align=center;verticalAlign=middle;resizable=0;points=[];" vertex="1" connectable="0" parent="csnIcFBk05dPJXtU28bG-11">
                    <mxGeometry x="0.2224" y="1" relative="1" as="geometry">
                        <mxPoint as="offset"/>
                    </mxGeometry>
                </mxCell>
                <mxCell id="csnIcFBk05dPJXtU28bG-12" value="8" style="endArrow=none;html=1;" edge="1" parent="csnIcFBk05dPJXtU28bG-1">
                    <mxGeometry width="50" height="50" relative="1" as="geometry">
                        <mxPoint x="438" y="242" as="sourcePoint"/>
                        <mxPoint x="438" y="202" as="targetPoint"/>
                    </mxGeometry>
                </mxCell>
                <mxCell id="csnIcFBk05dPJXtU28bG-13" value="" style="endArrow=none;html=1;" edge="1" parent="csnIcFBk05dPJXtU28bG-1">
                    <mxGeometry width="50" height="50" relative="1" as="geometry">
                        <mxPoint x="477" y="242" as="sourcePoint"/>
                        <mxPoint x="477" y="202" as="targetPoint"/>
                    </mxGeometry>
                </mxCell>
                <mxCell id="csnIcFBk05dPJXtU28bG-21" value="9" style="edgeLabel;html=1;align=center;verticalAlign=middle;resizable=0;points=[];" vertex="1" connectable="0" parent="csnIcFBk05dPJXtU28bG-13">
                    <mxGeometry x="-0.0384" relative="1" as="geometry">
                        <mxPoint as="offset"/>
                    </mxGeometry>
                </mxCell>
                <mxCell id="csnIcFBk05dPJXtU28bG-14" value="" style="endArrow=none;html=1;" edge="1" parent="csnIcFBk05dPJXtU28bG-1">
                    <mxGeometry width="50" height="50" relative="1" as="geometry">
                        <mxPoint x="517" y="243" as="sourcePoint"/>
                        <mxPoint x="517" y="203" as="targetPoint"/>
                    </mxGeometry>
                </mxCell>
                <mxCell id="csnIcFBk05dPJXtU28bG-22" value="10" style="edgeLabel;html=1;align=center;verticalAlign=middle;resizable=0;points=[];" vertex="1" connectable="0" parent="csnIcFBk05dPJXtU28bG-14">
                    <mxGeometry x="0.0551" relative="1" as="geometry">
                        <mxPoint as="offset"/>
                    </mxGeometry>
                </mxCell>
                <mxCell id="csnIcFBk05dPJXtU28bG-15" value="11" style="endArrow=none;html=1;" edge="1" parent="csnIcFBk05dPJXtU28bG-1">
                    <mxGeometry width="50" height="50" relative="1" as="geometry">
                        <mxPoint x="557" y="243" as="sourcePoint"/>
                        <mxPoint x="557" y="203" as="targetPoint"/>
                    </mxGeometry>
                </mxCell>
                <mxCell id="csnIcFBk05dPJXtU28bG-23" value="12" style="endArrow=none;html=1;" edge="1" parent="csnIcFBk05dPJXtU28bG-1">
                    <mxGeometry x="-0.6794" width="50" height="50" relative="1" as="geometry">
                        <mxPoint x="600" y="241" as="sourcePoint"/>
                        <mxPoint x="600" y="110" as="targetPoint"/>
                        <mxPoint as="offset"/>
                    </mxGeometry>
                </mxCell>
                <mxCell id="csnIcFBk05dPJXtU28bG-29" value="Target" style="edgeLabel;html=1;align=center;verticalAlign=middle;resizable=0;points=[];" vertex="1" connectable="0" parent="csnIcFBk05dPJXtU28bG-23">
                    <mxGeometry x="0.7346" relative="1" as="geometry">
                        <mxPoint as="offset"/>
                    </mxGeometry>
                </mxCell>
                <mxCell id="csnIcFBk05dPJXtU28bG-24" value="1" style="rounded=0;whiteSpace=wrap;html=1;fillColor=#ffe6cc;strokeColor=#d79b00;" vertex="1" parent="csnIcFBk05dPJXtU28bG-1">
                    <mxGeometry x="100" y="180" width="30" height="20" as="geometry"/>
                </mxCell>
                <mxCell id="csnIcFBk05dPJXtU28bG-25" value="4" style="rounded=0;whiteSpace=wrap;html=1;fillColor=#d5e8d4;strokeColor=#82b366;" vertex="1" parent="csnIcFBk05dPJXtU28bG-1">
                    <mxGeometry x="423" y="180" width="30" height="20" as="geometry"/>
                </mxCell>
                <mxCell id="csnIcFBk05dPJXtU28bG-26" value="1" style="rounded=0;whiteSpace=wrap;html=1;fillColor=#dae8fc;strokeColor=#6c8ebf;" vertex="1" parent="csnIcFBk05dPJXtU28bG-1">
                    <mxGeometry x="310" y="180" width="30" height="20" as="geometry"/>
                </mxCell>
                <mxCell id="csnIcFBk05dPJXtU28bG-27" value="2" style="rounded=0;whiteSpace=wrap;html=1;fillColor=#e1d5e7;strokeColor=#9673a6;" vertex="1" parent="csnIcFBk05dPJXtU28bG-1">
                    <mxGeometry x="500" y="180" width="30" height="20" as="geometry"/>
                </mxCell>
                <mxCell id="csnIcFBk05dPJXtU28bG-28" value="3" style="rounded=0;whiteSpace=wrap;html=1;fillColor=#f8cecc;strokeColor=#b85450;" vertex="1" parent="csnIcFBk05dPJXtU28bG-1">
                    <mxGeometry x="224" y="180" width="30" height="20" as="geometry"/>
                </mxCell>
                <mxCell id="csnIcFBk05dPJXtU28bG-33" value="" style="triangle;whiteSpace=wrap;html=1;fillColor=#60a917;fontColor=#ffffff;strokeColor=#2D7600;" vertex="1" parent="csnIcFBk05dPJXtU28bG-1">
                    <mxGeometry x="600" y="90" width="60" height="30" as="geometry"/>
                </mxCell>
                <mxCell id="csnIcFBk05dPJXtU28bG-35" value="Time : 1&amp;nbsp;" style="endArrow=classic;startArrow=classic;html=1;" edge="1" parent="csnIcFBk05dPJXtU28bG-1">
                    <mxGeometry width="50" height="50" relative="1" as="geometry">
                        <mxPoint x="510" y="170" as="sourcePoint"/>
                        <mxPoint x="600" y="170" as="targetPoint"/>
                    </mxGeometry>
                </mxCell>
                <mxCell id="csnIcFBk05dPJXtU28bG-36" value="Time : 1&amp;nbsp;" style="endArrow=classic;startArrow=classic;html=1;" edge="1" parent="csnIcFBk05dPJXtU28bG-1">
                    <mxGeometry width="50" height="50" relative="1" as="geometry">
                        <mxPoint x="430" y="155" as="sourcePoint"/>
                        <mxPoint x="600" y="155" as="targetPoint"/>
                    </mxGeometry>
                </mxCell>
                <mxCell id="csnIcFBk05dPJXtU28bG-37" value="Time : 7&amp;nbsp;" style="endArrow=classic;startArrow=classic;html=1;" edge="1" parent="csnIcFBk05dPJXtU28bG-1">
                    <mxGeometry width="50" height="50" relative="1" as="geometry">
                        <mxPoint x="320" y="140" as="sourcePoint"/>
                        <mxPoint x="600" y="140" as="targetPoint"/>
                    </mxGeometry>
                </mxCell>
                <mxCell id="csnIcFBk05dPJXtU28bG-38" value="Time : 12" style="endArrow=classic;startArrow=classic;html=1;" edge="1" parent="csnIcFBk05dPJXtU28bG-1">
                    <mxGeometry width="50" height="50" relative="1" as="geometry">
                        <mxPoint x="114" y="100" as="sourcePoint"/>
                        <mxPoint x="598" y="100" as="targetPoint"/>
                    </mxGeometry>
                </mxCell>
                <mxCell id="csnIcFBk05dPJXtU28bG-39" value="Time : 3&amp;nbsp;" style="endArrow=classic;startArrow=classic;html=1;" edge="1" parent="csnIcFBk05dPJXtU28bG-1">
                    <mxGeometry width="50" height="50" relative="1" as="geometry">
                        <mxPoint x="243" y="120" as="sourcePoint"/>
                        <mxPoint x="603" y="120" as="targetPoint"/>
                    </mxGeometry>
                </mxCell>
                <mxCell id="csnIcFBk05dPJXtU28bG-40" value="" style="endArrow=classic;html=1;" edge="1" parent="csnIcFBk05dPJXtU28bG-1">
                    <mxGeometry width="50" height="50" relative="1" as="geometry">
                        <mxPoint x="130" y="410" as="sourcePoint"/>
                        <mxPoint x="690" y="410" as="targetPoint"/>
                    </mxGeometry>
                </mxCell>
                <mxCell id="csnIcFBk05dPJXtU28bG-41" value="0" style="endArrow=none;html=1;" edge="1" parent="csnIcFBk05dPJXtU28bG-1">
                    <mxGeometry width="50" height="50" relative="1" as="geometry">
                        <mxPoint x="130" y="450" as="sourcePoint"/>
                        <mxPoint x="130" y="410" as="targetPoint"/>
                    </mxGeometry>
                </mxCell>
                <mxCell id="csnIcFBk05dPJXtU28bG-42" value="" style="endArrow=none;html=1;" edge="1" parent="csnIcFBk05dPJXtU28bG-1">
                    <mxGeometry width="50" height="50" relative="1" as="geometry">
                        <mxPoint x="169" y="450" as="sourcePoint"/>
                        <mxPoint x="169" y="410" as="targetPoint"/>
                    </mxGeometry>
                </mxCell>
                <mxCell id="csnIcFBk05dPJXtU28bG-43" value="1" style="edgeLabel;html=1;align=center;verticalAlign=middle;resizable=0;points=[];" vertex="1" connectable="0" parent="csnIcFBk05dPJXtU28bG-42">
                    <mxGeometry x="0.2795" y="2" relative="1" as="geometry">
                        <mxPoint as="offset"/>
                    </mxGeometry>
                </mxCell>
                <mxCell id="csnIcFBk05dPJXtU28bG-44" value="" style="endArrow=none;html=1;" edge="1" parent="csnIcFBk05dPJXtU28bG-1">
                    <mxGeometry width="50" height="50" relative="1" as="geometry">
                        <mxPoint x="209" y="451" as="sourcePoint"/>
                        <mxPoint x="209" y="411" as="targetPoint"/>
                    </mxGeometry>
                </mxCell>
                <mxCell id="csnIcFBk05dPJXtU28bG-45" value="2" style="edgeLabel;html=1;align=center;verticalAlign=middle;resizable=0;points=[];" vertex="1" connectable="0" parent="csnIcFBk05dPJXtU28bG-44">
                    <mxGeometry x="0.0686" y="2" relative="1" as="geometry">
                        <mxPoint as="offset"/>
                    </mxGeometry>
                </mxCell>
                <mxCell id="csnIcFBk05dPJXtU28bG-46" value="3" style="endArrow=none;html=1;" edge="1" parent="csnIcFBk05dPJXtU28bG-1">
                    <mxGeometry width="50" height="50" relative="1" as="geometry">
                        <mxPoint x="249" y="451" as="sourcePoint"/>
                        <mxPoint x="249" y="411" as="targetPoint"/>
                    </mxGeometry>
                </mxCell>
                <mxCell id="csnIcFBk05dPJXtU28bG-47" value="" style="endArrow=none;html=1;" edge="1" parent="csnIcFBk05dPJXtU28bG-1">
                    <mxGeometry width="50" height="50" relative="1" as="geometry">
                        <mxPoint x="289" y="451" as="sourcePoint"/>
                        <mxPoint x="289" y="411" as="targetPoint"/>
                    </mxGeometry>
                </mxCell>
                <mxCell id="csnIcFBk05dPJXtU28bG-48" value="4" style="edgeLabel;html=1;align=center;verticalAlign=middle;resizable=0;points=[];" vertex="1" connectable="0" parent="csnIcFBk05dPJXtU28bG-47">
                    <mxGeometry x="0.2292" y="2" relative="1" as="geometry">
                        <mxPoint as="offset"/>
                    </mxGeometry>
                </mxCell>
                <mxCell id="csnIcFBk05dPJXtU28bG-49" value="5" style="endArrow=none;html=1;" edge="1" parent="csnIcFBk05dPJXtU28bG-1">
                    <mxGeometry width="50" height="50" relative="1" as="geometry">
                        <mxPoint x="328" y="451" as="sourcePoint"/>
                        <mxPoint x="328" y="411" as="targetPoint"/>
                    </mxGeometry>
                </mxCell>
                <mxCell id="csnIcFBk05dPJXtU28bG-50" value="" style="endArrow=none;html=1;" edge="1" parent="csnIcFBk05dPJXtU28bG-1">
                    <mxGeometry width="50" height="50" relative="1" as="geometry">
                        <mxPoint x="368" y="452" as="sourcePoint"/>
                        <mxPoint x="368" y="412" as="targetPoint"/>
                    </mxGeometry>
                </mxCell>
                <mxCell id="csnIcFBk05dPJXtU28bG-51" value="6" style="edgeLabel;html=1;align=center;verticalAlign=middle;resizable=0;points=[];" vertex="1" connectable="0" parent="csnIcFBk05dPJXtU28bG-50">
                    <mxGeometry x="0.0051" y="2" relative="1" as="geometry">
                        <mxPoint as="offset"/>
                    </mxGeometry>
                </mxCell>
                <mxCell id="csnIcFBk05dPJXtU28bG-52" value="" style="endArrow=none;html=1;" edge="1" parent="csnIcFBk05dPJXtU28bG-1">
                    <mxGeometry width="50" height="50" relative="1" as="geometry">
                        <mxPoint x="408" y="452" as="sourcePoint"/>
                        <mxPoint x="408" y="412" as="targetPoint"/>
                    </mxGeometry>
                </mxCell>
                <mxCell id="csnIcFBk05dPJXtU28bG-53" value="7" style="edgeLabel;html=1;align=center;verticalAlign=middle;resizable=0;points=[];" vertex="1" connectable="0" parent="csnIcFBk05dPJXtU28bG-52">
                    <mxGeometry x="0.2224" y="1" relative="1" as="geometry">
                        <mxPoint as="offset"/>
                    </mxGeometry>
                </mxCell>
                <mxCell id="csnIcFBk05dPJXtU28bG-54" value="8" style="endArrow=none;html=1;" edge="1" parent="csnIcFBk05dPJXtU28bG-1">
                    <mxGeometry width="50" height="50" relative="1" as="geometry">
                        <mxPoint x="448" y="452" as="sourcePoint"/>
                        <mxPoint x="448" y="412" as="targetPoint"/>
                    </mxGeometry>
                </mxCell>
                <mxCell id="csnIcFBk05dPJXtU28bG-55" value="" style="endArrow=none;html=1;" edge="1" parent="csnIcFBk05dPJXtU28bG-1">
                    <mxGeometry width="50" height="50" relative="1" as="geometry">
                        <mxPoint x="487" y="452" as="sourcePoint"/>
                        <mxPoint x="487" y="412" as="targetPoint"/>
                    </mxGeometry>
                </mxCell>
                <mxCell id="csnIcFBk05dPJXtU28bG-56" value="9" style="edgeLabel;html=1;align=center;verticalAlign=middle;resizable=0;points=[];" vertex="1" connectable="0" parent="csnIcFBk05dPJXtU28bG-55">
                    <mxGeometry x="-0.0384" relative="1" as="geometry">
                        <mxPoint as="offset"/>
                    </mxGeometry>
                </mxCell>
                <mxCell id="csnIcFBk05dPJXtU28bG-57" value="" style="endArrow=none;html=1;" edge="1" parent="csnIcFBk05dPJXtU28bG-1">
                    <mxGeometry width="50" height="50" relative="1" as="geometry">
                        <mxPoint x="527" y="453" as="sourcePoint"/>
                        <mxPoint x="527" y="413" as="targetPoint"/>
                    </mxGeometry>
                </mxCell>
                <mxCell id="csnIcFBk05dPJXtU28bG-58" value="10" style="edgeLabel;html=1;align=center;verticalAlign=middle;resizable=0;points=[];" vertex="1" connectable="0" parent="csnIcFBk05dPJXtU28bG-57">
                    <mxGeometry x="0.0551" relative="1" as="geometry">
                        <mxPoint as="offset"/>
                    </mxGeometry>
                </mxCell>
                <mxCell id="csnIcFBk05dPJXtU28bG-59" value="11" style="endArrow=none;html=1;" edge="1" parent="csnIcFBk05dPJXtU28bG-1">
                    <mxGeometry width="50" height="50" relative="1" as="geometry">
                        <mxPoint x="567" y="453" as="sourcePoint"/>
                        <mxPoint x="567" y="413" as="targetPoint"/>
                    </mxGeometry>
                </mxCell>
                <mxCell id="csnIcFBk05dPJXtU28bG-60" value="12" style="endArrow=none;html=1;" edge="1" parent="csnIcFBk05dPJXtU28bG-1">
                    <mxGeometry x="-0.6794" width="50" height="50" relative="1" as="geometry">
                        <mxPoint x="610" y="451" as="sourcePoint"/>
                        <mxPoint x="610" y="320" as="targetPoint"/>
                        <mxPoint as="offset"/>
                    </mxGeometry>
                </mxCell>
                <mxCell id="csnIcFBk05dPJXtU28bG-61" value="Target" style="edgeLabel;html=1;align=center;verticalAlign=middle;resizable=0;points=[];" vertex="1" connectable="0" parent="csnIcFBk05dPJXtU28bG-60">
                    <mxGeometry x="0.7346" relative="1" as="geometry">
                        <mxPoint as="offset"/>
                    </mxGeometry>
                </mxCell>
                <mxCell id="csnIcFBk05dPJXtU28bG-62" value="1" style="rounded=0;whiteSpace=wrap;html=1;fillColor=#ffe6cc;strokeColor=#d79b00;" vertex="1" parent="csnIcFBk05dPJXtU28bG-1">
                    <mxGeometry x="290" y="390" width="30" height="20" as="geometry"/>
                </mxCell>
                <mxCell id="csnIcFBk05dPJXtU28bG-63" value="4" style="rounded=0;whiteSpace=wrap;html=1;fillColor=#d5e8d4;strokeColor=#82b366;" vertex="1" parent="csnIcFBk05dPJXtU28bG-1">
                    <mxGeometry x="560" y="390" width="30" height="20" as="geometry"/>
                </mxCell>
                <mxCell id="csnIcFBk05dPJXtU28bG-64" value="1" style="rounded=0;whiteSpace=wrap;html=1;fillColor=#dae8fc;strokeColor=#6c8ebf;" vertex="1" parent="csnIcFBk05dPJXtU28bG-1">
                    <mxGeometry x="414" y="390" width="30" height="20" as="geometry"/>
                </mxCell>
                <mxCell id="csnIcFBk05dPJXtU28bG-65" value="2" style="rounded=0;whiteSpace=wrap;html=1;fillColor=#e1d5e7;strokeColor=#9673a6;" vertex="1" parent="csnIcFBk05dPJXtU28bG-1">
                    <mxGeometry x="540" y="390" width="30" height="20" as="geometry"/>
                </mxCell>
                <mxCell id="csnIcFBk05dPJXtU28bG-66" value="3" style="rounded=0;whiteSpace=wrap;html=1;fillColor=#f8cecc;strokeColor=#b85450;" vertex="1" parent="csnIcFBk05dPJXtU28bG-1">
                    <mxGeometry x="393" y="390" width="30" height="20" as="geometry"/>
                </mxCell>
                <mxCell id="csnIcFBk05dPJXtU28bG-67" value="" style="triangle;whiteSpace=wrap;html=1;fillColor=#60a917;fontColor=#ffffff;strokeColor=#2D7600;" vertex="1" parent="csnIcFBk05dPJXtU28bG-1">
                    <mxGeometry x="610" y="300" width="60" height="30" as="geometry"/>
                </mxCell>
                <mxCell id="csnIcFBk05dPJXtU28bG-74" value="Speed" style="rounded=0;whiteSpace=wrap;html=1;fillColor=#ffe6cc;strokeColor=#d79b00;" vertex="1" parent="csnIcFBk05dPJXtU28bG-1">
                    <mxGeometry x="100" y="40" width="60" height="20" as="geometry"/>
                </mxCell>
                <mxCell id="csnIcFBk05dPJXtU28bG-75" value="Car" style="text;html=1;strokeColor=none;fillColor=none;align=center;verticalAlign=middle;whiteSpace=wrap;rounded=0;" vertex="1" parent="csnIcFBk05dPJXtU28bG-1">
                    <mxGeometry x="100" y="17" width="60" height="30" as="geometry"/>
                </mxCell>
                <mxCell id="csnIcFBk05dPJXtU28bG-76" value="" style="endArrow=classic;html=1;" edge="1" parent="csnIcFBk05dPJXtU28bG-1">
                    <mxGeometry width="50" height="50" relative="1" as="geometry">
                        <mxPoint x="130" y="572" as="sourcePoint"/>
                        <mxPoint x="690" y="572" as="targetPoint"/>
                    </mxGeometry>
                </mxCell>
                <mxCell id="csnIcFBk05dPJXtU28bG-77" value="0" style="endArrow=none;html=1;" edge="1" parent="csnIcFBk05dPJXtU28bG-1">
                    <mxGeometry width="50" height="50" relative="1" as="geometry">
                        <mxPoint x="130" y="612" as="sourcePoint"/>
                        <mxPoint x="130" y="572" as="targetPoint"/>
                    </mxGeometry>
                </mxCell>
                <mxCell id="csnIcFBk05dPJXtU28bG-78" value="" style="endArrow=none;html=1;" edge="1" parent="csnIcFBk05dPJXtU28bG-1">
                    <mxGeometry width="50" height="50" relative="1" as="geometry">
                        <mxPoint x="169" y="612" as="sourcePoint"/>
                        <mxPoint x="169" y="572" as="targetPoint"/>
                    </mxGeometry>
                </mxCell>
                <mxCell id="csnIcFBk05dPJXtU28bG-79" value="1" style="edgeLabel;html=1;align=center;verticalAlign=middle;resizable=0;points=[];" vertex="1" connectable="0" parent="csnIcFBk05dPJXtU28bG-78">
                    <mxGeometry x="0.2795" y="2" relative="1" as="geometry">
                        <mxPoint as="offset"/>
                    </mxGeometry>
                </mxCell>
                <mxCell id="csnIcFBk05dPJXtU28bG-80" value="" style="endArrow=none;html=1;" edge="1" parent="csnIcFBk05dPJXtU28bG-1">
                    <mxGeometry width="50" height="50" relative="1" as="geometry">
                        <mxPoint x="209" y="613" as="sourcePoint"/>
                        <mxPoint x="209" y="573" as="targetPoint"/>
                    </mxGeometry>
                </mxCell>
                <mxCell id="csnIcFBk05dPJXtU28bG-81" value="2" style="edgeLabel;html=1;align=center;verticalAlign=middle;resizable=0;points=[];" vertex="1" connectable="0" parent="csnIcFBk05dPJXtU28bG-80">
                    <mxGeometry x="0.0686" y="2" relative="1" as="geometry">
                        <mxPoint as="offset"/>
                    </mxGeometry>
                </mxCell>
                <mxCell id="csnIcFBk05dPJXtU28bG-82" value="3" style="endArrow=none;html=1;" edge="1" parent="csnIcFBk05dPJXtU28bG-1">
                    <mxGeometry width="50" height="50" relative="1" as="geometry">
                        <mxPoint x="249" y="613" as="sourcePoint"/>
                        <mxPoint x="249" y="573" as="targetPoint"/>
                    </mxGeometry>
                </mxCell>
                <mxCell id="csnIcFBk05dPJXtU28bG-83" value="" style="endArrow=none;html=1;" edge="1" parent="csnIcFBk05dPJXtU28bG-1">
                    <mxGeometry width="50" height="50" relative="1" as="geometry">
                        <mxPoint x="289" y="613" as="sourcePoint"/>
                        <mxPoint x="289" y="573" as="targetPoint"/>
                    </mxGeometry>
                </mxCell>
                <mxCell id="csnIcFBk05dPJXtU28bG-84" value="4" style="edgeLabel;html=1;align=center;verticalAlign=middle;resizable=0;points=[];" vertex="1" connectable="0" parent="csnIcFBk05dPJXtU28bG-83">
                    <mxGeometry x="0.2292" y="2" relative="1" as="geometry">
                        <mxPoint as="offset"/>
                    </mxGeometry>
                </mxCell>
                <mxCell id="csnIcFBk05dPJXtU28bG-85" value="5" style="endArrow=none;html=1;" edge="1" parent="csnIcFBk05dPJXtU28bG-1">
                    <mxGeometry width="50" height="50" relative="1" as="geometry">
                        <mxPoint x="328" y="613" as="sourcePoint"/>
                        <mxPoint x="328" y="573" as="targetPoint"/>
                    </mxGeometry>
                </mxCell>
                <mxCell id="csnIcFBk05dPJXtU28bG-86" value="" style="endArrow=none;html=1;" edge="1" parent="csnIcFBk05dPJXtU28bG-1">
                    <mxGeometry width="50" height="50" relative="1" as="geometry">
                        <mxPoint x="368" y="613.9999999999999" as="sourcePoint"/>
                        <mxPoint x="368" y="574" as="targetPoint"/>
                    </mxGeometry>
                </mxCell>
                <mxCell id="csnIcFBk05dPJXtU28bG-87" value="6" style="edgeLabel;html=1;align=center;verticalAlign=middle;resizable=0;points=[];" vertex="1" connectable="0" parent="csnIcFBk05dPJXtU28bG-86">
                    <mxGeometry x="0.0051" y="2" relative="1" as="geometry">
                        <mxPoint as="offset"/>
                    </mxGeometry>
                </mxCell>
                <mxCell id="csnIcFBk05dPJXtU28bG-88" value="" style="endArrow=none;html=1;" edge="1" parent="csnIcFBk05dPJXtU28bG-1">
                    <mxGeometry width="50" height="50" relative="1" as="geometry">
                        <mxPoint x="408" y="613.9999999999999" as="sourcePoint"/>
                        <mxPoint x="408" y="574" as="targetPoint"/>
                    </mxGeometry>
                </mxCell>
                <mxCell id="csnIcFBk05dPJXtU28bG-89" value="7" style="edgeLabel;html=1;align=center;verticalAlign=middle;resizable=0;points=[];" vertex="1" connectable="0" parent="csnIcFBk05dPJXtU28bG-88">
                    <mxGeometry x="0.2224" y="1" relative="1" as="geometry">
                        <mxPoint as="offset"/>
                    </mxGeometry>
                </mxCell>
                <mxCell id="csnIcFBk05dPJXtU28bG-90" value="8" style="endArrow=none;html=1;" edge="1" parent="csnIcFBk05dPJXtU28bG-1">
                    <mxGeometry width="50" height="50" relative="1" as="geometry">
                        <mxPoint x="448" y="613.9999999999999" as="sourcePoint"/>
                        <mxPoint x="448" y="574" as="targetPoint"/>
                    </mxGeometry>
                </mxCell>
                <mxCell id="csnIcFBk05dPJXtU28bG-91" value="" style="endArrow=none;html=1;" edge="1" parent="csnIcFBk05dPJXtU28bG-1">
                    <mxGeometry width="50" height="50" relative="1" as="geometry">
                        <mxPoint x="487" y="613.9999999999999" as="sourcePoint"/>
                        <mxPoint x="487" y="574" as="targetPoint"/>
                    </mxGeometry>
                </mxCell>
                <mxCell id="csnIcFBk05dPJXtU28bG-92" value="9" style="edgeLabel;html=1;align=center;verticalAlign=middle;resizable=0;points=[];" vertex="1" connectable="0" parent="csnIcFBk05dPJXtU28bG-91">
                    <mxGeometry x="-0.0384" relative="1" as="geometry">
                        <mxPoint as="offset"/>
                    </mxGeometry>
                </mxCell>
                <mxCell id="csnIcFBk05dPJXtU28bG-93" value="" style="endArrow=none;html=1;" edge="1" parent="csnIcFBk05dPJXtU28bG-1">
                    <mxGeometry width="50" height="50" relative="1" as="geometry">
                        <mxPoint x="527" y="615" as="sourcePoint"/>
                        <mxPoint x="527" y="575" as="targetPoint"/>
                    </mxGeometry>
                </mxCell>
                <mxCell id="csnIcFBk05dPJXtU28bG-94" value="10" style="edgeLabel;html=1;align=center;verticalAlign=middle;resizable=0;points=[];" vertex="1" connectable="0" parent="csnIcFBk05dPJXtU28bG-93">
                    <mxGeometry x="0.0551" relative="1" as="geometry">
                        <mxPoint as="offset"/>
                    </mxGeometry>
                </mxCell>
                <mxCell id="csnIcFBk05dPJXtU28bG-95" value="11" style="endArrow=none;html=1;" edge="1" parent="csnIcFBk05dPJXtU28bG-1">
                    <mxGeometry width="50" height="50" relative="1" as="geometry">
                        <mxPoint x="567" y="615" as="sourcePoint"/>
                        <mxPoint x="567" y="575" as="targetPoint"/>
                    </mxGeometry>
                </mxCell>
                <mxCell id="csnIcFBk05dPJXtU28bG-96" value="12" style="endArrow=none;html=1;" edge="1" parent="csnIcFBk05dPJXtU28bG-1">
                    <mxGeometry x="-0.6794" width="50" height="50" relative="1" as="geometry">
                        <mxPoint x="610" y="613" as="sourcePoint"/>
                        <mxPoint x="610" y="482" as="targetPoint"/>
                        <mxPoint as="offset"/>
                    </mxGeometry>
                </mxCell>
                <mxCell id="csnIcFBk05dPJXtU28bG-97" value="Target" style="edgeLabel;html=1;align=center;verticalAlign=middle;resizable=0;points=[];" vertex="1" connectable="0" parent="csnIcFBk05dPJXtU28bG-96">
                    <mxGeometry x="0.7346" relative="1" as="geometry">
                        <mxPoint as="offset"/>
                    </mxGeometry>
                </mxCell>
                <mxCell id="csnIcFBk05dPJXtU28bG-98" value="1" style="rounded=0;whiteSpace=wrap;html=1;fillColor=#ffe6cc;strokeColor=#d79b00;" vertex="1" parent="csnIcFBk05dPJXtU28bG-1">
                    <mxGeometry x="10" y="352" width="30" height="20" as="geometry"/>
                </mxCell>
                <mxCell id="csnIcFBk05dPJXtU28bG-99" value="4" style="rounded=0;whiteSpace=wrap;html=1;fillColor=#d5e8d4;strokeColor=#82b366;" vertex="1" parent="csnIcFBk05dPJXtU28bG-1">
                    <mxGeometry x="430" y="552" width="30" height="20" as="geometry"/>
                </mxCell>
                <mxCell id="csnIcFBk05dPJXtU28bG-100" value="1" style="rounded=0;whiteSpace=wrap;html=1;fillColor=#dae8fc;strokeColor=#6c8ebf;" vertex="1" parent="csnIcFBk05dPJXtU28bG-1">
                    <mxGeometry x="423" y="721" width="30" height="20" as="geometry"/>
                </mxCell>
                <mxCell id="csnIcFBk05dPJXtU28bG-101" value="2" style="rounded=0;whiteSpace=wrap;html=1;fillColor=#e1d5e7;strokeColor=#9673a6;" vertex="1" parent="csnIcFBk05dPJXtU28bG-1">
                    <mxGeometry x="510" y="552" width="30" height="20" as="geometry"/>
                </mxCell>
                <mxCell id="csnIcFBk05dPJXtU28bG-102" value="3" style="rounded=0;whiteSpace=wrap;html=1;fillColor=#f8cecc;strokeColor=#b85450;" vertex="1" parent="csnIcFBk05dPJXtU28bG-1">
                    <mxGeometry x="40" y="280" width="30" height="20" as="geometry"/>
                </mxCell>
                <mxCell id="csnIcFBk05dPJXtU28bG-103" value="" style="triangle;whiteSpace=wrap;html=1;fillColor=#60a917;fontColor=#ffffff;strokeColor=#2D7600;" vertex="1" parent="csnIcFBk05dPJXtU28bG-1">
                    <mxGeometry x="610" y="462" width="60" height="30" as="geometry"/>
                </mxCell>
                <mxCell id="csnIcFBk05dPJXtU28bG-106" style="edgeStyle=none;html=1;entryX=0.5;entryY=0;entryDx=0;entryDy=0;" edge="1" parent="csnIcFBk05dPJXtU28bG-1" source="csnIcFBk05dPJXtU28bG-105" target="csnIcFBk05dPJXtU28bG-99">
                    <mxGeometry relative="1" as="geometry"/>
                </mxCell>
                <mxCell id="csnIcFBk05dPJXtU28bG-107" style="edgeStyle=none;html=1;entryX=0.5;entryY=0;entryDx=0;entryDy=0;" edge="1" parent="csnIcFBk05dPJXtU28bG-1" source="csnIcFBk05dPJXtU28bG-105" target="csnIcFBk05dPJXtU28bG-101">
                    <mxGeometry relative="1" as="geometry"/>
                </mxCell>
                <mxCell id="csnIcFBk05dPJXtU28bG-105" value="Do they make a fleet ? YES" style="text;html=1;strokeColor=#b85450;fillColor=#f8cecc;align=center;verticalAlign=middle;whiteSpace=wrap;rounded=0;" vertex="1" parent="csnIcFBk05dPJXtU28bG-1">
                    <mxGeometry x="423" y="492" width="137" height="30" as="geometry"/>
                </mxCell>
                <mxCell id="csnIcFBk05dPJXtU28bG-108" value="" style="endArrow=classic;html=1;" edge="1" parent="csnIcFBk05dPJXtU28bG-1">
                    <mxGeometry width="50" height="50" relative="1" as="geometry">
                        <mxPoint x="126" y="741" as="sourcePoint"/>
                        <mxPoint x="686" y="741" as="targetPoint"/>
                    </mxGeometry>
                </mxCell>
                <mxCell id="csnIcFBk05dPJXtU28bG-109" value="0" style="endArrow=none;html=1;" edge="1" parent="csnIcFBk05dPJXtU28bG-1">
                    <mxGeometry width="50" height="50" relative="1" as="geometry">
                        <mxPoint x="126" y="781" as="sourcePoint"/>
                        <mxPoint x="126" y="741" as="targetPoint"/>
                    </mxGeometry>
                </mxCell>
                <mxCell id="csnIcFBk05dPJXtU28bG-110" value="" style="endArrow=none;html=1;" edge="1" parent="csnIcFBk05dPJXtU28bG-1">
                    <mxGeometry width="50" height="50" relative="1" as="geometry">
                        <mxPoint x="165" y="781" as="sourcePoint"/>
                        <mxPoint x="165" y="741" as="targetPoint"/>
                    </mxGeometry>
                </mxCell>
                <mxCell id="csnIcFBk05dPJXtU28bG-111" value="1" style="edgeLabel;html=1;align=center;verticalAlign=middle;resizable=0;points=[];" vertex="1" connectable="0" parent="csnIcFBk05dPJXtU28bG-110">
                    <mxGeometry x="0.2795" y="2" relative="1" as="geometry">
                        <mxPoint as="offset"/>
                    </mxGeometry>
                </mxCell>
                <mxCell id="csnIcFBk05dPJXtU28bG-112" value="" style="endArrow=none;html=1;" edge="1" parent="csnIcFBk05dPJXtU28bG-1">
                    <mxGeometry width="50" height="50" relative="1" as="geometry">
                        <mxPoint x="205" y="782" as="sourcePoint"/>
                        <mxPoint x="205" y="742" as="targetPoint"/>
                    </mxGeometry>
                </mxCell>
                <mxCell id="csnIcFBk05dPJXtU28bG-113" value="2" style="edgeLabel;html=1;align=center;verticalAlign=middle;resizable=0;points=[];" vertex="1" connectable="0" parent="csnIcFBk05dPJXtU28bG-112">
                    <mxGeometry x="0.0686" y="2" relative="1" as="geometry">
                        <mxPoint as="offset"/>
                    </mxGeometry>
                </mxCell>
                <mxCell id="csnIcFBk05dPJXtU28bG-114" value="3" style="endArrow=none;html=1;" edge="1" parent="csnIcFBk05dPJXtU28bG-1">
                    <mxGeometry width="50" height="50" relative="1" as="geometry">
                        <mxPoint x="245" y="782" as="sourcePoint"/>
                        <mxPoint x="245" y="742" as="targetPoint"/>
                    </mxGeometry>
                </mxCell>
                <mxCell id="csnIcFBk05dPJXtU28bG-115" value="" style="endArrow=none;html=1;" edge="1" parent="csnIcFBk05dPJXtU28bG-1">
                    <mxGeometry width="50" height="50" relative="1" as="geometry">
                        <mxPoint x="285" y="782" as="sourcePoint"/>
                        <mxPoint x="285" y="742" as="targetPoint"/>
                    </mxGeometry>
                </mxCell>
                <mxCell id="csnIcFBk05dPJXtU28bG-116" value="4" style="edgeLabel;html=1;align=center;verticalAlign=middle;resizable=0;points=[];" vertex="1" connectable="0" parent="csnIcFBk05dPJXtU28bG-115">
                    <mxGeometry x="0.2292" y="2" relative="1" as="geometry">
                        <mxPoint as="offset"/>
                    </mxGeometry>
                </mxCell>
                <mxCell id="csnIcFBk05dPJXtU28bG-117" value="5" style="endArrow=none;html=1;" edge="1" parent="csnIcFBk05dPJXtU28bG-1">
                    <mxGeometry width="50" height="50" relative="1" as="geometry">
                        <mxPoint x="324.0000000000001" y="782" as="sourcePoint"/>
                        <mxPoint x="324.0000000000001" y="742" as="targetPoint"/>
                    </mxGeometry>
                </mxCell>
                <mxCell id="csnIcFBk05dPJXtU28bG-118" value="" style="endArrow=none;html=1;" edge="1" parent="csnIcFBk05dPJXtU28bG-1">
                    <mxGeometry width="50" height="50" relative="1" as="geometry">
                        <mxPoint x="364" y="783" as="sourcePoint"/>
                        <mxPoint x="364" y="743" as="targetPoint"/>
                    </mxGeometry>
                </mxCell>
                <mxCell id="csnIcFBk05dPJXtU28bG-119" value="6" style="edgeLabel;html=1;align=center;verticalAlign=middle;resizable=0;points=[];" vertex="1" connectable="0" parent="csnIcFBk05dPJXtU28bG-118">
                    <mxGeometry x="0.0051" y="2" relative="1" as="geometry">
                        <mxPoint as="offset"/>
                    </mxGeometry>
                </mxCell>
                <mxCell id="csnIcFBk05dPJXtU28bG-120" value="" style="endArrow=none;html=1;" edge="1" parent="csnIcFBk05dPJXtU28bG-1">
                    <mxGeometry width="50" height="50" relative="1" as="geometry">
                        <mxPoint x="404" y="783" as="sourcePoint"/>
                        <mxPoint x="404" y="743" as="targetPoint"/>
                    </mxGeometry>
                </mxCell>
                <mxCell id="csnIcFBk05dPJXtU28bG-121" value="7" style="edgeLabel;html=1;align=center;verticalAlign=middle;resizable=0;points=[];" vertex="1" connectable="0" parent="csnIcFBk05dPJXtU28bG-120">
                    <mxGeometry x="0.2224" y="1" relative="1" as="geometry">
                        <mxPoint as="offset"/>
                    </mxGeometry>
                </mxCell>
                <mxCell id="csnIcFBk05dPJXtU28bG-122" value="8" style="endArrow=none;html=1;" edge="1" parent="csnIcFBk05dPJXtU28bG-1">
                    <mxGeometry width="50" height="50" relative="1" as="geometry">
                        <mxPoint x="444" y="783" as="sourcePoint"/>
                        <mxPoint x="444" y="743" as="targetPoint"/>
                    </mxGeometry>
                </mxCell>
                <mxCell id="csnIcFBk05dPJXtU28bG-123" value="" style="endArrow=none;html=1;" edge="1" parent="csnIcFBk05dPJXtU28bG-1">
                    <mxGeometry width="50" height="50" relative="1" as="geometry">
                        <mxPoint x="483" y="783" as="sourcePoint"/>
                        <mxPoint x="483" y="743" as="targetPoint"/>
                    </mxGeometry>
                </mxCell>
                <mxCell id="csnIcFBk05dPJXtU28bG-124" value="9" style="edgeLabel;html=1;align=center;verticalAlign=middle;resizable=0;points=[];" vertex="1" connectable="0" parent="csnIcFBk05dPJXtU28bG-123">
                    <mxGeometry x="-0.0384" relative="1" as="geometry">
                        <mxPoint as="offset"/>
                    </mxGeometry>
                </mxCell>
                <mxCell id="csnIcFBk05dPJXtU28bG-125" value="" style="endArrow=none;html=1;" edge="1" parent="csnIcFBk05dPJXtU28bG-1">
                    <mxGeometry width="50" height="50" relative="1" as="geometry">
                        <mxPoint x="523" y="784" as="sourcePoint"/>
                        <mxPoint x="523" y="744" as="targetPoint"/>
                    </mxGeometry>
                </mxCell>
                <mxCell id="csnIcFBk05dPJXtU28bG-126" value="10" style="edgeLabel;html=1;align=center;verticalAlign=middle;resizable=0;points=[];" vertex="1" connectable="0" parent="csnIcFBk05dPJXtU28bG-125">
                    <mxGeometry x="0.0551" relative="1" as="geometry">
                        <mxPoint as="offset"/>
                    </mxGeometry>
                </mxCell>
                <mxCell id="csnIcFBk05dPJXtU28bG-127" value="11" style="endArrow=none;html=1;" edge="1" parent="csnIcFBk05dPJXtU28bG-1">
                    <mxGeometry width="50" height="50" relative="1" as="geometry">
                        <mxPoint x="563" y="784" as="sourcePoint"/>
                        <mxPoint x="563" y="744" as="targetPoint"/>
                    </mxGeometry>
                </mxCell>
                <mxCell id="csnIcFBk05dPJXtU28bG-128" value="12" style="endArrow=none;html=1;" edge="1" parent="csnIcFBk05dPJXtU28bG-1">
                    <mxGeometry x="-0.6794" width="50" height="50" relative="1" as="geometry">
                        <mxPoint x="606" y="782" as="sourcePoint"/>
                        <mxPoint x="606" y="650.9999999999999" as="targetPoint"/>
                        <mxPoint as="offset"/>
                    </mxGeometry>
                </mxCell>
                <mxCell id="csnIcFBk05dPJXtU28bG-129" value="Target" style="edgeLabel;html=1;align=center;verticalAlign=middle;resizable=0;points=[];" vertex="1" connectable="0" parent="csnIcFBk05dPJXtU28bG-128">
                    <mxGeometry x="0.7346" relative="1" as="geometry">
                        <mxPoint as="offset"/>
                    </mxGeometry>
                </mxCell>
                <mxCell id="csnIcFBk05dPJXtU28bG-130" value="4" style="rounded=0;whiteSpace=wrap;html=1;fillColor=#d5e8d4;strokeColor=#82b366;" vertex="1" parent="csnIcFBk05dPJXtU28bG-1">
                    <mxGeometry x="526" y="701" width="30" height="20" as="geometry"/>
                </mxCell>
                <mxCell id="csnIcFBk05dPJXtU28bG-131" value="2" style="rounded=0;whiteSpace=wrap;html=1;fillColor=#e1d5e7;strokeColor=#9673a6;" vertex="1" parent="csnIcFBk05dPJXtU28bG-1">
                    <mxGeometry x="526" y="721" width="30" height="20" as="geometry"/>
                </mxCell>
                <mxCell id="csnIcFBk05dPJXtU28bG-132" value="" style="triangle;whiteSpace=wrap;html=1;fillColor=#60a917;fontColor=#ffffff;strokeColor=#2D7600;" vertex="1" parent="csnIcFBk05dPJXtU28bG-1">
                    <mxGeometry x="606" y="631" width="60" height="30" as="geometry"/>
                </mxCell>
                <mxCell id="csnIcFBk05dPJXtU28bG-136" style="edgeStyle=none;html=1;" edge="1" parent="csnIcFBk05dPJXtU28bG-1" source="csnIcFBk05dPJXtU28bG-135" target="csnIcFBk05dPJXtU28bG-100">
                    <mxGeometry relative="1" as="geometry"/>
                </mxCell>
                <mxCell id="csnIcFBk05dPJXtU28bG-137" style="edgeStyle=none;html=1;entryX=0.5;entryY=0;entryDx=0;entryDy=0;" edge="1" parent="csnIcFBk05dPJXtU28bG-1" source="csnIcFBk05dPJXtU28bG-135" target="csnIcFBk05dPJXtU28bG-130">
                    <mxGeometry relative="1" as="geometry"/>
                </mxCell>
                <mxCell id="csnIcFBk05dPJXtU28bG-135" value="Do they make a fleet : No" style="text;html=1;strokeColor=#b85450;fillColor=#f8cecc;align=center;verticalAlign=middle;whiteSpace=wrap;rounded=0;" vertex="1" parent="csnIcFBk05dPJXtU28bG-1">
                    <mxGeometry x="414" y="620" width="137" height="30" as="geometry"/>
                </mxCell>
                <mxCell id="csnIcFBk05dPJXtU28bG-138" value="slow" style="text;html=1;strokeColor=#9673a6;fillColor=#e1d5e7;align=center;verticalAlign=middle;whiteSpace=wrap;rounded=0;" vertex="1" parent="csnIcFBk05dPJXtU28bG-1">
                    <mxGeometry x="545" y="530" width="35" height="30" as="geometry"/>
                </mxCell>
                <mxCell id="csnIcFBk05dPJXtU28bG-140" value="fast" style="text;html=1;strokeColor=#82b366;fillColor=#d5e8d4;align=center;verticalAlign=middle;whiteSpace=wrap;rounded=0;" vertex="1" parent="csnIcFBk05dPJXtU28bG-1">
                    <mxGeometry x="388" y="522" width="35" height="30" as="geometry"/>
                </mxCell>
                <mxCell id="csnIcFBk05dPJXtU28bG-142" value="" style="rounded=0;whiteSpace=wrap;html=1;" vertex="1" parent="csnIcFBk05dPJXtU28bG-1">
                    <mxGeometry x="720" y="477" width="70" height="93" as="geometry"/>
                </mxCell>
                <mxCell id="csnIcFBk05dPJXtU28bG-143" value="1" style="rounded=0;whiteSpace=wrap;html=1;fillColor=#e1d5e7;strokeColor=#9673a6;" vertex="1" parent="csnIcFBk05dPJXtU28bG-1">
                    <mxGeometry x="725" y="538" width="60" height="27" as="geometry"/>
                </mxCell>
                <mxCell id="csnIcFBk05dPJXtU28bG-144" value="1" style="rounded=0;whiteSpace=wrap;html=1;fillColor=#d5e8d4;strokeColor=#82b366;" vertex="1" parent="csnIcFBk05dPJXtU28bG-1">
                    <mxGeometry x="725" y="506" width="60" height="27" as="geometry"/>
                </mxCell>
                <mxCell id="csnIcFBk05dPJXtU28bG-148" value="" style="rounded=0;whiteSpace=wrap;html=1;" vertex="1" parent="csnIcFBk05dPJXtU28bG-1">
                    <mxGeometry x="804" y="477" width="70" height="93" as="geometry"/>
                </mxCell>
                <mxCell id="csnIcFBk05dPJXtU28bG-149" value="2" style="rounded=0;whiteSpace=wrap;html=1;fillColor=#e1d5e7;strokeColor=#9673a6;" vertex="1" parent="csnIcFBk05dPJXtU28bG-1">
                    <mxGeometry x="809" y="538" width="60" height="27" as="geometry"/>
                </mxCell>
                <mxCell id="csnIcFBk05dPJXtU28bG-150" value="1" style="rounded=0;whiteSpace=wrap;html=1;fillColor=#d5e8d4;strokeColor=#82b366;" vertex="1" parent="csnIcFBk05dPJXtU28bG-1">
                    <mxGeometry x="809" y="538" width="41" height="27" as="geometry"/>
                </mxCell>
                <mxCell id="csnIcFBk05dPJXtU28bG-151" value="" style="rounded=0;whiteSpace=wrap;html=1;" vertex="1" parent="csnIcFBk05dPJXtU28bG-1">
                    <mxGeometry x="720" y="650" width="70" height="93" as="geometry"/>
                </mxCell>
                <mxCell id="csnIcFBk05dPJXtU28bG-152" value="2" style="rounded=0;whiteSpace=wrap;html=1;fillColor=#e1d5e7;strokeColor=#9673a6;" vertex="1" parent="csnIcFBk05dPJXtU28bG-1">
                    <mxGeometry x="725" y="711" width="60" height="27" as="geometry"/>
                </mxCell>
                <mxCell id="csnIcFBk05dPJXtU28bG-153" value="2" style="rounded=0;whiteSpace=wrap;html=1;fillColor=#d5e8d4;strokeColor=#82b366;" vertex="1" parent="csnIcFBk05dPJXtU28bG-1">
                    <mxGeometry x="725" y="711" width="41" height="27" as="geometry"/>
                </mxCell>
                <mxCell id="csnIcFBk05dPJXtU28bG-154" value="1" style="rounded=0;whiteSpace=wrap;html=1;fillColor=#dae8fc;strokeColor=#6c8ebf;" vertex="1" parent="csnIcFBk05dPJXtU28bG-1">
                    <mxGeometry x="725" y="681" width="55" height="20" as="geometry"/>
                </mxCell>
                <mxCell id="csnIcFBk05dPJXtU28bG-155" value="Stack" style="rounded=0;whiteSpace=wrap;html=1;" vertex="1" parent="csnIcFBk05dPJXtU28bG-1">
                    <mxGeometry x="750" y="317" width="70" height="93" as="geometry"/>
                </mxCell>
                <mxCell id="csnIcFBk05dPJXtU28bG-156" value="Text" style="text;html=1;strokeColor=none;fillColor=none;align=center;verticalAlign=middle;whiteSpace=wrap;rounded=0;" vertex="1" parent="csnIcFBk05dPJXtU28bG-1">
                    <mxGeometry x="450" y="390" width="60" height="30" as="geometry"/>
                </mxCell>
                <mxCell id="csnIcFBk05dPJXtU28bG-158" value="Time needed by Car" style="rounded=0;whiteSpace=wrap;html=1;" vertex="1" parent="csnIcFBk05dPJXtU28bG-1">
                    <mxGeometry x="758" y="360" width="54" height="39.5" as="geometry"/>
                </mxCell>
                <mxCell id="csnIcFBk05dPJXtU28bG-159" value="Stack" style="text;html=1;strokeColor=none;fillColor=none;align=center;verticalAlign=middle;whiteSpace=wrap;rounded=0;" vertex="1" parent="csnIcFBk05dPJXtU28bG-1">
                    <mxGeometry x="749" y="410" width="60" height="30" as="geometry"/>
                </mxCell>
                <mxCell id="csnIcFBk05dPJXtU28bG-161" value="1" style="rounded=0;whiteSpace=wrap;html=1;fillColor=#dae8fc;strokeColor=#6c8ebf;" vertex="1" parent="csnIcFBk05dPJXtU28bG-1">
                    <mxGeometry x="500" y="933" width="30" height="20" as="geometry"/>
                </mxCell>
                <mxCell id="csnIcFBk05dPJXtU28bG-162" value="" style="endArrow=classic;html=1;" edge="1" parent="csnIcFBk05dPJXtU28bG-1">
                    <mxGeometry width="50" height="50" relative="1" as="geometry">
                        <mxPoint x="140" y="951" as="sourcePoint"/>
                        <mxPoint x="700" y="951" as="targetPoint"/>
                    </mxGeometry>
                </mxCell>
                <mxCell id="csnIcFBk05dPJXtU28bG-163" value="0" style="endArrow=none;html=1;" edge="1" parent="csnIcFBk05dPJXtU28bG-1">
                    <mxGeometry width="50" height="50" relative="1" as="geometry">
                        <mxPoint x="140" y="991" as="sourcePoint"/>
                        <mxPoint x="140" y="951" as="targetPoint"/>
                    </mxGeometry>
                </mxCell>
                <mxCell id="csnIcFBk05dPJXtU28bG-164" value="" style="endArrow=none;html=1;" edge="1" parent="csnIcFBk05dPJXtU28bG-1">
                    <mxGeometry width="50" height="50" relative="1" as="geometry">
                        <mxPoint x="179" y="991" as="sourcePoint"/>
                        <mxPoint x="179" y="951" as="targetPoint"/>
                    </mxGeometry>
                </mxCell>
                <mxCell id="csnIcFBk05dPJXtU28bG-165" value="1" style="edgeLabel;html=1;align=center;verticalAlign=middle;resizable=0;points=[];" vertex="1" connectable="0" parent="csnIcFBk05dPJXtU28bG-164">
                    <mxGeometry x="0.2795" y="2" relative="1" as="geometry">
                        <mxPoint as="offset"/>
                    </mxGeometry>
                </mxCell>
                <mxCell id="csnIcFBk05dPJXtU28bG-166" value="" style="endArrow=none;html=1;" edge="1" parent="csnIcFBk05dPJXtU28bG-1">
                    <mxGeometry width="50" height="50" relative="1" as="geometry">
                        <mxPoint x="219" y="992" as="sourcePoint"/>
                        <mxPoint x="219" y="952" as="targetPoint"/>
                    </mxGeometry>
                </mxCell>
                <mxCell id="csnIcFBk05dPJXtU28bG-167" value="2" style="edgeLabel;html=1;align=center;verticalAlign=middle;resizable=0;points=[];" vertex="1" connectable="0" parent="csnIcFBk05dPJXtU28bG-166">
                    <mxGeometry x="0.0686" y="2" relative="1" as="geometry">
                        <mxPoint as="offset"/>
                    </mxGeometry>
                </mxCell>
                <mxCell id="csnIcFBk05dPJXtU28bG-168" value="3" style="endArrow=none;html=1;" edge="1" parent="csnIcFBk05dPJXtU28bG-1">
                    <mxGeometry width="50" height="50" relative="1" as="geometry">
                        <mxPoint x="259" y="992" as="sourcePoint"/>
                        <mxPoint x="259" y="952" as="targetPoint"/>
                    </mxGeometry>
                </mxCell>
                <mxCell id="csnIcFBk05dPJXtU28bG-169" value="" style="endArrow=none;html=1;" edge="1" parent="csnIcFBk05dPJXtU28bG-1">
                    <mxGeometry width="50" height="50" relative="1" as="geometry">
                        <mxPoint x="299" y="992" as="sourcePoint"/>
                        <mxPoint x="299" y="952" as="targetPoint"/>
                    </mxGeometry>
                </mxCell>
                <mxCell id="csnIcFBk05dPJXtU28bG-170" value="4" style="edgeLabel;html=1;align=center;verticalAlign=middle;resizable=0;points=[];" vertex="1" connectable="0" parent="csnIcFBk05dPJXtU28bG-169">
                    <mxGeometry x="0.2292" y="2" relative="1" as="geometry">
                        <mxPoint as="offset"/>
                    </mxGeometry>
                </mxCell>
                <mxCell id="csnIcFBk05dPJXtU28bG-171" value="5" style="endArrow=none;html=1;" edge="1" parent="csnIcFBk05dPJXtU28bG-1">
                    <mxGeometry width="50" height="50" relative="1" as="geometry">
                        <mxPoint x="338" y="992" as="sourcePoint"/>
                        <mxPoint x="338" y="952" as="targetPoint"/>
                    </mxGeometry>
                </mxCell>
                <mxCell id="csnIcFBk05dPJXtU28bG-172" value="" style="endArrow=none;html=1;" edge="1" parent="csnIcFBk05dPJXtU28bG-1">
                    <mxGeometry width="50" height="50" relative="1" as="geometry">
                        <mxPoint x="378" y="993" as="sourcePoint"/>
                        <mxPoint x="378" y="953" as="targetPoint"/>
                    </mxGeometry>
                </mxCell>
                <mxCell id="csnIcFBk05dPJXtU28bG-173" value="6" style="edgeLabel;html=1;align=center;verticalAlign=middle;resizable=0;points=[];" vertex="1" connectable="0" parent="csnIcFBk05dPJXtU28bG-172">
                    <mxGeometry x="0.0051" y="2" relative="1" as="geometry">
                        <mxPoint as="offset"/>
                    </mxGeometry>
                </mxCell>
                <mxCell id="csnIcFBk05dPJXtU28bG-174" value="" style="endArrow=none;html=1;" edge="1" parent="csnIcFBk05dPJXtU28bG-1">
                    <mxGeometry width="50" height="50" relative="1" as="geometry">
                        <mxPoint x="418" y="993" as="sourcePoint"/>
                        <mxPoint x="418" y="953" as="targetPoint"/>
                    </mxGeometry>
                </mxCell>
                <mxCell id="csnIcFBk05dPJXtU28bG-175" value="7" style="edgeLabel;html=1;align=center;verticalAlign=middle;resizable=0;points=[];" vertex="1" connectable="0" parent="csnIcFBk05dPJXtU28bG-174">
                    <mxGeometry x="0.2224" y="1" relative="1" as="geometry">
                        <mxPoint as="offset"/>
                    </mxGeometry>
                </mxCell>
                <mxCell id="csnIcFBk05dPJXtU28bG-176" value="8" style="endArrow=none;html=1;" edge="1" parent="csnIcFBk05dPJXtU28bG-1">
                    <mxGeometry width="50" height="50" relative="1" as="geometry">
                        <mxPoint x="458" y="993" as="sourcePoint"/>
                        <mxPoint x="458" y="953" as="targetPoint"/>
                    </mxGeometry>
                </mxCell>
                <mxCell id="csnIcFBk05dPJXtU28bG-177" value="" style="endArrow=none;html=1;" edge="1" parent="csnIcFBk05dPJXtU28bG-1">
                    <mxGeometry width="50" height="50" relative="1" as="geometry">
                        <mxPoint x="497" y="993" as="sourcePoint"/>
                        <mxPoint x="497" y="953" as="targetPoint"/>
                    </mxGeometry>
                </mxCell>
                <mxCell id="csnIcFBk05dPJXtU28bG-178" value="9" style="edgeLabel;html=1;align=center;verticalAlign=middle;resizable=0;points=[];" vertex="1" connectable="0" parent="csnIcFBk05dPJXtU28bG-177">
                    <mxGeometry x="-0.0384" relative="1" as="geometry">
                        <mxPoint as="offset"/>
                    </mxGeometry>
                </mxCell>
                <mxCell id="csnIcFBk05dPJXtU28bG-179" value="" style="endArrow=none;html=1;" edge="1" parent="csnIcFBk05dPJXtU28bG-1">
                    <mxGeometry width="50" height="50" relative="1" as="geometry">
                        <mxPoint x="537" y="994" as="sourcePoint"/>
                        <mxPoint x="537" y="954" as="targetPoint"/>
                    </mxGeometry>
                </mxCell>
                <mxCell id="csnIcFBk05dPJXtU28bG-180" value="10" style="edgeLabel;html=1;align=center;verticalAlign=middle;resizable=0;points=[];" vertex="1" connectable="0" parent="csnIcFBk05dPJXtU28bG-179">
                    <mxGeometry x="0.0551" relative="1" as="geometry">
                        <mxPoint as="offset"/>
                    </mxGeometry>
                </mxCell>
                <mxCell id="csnIcFBk05dPJXtU28bG-181" value="11" style="endArrow=none;html=1;" edge="1" parent="csnIcFBk05dPJXtU28bG-1">
                    <mxGeometry width="50" height="50" relative="1" as="geometry">
                        <mxPoint x="577" y="994" as="sourcePoint"/>
                        <mxPoint x="577" y="954" as="targetPoint"/>
                    </mxGeometry>
                </mxCell>
                <mxCell id="csnIcFBk05dPJXtU28bG-182" value="12" style="endArrow=none;html=1;" edge="1" parent="csnIcFBk05dPJXtU28bG-1">
                    <mxGeometry x="-0.6794" width="50" height="50" relative="1" as="geometry">
                        <mxPoint x="620" y="992" as="sourcePoint"/>
                        <mxPoint x="620" y="861" as="targetPoint"/>
                        <mxPoint as="offset"/>
                    </mxGeometry>
                </mxCell>
                <mxCell id="csnIcFBk05dPJXtU28bG-183" value="Target" style="edgeLabel;html=1;align=center;verticalAlign=middle;resizable=0;points=[];" vertex="1" connectable="0" parent="csnIcFBk05dPJXtU28bG-182">
                    <mxGeometry x="0.7346" relative="1" as="geometry">
                        <mxPoint as="offset"/>
                    </mxGeometry>
                </mxCell>
                <mxCell id="csnIcFBk05dPJXtU28bG-186" value="" style="triangle;whiteSpace=wrap;html=1;fillColor=#60a917;fontColor=#ffffff;strokeColor=#2D7600;" vertex="1" parent="csnIcFBk05dPJXtU28bG-1">
                    <mxGeometry x="620" y="841" width="60" height="30" as="geometry"/>
                </mxCell>
                <mxCell id="csnIcFBk05dPJXtU28bG-187" style="edgeStyle=none;html=1;" edge="1" parent="csnIcFBk05dPJXtU28bG-1" source="csnIcFBk05dPJXtU28bG-189">
                    <mxGeometry relative="1" as="geometry">
                        <mxPoint x="420" y="930" as="targetPoint"/>
                    </mxGeometry>
                </mxCell>
                <mxCell id="csnIcFBk05dPJXtU28bG-188" style="edgeStyle=none;html=1;" edge="1" parent="csnIcFBk05dPJXtU28bG-1" source="csnIcFBk05dPJXtU28bG-189">
                    <mxGeometry relative="1" as="geometry">
                        <mxPoint x="510" y="930" as="targetPoint"/>
                    </mxGeometry>
                </mxCell>
                <mxCell id="csnIcFBk05dPJXtU28bG-189" value="Do they make a fleet : Yes" style="text;html=1;strokeColor=#b85450;fillColor=#f8cecc;align=center;verticalAlign=middle;whiteSpace=wrap;rounded=0;" vertex="1" parent="csnIcFBk05dPJXtU28bG-1">
                    <mxGeometry x="428" y="830" width="137" height="30" as="geometry"/>
                </mxCell>
                <mxCell id="csnIcFBk05dPJXtU28bG-190" value="" style="rounded=0;whiteSpace=wrap;html=1;" vertex="1" parent="csnIcFBk05dPJXtU28bG-1">
                    <mxGeometry x="734" y="860" width="70" height="93" as="geometry"/>
                </mxCell>
                <mxCell id="csnIcFBk05dPJXtU28bG-191" value="2" style="rounded=0;whiteSpace=wrap;html=1;fillColor=#e1d5e7;strokeColor=#9673a6;" vertex="1" parent="csnIcFBk05dPJXtU28bG-1">
                    <mxGeometry x="739" y="921" width="60" height="27" as="geometry"/>
                </mxCell>
                <mxCell id="csnIcFBk05dPJXtU28bG-192" value="2" style="rounded=0;whiteSpace=wrap;html=1;fillColor=#d5e8d4;strokeColor=#82b366;" vertex="1" parent="csnIcFBk05dPJXtU28bG-1">
                    <mxGeometry x="739" y="921" width="41" height="27" as="geometry"/>
                </mxCell>
                <mxCell id="csnIcFBk05dPJXtU28bG-194" value="3" style="rounded=0;whiteSpace=wrap;html=1;fillColor=#f8cecc;strokeColor=#b85450;" vertex="1" parent="csnIcFBk05dPJXtU28bG-1">
                    <mxGeometry x="400" y="930" width="30" height="23" as="geometry"/>
                </mxCell>
                <mxCell id="csnIcFBk05dPJXtU28bG-195" value="" style="rounded=0;whiteSpace=wrap;html=1;fillColor=#f8cecc;strokeColor=#b85450;" vertex="1" parent="csnIcFBk05dPJXtU28bG-1">
                    <mxGeometry x="774" y="889.5" width="30" height="23" as="geometry"/>
                </mxCell>
                <mxCell id="csnIcFBk05dPJXtU28bG-193" value="1" style="rounded=0;whiteSpace=wrap;html=1;fillColor=#dae8fc;strokeColor=#6c8ebf;" vertex="1" parent="csnIcFBk05dPJXtU28bG-1">
                    <mxGeometry x="739" y="890" width="41" height="20" as="geometry"/>
                </mxCell>
                <mxCell id="csnIcFBk05dPJXtU28bG-196" value="1" style="rounded=0;whiteSpace=wrap;html=1;fillColor=#dae8fc;strokeColor=#6c8ebf;" vertex="1" parent="csnIcFBk05dPJXtU28bG-1">
                    <mxGeometry x="499" y="1183" width="30" height="20" as="geometry"/>
                </mxCell>
                <mxCell id="csnIcFBk05dPJXtU28bG-197" value="" style="endArrow=classic;html=1;" edge="1" parent="csnIcFBk05dPJXtU28bG-1">
                    <mxGeometry width="50" height="50" relative="1" as="geometry">
                        <mxPoint x="139" y="1201" as="sourcePoint"/>
                        <mxPoint x="699" y="1201" as="targetPoint"/>
                    </mxGeometry>
                </mxCell>
                <mxCell id="csnIcFBk05dPJXtU28bG-198" value="0" style="endArrow=none;html=1;" edge="1" parent="csnIcFBk05dPJXtU28bG-1">
                    <mxGeometry width="50" height="50" relative="1" as="geometry">
                        <mxPoint x="139" y="1241" as="sourcePoint"/>
                        <mxPoint x="139" y="1201" as="targetPoint"/>
                    </mxGeometry>
                </mxCell>
                <mxCell id="csnIcFBk05dPJXtU28bG-199" value="" style="endArrow=none;html=1;" edge="1" parent="csnIcFBk05dPJXtU28bG-1">
                    <mxGeometry width="50" height="50" relative="1" as="geometry">
                        <mxPoint x="178" y="1241" as="sourcePoint"/>
                        <mxPoint x="178" y="1201" as="targetPoint"/>
                    </mxGeometry>
                </mxCell>
                <mxCell id="csnIcFBk05dPJXtU28bG-200" value="1" style="edgeLabel;html=1;align=center;verticalAlign=middle;resizable=0;points=[];" vertex="1" connectable="0" parent="csnIcFBk05dPJXtU28bG-199">
                    <mxGeometry x="0.2795" y="2" relative="1" as="geometry">
                        <mxPoint as="offset"/>
                    </mxGeometry>
                </mxCell>
                <mxCell id="csnIcFBk05dPJXtU28bG-201" value="" style="endArrow=none;html=1;" edge="1" parent="csnIcFBk05dPJXtU28bG-1">
                    <mxGeometry width="50" height="50" relative="1" as="geometry">
                        <mxPoint x="218" y="1241.9999999999998" as="sourcePoint"/>
                        <mxPoint x="218" y="1202.0000000000002" as="targetPoint"/>
                    </mxGeometry>
                </mxCell>
                <mxCell id="csnIcFBk05dPJXtU28bG-202" value="2" style="edgeLabel;html=1;align=center;verticalAlign=middle;resizable=0;points=[];" vertex="1" connectable="0" parent="csnIcFBk05dPJXtU28bG-201">
                    <mxGeometry x="0.0686" y="2" relative="1" as="geometry">
                        <mxPoint as="offset"/>
                    </mxGeometry>
                </mxCell>
                <mxCell id="csnIcFBk05dPJXtU28bG-203" value="3" style="endArrow=none;html=1;" edge="1" parent="csnIcFBk05dPJXtU28bG-1">
                    <mxGeometry width="50" height="50" relative="1" as="geometry">
                        <mxPoint x="258" y="1241.9999999999998" as="sourcePoint"/>
                        <mxPoint x="258" y="1202.0000000000002" as="targetPoint"/>
                    </mxGeometry>
                </mxCell>
                <mxCell id="csnIcFBk05dPJXtU28bG-204" value="" style="endArrow=none;html=1;" edge="1" parent="csnIcFBk05dPJXtU28bG-1">
                    <mxGeometry width="50" height="50" relative="1" as="geometry">
                        <mxPoint x="298" y="1241.9999999999998" as="sourcePoint"/>
                        <mxPoint x="298" y="1202.0000000000002" as="targetPoint"/>
                    </mxGeometry>
                </mxCell>
                <mxCell id="csnIcFBk05dPJXtU28bG-205" value="4" style="edgeLabel;html=1;align=center;verticalAlign=middle;resizable=0;points=[];" vertex="1" connectable="0" parent="csnIcFBk05dPJXtU28bG-204">
                    <mxGeometry x="0.2292" y="2" relative="1" as="geometry">
                        <mxPoint as="offset"/>
                    </mxGeometry>
                </mxCell>
                <mxCell id="csnIcFBk05dPJXtU28bG-206" value="5" style="endArrow=none;html=1;" edge="1" parent="csnIcFBk05dPJXtU28bG-1">
                    <mxGeometry width="50" height="50" relative="1" as="geometry">
                        <mxPoint x="337" y="1241.9999999999998" as="sourcePoint"/>
                        <mxPoint x="337" y="1202.0000000000002" as="targetPoint"/>
                    </mxGeometry>
                </mxCell>
                <mxCell id="csnIcFBk05dPJXtU28bG-207" value="" style="endArrow=none;html=1;" edge="1" parent="csnIcFBk05dPJXtU28bG-1">
                    <mxGeometry width="50" height="50" relative="1" as="geometry">
                        <mxPoint x="377" y="1243" as="sourcePoint"/>
                        <mxPoint x="377" y="1203" as="targetPoint"/>
                    </mxGeometry>
                </mxCell>
                <mxCell id="csnIcFBk05dPJXtU28bG-208" value="6" style="edgeLabel;html=1;align=center;verticalAlign=middle;resizable=0;points=[];" vertex="1" connectable="0" parent="csnIcFBk05dPJXtU28bG-207">
                    <mxGeometry x="0.0051" y="2" relative="1" as="geometry">
                        <mxPoint as="offset"/>
                    </mxGeometry>
                </mxCell>
                <mxCell id="csnIcFBk05dPJXtU28bG-209" value="" style="endArrow=none;html=1;" edge="1" parent="csnIcFBk05dPJXtU28bG-1">
                    <mxGeometry width="50" height="50" relative="1" as="geometry">
                        <mxPoint x="417" y="1243" as="sourcePoint"/>
                        <mxPoint x="417" y="1203" as="targetPoint"/>
                    </mxGeometry>
                </mxCell>
                <mxCell id="csnIcFBk05dPJXtU28bG-210" value="7" style="edgeLabel;html=1;align=center;verticalAlign=middle;resizable=0;points=[];" vertex="1" connectable="0" parent="csnIcFBk05dPJXtU28bG-209">
                    <mxGeometry x="0.2224" y="1" relative="1" as="geometry">
                        <mxPoint as="offset"/>
                    </mxGeometry>
                </mxCell>
                <mxCell id="csnIcFBk05dPJXtU28bG-211" value="8" style="endArrow=none;html=1;" edge="1" parent="csnIcFBk05dPJXtU28bG-1">
                    <mxGeometry width="50" height="50" relative="1" as="geometry">
                        <mxPoint x="457" y="1243" as="sourcePoint"/>
                        <mxPoint x="457" y="1203" as="targetPoint"/>
                    </mxGeometry>
                </mxCell>
                <mxCell id="csnIcFBk05dPJXtU28bG-212" value="" style="endArrow=none;html=1;" edge="1" parent="csnIcFBk05dPJXtU28bG-1">
                    <mxGeometry width="50" height="50" relative="1" as="geometry">
                        <mxPoint x="496" y="1243" as="sourcePoint"/>
                        <mxPoint x="496" y="1203" as="targetPoint"/>
                    </mxGeometry>
                </mxCell>
                <mxCell id="csnIcFBk05dPJXtU28bG-213" value="9" style="edgeLabel;html=1;align=center;verticalAlign=middle;resizable=0;points=[];" vertex="1" connectable="0" parent="csnIcFBk05dPJXtU28bG-212">
                    <mxGeometry x="-0.0384" relative="1" as="geometry">
                        <mxPoint as="offset"/>
                    </mxGeometry>
                </mxCell>
                <mxCell id="csnIcFBk05dPJXtU28bG-214" value="" style="endArrow=none;html=1;" edge="1" parent="csnIcFBk05dPJXtU28bG-1">
                    <mxGeometry width="50" height="50" relative="1" as="geometry">
                        <mxPoint x="536" y="1244" as="sourcePoint"/>
                        <mxPoint x="536" y="1204" as="targetPoint"/>
                    </mxGeometry>
                </mxCell>
                <mxCell id="csnIcFBk05dPJXtU28bG-215" value="10" style="edgeLabel;html=1;align=center;verticalAlign=middle;resizable=0;points=[];" vertex="1" connectable="0" parent="csnIcFBk05dPJXtU28bG-214">
                    <mxGeometry x="0.0551" relative="1" as="geometry">
                        <mxPoint as="offset"/>
                    </mxGeometry>
                </mxCell>
                <mxCell id="csnIcFBk05dPJXtU28bG-216" value="11" style="endArrow=none;html=1;" edge="1" parent="csnIcFBk05dPJXtU28bG-1">
                    <mxGeometry width="50" height="50" relative="1" as="geometry">
                        <mxPoint x="576" y="1244" as="sourcePoint"/>
                        <mxPoint x="576" y="1204" as="targetPoint"/>
                    </mxGeometry>
                </mxCell>
                <mxCell id="csnIcFBk05dPJXtU28bG-217" value="12" style="endArrow=none;html=1;" edge="1" parent="csnIcFBk05dPJXtU28bG-1">
                    <mxGeometry x="-0.6794" width="50" height="50" relative="1" as="geometry">
                        <mxPoint x="619" y="1241.9999999999998" as="sourcePoint"/>
                        <mxPoint x="619" y="1111" as="targetPoint"/>
                        <mxPoint as="offset"/>
                    </mxGeometry>
                </mxCell>
                <mxCell id="csnIcFBk05dPJXtU28bG-218" value="Target" style="edgeLabel;html=1;align=center;verticalAlign=middle;resizable=0;points=[];" vertex="1" connectable="0" parent="csnIcFBk05dPJXtU28bG-217">
                    <mxGeometry x="0.7346" relative="1" as="geometry">
                        <mxPoint as="offset"/>
                    </mxGeometry>
                </mxCell>
                <mxCell id="csnIcFBk05dPJXtU28bG-219" value="" style="triangle;whiteSpace=wrap;html=1;fillColor=#60a917;fontColor=#ffffff;strokeColor=#2D7600;" vertex="1" parent="csnIcFBk05dPJXtU28bG-1">
                    <mxGeometry x="619" y="1091" width="60" height="30" as="geometry"/>
                </mxCell>
                <mxCell id="csnIcFBk05dPJXtU28bG-220" style="edgeStyle=none;html=1;entryX=0.5;entryY=0;entryDx=0;entryDy=0;" edge="1" parent="csnIcFBk05dPJXtU28bG-1" source="csnIcFBk05dPJXtU28bG-222" target="csnIcFBk05dPJXtU28bG-230">
                    <mxGeometry relative="1" as="geometry">
                        <mxPoint x="310" y="1170" as="targetPoint"/>
                    </mxGeometry>
                </mxCell>
                <mxCell id="csnIcFBk05dPJXtU28bG-221" style="edgeStyle=none;html=1;" edge="1" parent="csnIcFBk05dPJXtU28bG-1" source="csnIcFBk05dPJXtU28bG-222">
                    <mxGeometry relative="1" as="geometry">
                        <mxPoint x="509" y="1180" as="targetPoint"/>
                    </mxGeometry>
                </mxCell>
                <mxCell id="csnIcFBk05dPJXtU28bG-222" value="Do they make a fleet : No" style="text;html=1;strokeColor=#b85450;fillColor=#f8cecc;align=center;verticalAlign=middle;whiteSpace=wrap;rounded=0;" vertex="1" parent="csnIcFBk05dPJXtU28bG-1">
                    <mxGeometry x="427" y="1080" width="137" height="30" as="geometry"/>
                </mxCell>
                <mxCell id="csnIcFBk05dPJXtU28bG-223" value="" style="rounded=0;whiteSpace=wrap;html=1;" vertex="1" parent="csnIcFBk05dPJXtU28bG-1">
                    <mxGeometry x="733" y="1110" width="70" height="93" as="geometry"/>
                </mxCell>
                <mxCell id="csnIcFBk05dPJXtU28bG-224" value="2" style="rounded=0;whiteSpace=wrap;html=1;fillColor=#e1d5e7;strokeColor=#9673a6;" vertex="1" parent="csnIcFBk05dPJXtU28bG-1">
                    <mxGeometry x="738" y="1171" width="60" height="27" as="geometry"/>
                </mxCell>
                <mxCell id="csnIcFBk05dPJXtU28bG-225" value="2" style="rounded=0;whiteSpace=wrap;html=1;fillColor=#d5e8d4;strokeColor=#82b366;" vertex="1" parent="csnIcFBk05dPJXtU28bG-1">
                    <mxGeometry x="738" y="1171" width="41" height="27" as="geometry"/>
                </mxCell>
                <mxCell id="csnIcFBk05dPJXtU28bG-226" value="3" style="rounded=0;whiteSpace=wrap;html=1;fillColor=#f8cecc;strokeColor=#b85450;" vertex="1" parent="csnIcFBk05dPJXtU28bG-1">
                    <mxGeometry x="499" y="1160" width="30" height="23" as="geometry"/>
                </mxCell>
                <mxCell id="csnIcFBk05dPJXtU28bG-227" value="" style="rounded=0;whiteSpace=wrap;html=1;fillColor=#f8cecc;strokeColor=#b85450;" vertex="1" parent="csnIcFBk05dPJXtU28bG-1">
                    <mxGeometry x="773" y="1139.5" width="30" height="23" as="geometry"/>
                </mxCell>
                <mxCell id="csnIcFBk05dPJXtU28bG-228" value="1" style="rounded=0;whiteSpace=wrap;html=1;fillColor=#dae8fc;strokeColor=#6c8ebf;" vertex="1" parent="csnIcFBk05dPJXtU28bG-1">
                    <mxGeometry x="738" y="1140" width="41" height="20" as="geometry"/>
                </mxCell>
                <mxCell id="csnIcFBk05dPJXtU28bG-229" value="1" style="rounded=0;whiteSpace=wrap;html=1;fillColor=#ffe6cc;strokeColor=#d79b00;" vertex="1" parent="csnIcFBk05dPJXtU28bG-1">
                    <mxGeometry x="280" y="2040" width="30" height="20" as="geometry"/>
                </mxCell>
                <mxCell id="csnIcFBk05dPJXtU28bG-230" value="1" style="rounded=0;whiteSpace=wrap;html=1;fillColor=#ffe6cc;strokeColor=#d79b00;" vertex="1" parent="csnIcFBk05dPJXtU28bG-1">
                    <mxGeometry x="290" y="1179" width="30" height="20" as="geometry"/>
                </mxCell>
                <mxCell id="csnIcFBk05dPJXtU28bG-233" value="12" style="rounded=0;whiteSpace=wrap;html=1;fillColor=#ffe6cc;strokeColor=#d79b00;" vertex="1" parent="csnIcFBk05dPJXtU28bG-1">
                    <mxGeometry x="740" y="1110" width="60" height="20" as="geometry"/>
                </mxCell>
                <mxCell id="csnIcFBk05dPJXtU28bG-234" value="3 Fleets" style="text;html=1;strokeColor=none;fillColor=none;align=center;verticalAlign=middle;whiteSpace=wrap;rounded=0;" vertex="1" parent="csnIcFBk05dPJXtU28bG-1">
                    <mxGeometry x="749" y="1240" width="60" height="30" as="geometry"/>
                </mxCell>
            </root>
        </mxGraphModel>
    </diagram>
    <diagram id="spUuU7gOaGAdLQJyNSBr" name="Page-3">
        <mxGraphModel dx="790" dy="1681" grid="1" gridSize="10" guides="1" tooltips="1" connect="1" arrows="1" fold="1" page="1" pageScale="1" pageWidth="827" pageHeight="1169" math="0" shadow="0">
            <root>
                <mxCell id="8HuHwvcKZaDvZNqyGvuS-0"/>
                <mxCell id="8HuHwvcKZaDvZNqyGvuS-1" parent="8HuHwvcKZaDvZNqyGvuS-0"/>
                <mxCell id="8HuHwvcKZaDvZNqyGvuS-2" value="2" style="rounded=0;whiteSpace=wrap;html=1;" vertex="1" parent="8HuHwvcKZaDvZNqyGvuS-1">
                    <mxGeometry x="200" y="120" width="40" height="80" as="geometry"/>
                </mxCell>
                <mxCell id="8HuHwvcKZaDvZNqyGvuS-3" value="1" style="rounded=0;whiteSpace=wrap;html=1;" vertex="1" parent="8HuHwvcKZaDvZNqyGvuS-1">
                    <mxGeometry x="240" y="160" width="40" height="40" as="geometry"/>
                </mxCell>
                <mxCell id="8HuHwvcKZaDvZNqyGvuS-4" value="5" style="rounded=0;whiteSpace=wrap;html=1;" vertex="1" parent="8HuHwvcKZaDvZNqyGvuS-1">
                    <mxGeometry x="280" width="40" height="200" as="geometry"/>
                </mxCell>
                <mxCell id="8HuHwvcKZaDvZNqyGvuS-5" value="6" style="rounded=0;whiteSpace=wrap;html=1;" vertex="1" parent="8HuHwvcKZaDvZNqyGvuS-1">
                    <mxGeometry x="320" y="-40" width="40" height="240" as="geometry"/>
                </mxCell>
                <mxCell id="8HuHwvcKZaDvZNqyGvuS-6" value="2" style="rounded=0;whiteSpace=wrap;html=1;" vertex="1" parent="8HuHwvcKZaDvZNqyGvuS-1">
                    <mxGeometry x="360" y="120" width="40" height="80" as="geometry"/>
                </mxCell>
                <mxCell id="8HuHwvcKZaDvZNqyGvuS-7" value="3" style="rounded=0;whiteSpace=wrap;html=1;" vertex="1" parent="8HuHwvcKZaDvZNqyGvuS-1">
                    <mxGeometry x="400" y="80" width="40" height="120" as="geometry"/>
                </mxCell>
                <mxCell id="8HuHwvcKZaDvZNqyGvuS-9" value="2" style="rounded=0;whiteSpace=wrap;html=1;" vertex="1" parent="8HuHwvcKZaDvZNqyGvuS-1">
                    <mxGeometry x="200" y="380" width="40" height="80" as="geometry"/>
                </mxCell>
                <mxCell id="8HuHwvcKZaDvZNqyGvuS-10" value="1" style="rounded=0;whiteSpace=wrap;html=1;" vertex="1" parent="8HuHwvcKZaDvZNqyGvuS-1">
                    <mxGeometry x="240" y="420" width="40" height="40" as="geometry"/>
                </mxCell>
                <mxCell id="8HuHwvcKZaDvZNqyGvuS-11" value="5" style="rounded=0;whiteSpace=wrap;html=1;" vertex="1" parent="8HuHwvcKZaDvZNqyGvuS-1">
                    <mxGeometry x="280" y="260" width="40" height="200" as="geometry"/>
                </mxCell>
                <mxCell id="8HuHwvcKZaDvZNqyGvuS-12" value="6" style="rounded=0;whiteSpace=wrap;html=1;" vertex="1" parent="8HuHwvcKZaDvZNqyGvuS-1">
                    <mxGeometry x="320" y="220" width="40" height="240" as="geometry"/>
                </mxCell>
                <mxCell id="8HuHwvcKZaDvZNqyGvuS-13" value="2" style="rounded=0;whiteSpace=wrap;html=1;" vertex="1" parent="8HuHwvcKZaDvZNqyGvuS-1">
                    <mxGeometry x="360" y="380" width="40" height="80" as="geometry"/>
                </mxCell>
                <mxCell id="8HuHwvcKZaDvZNqyGvuS-14" value="3" style="rounded=0;whiteSpace=wrap;html=1;" vertex="1" parent="8HuHwvcKZaDvZNqyGvuS-1">
                    <mxGeometry x="400" y="340" width="40" height="120" as="geometry"/>
                </mxCell>
                <mxCell id="8HuHwvcKZaDvZNqyGvuS-17" value="One possible Rectangle: 6 X 1= 6 unit" style="text;html=1;strokeColor=#b85450;fillColor=#f8cecc;align=center;verticalAlign=middle;whiteSpace=wrap;rounded=0;opacity=40;" vertex="1" parent="8HuHwvcKZaDvZNqyGvuS-1">
                    <mxGeometry x="200" y="480" width="240" height="30" as="geometry"/>
                </mxCell>
                <mxCell id="8HuHwvcKZaDvZNqyGvuS-20" value="" style="rounded=0;whiteSpace=wrap;html=1;opacity=40;fillColor=#dae8fc;strokeColor=#6c8ebf;" vertex="1" parent="8HuHwvcKZaDvZNqyGvuS-1">
                    <mxGeometry x="200" y="420" width="240" height="40" as="geometry"/>
                </mxCell>
                <mxCell id="8HuHwvcKZaDvZNqyGvuS-21" value="2" style="rounded=0;whiteSpace=wrap;html=1;" vertex="1" parent="8HuHwvcKZaDvZNqyGvuS-1">
                    <mxGeometry x="500" y="380" width="40" height="80" as="geometry"/>
                </mxCell>
                <mxCell id="8HuHwvcKZaDvZNqyGvuS-22" value="1" style="rounded=0;whiteSpace=wrap;html=1;" vertex="1" parent="8HuHwvcKZaDvZNqyGvuS-1">
                    <mxGeometry x="540" y="420" width="40" height="40" as="geometry"/>
                </mxCell>
                <mxCell id="8HuHwvcKZaDvZNqyGvuS-23" value="5" style="rounded=0;whiteSpace=wrap;html=1;" vertex="1" parent="8HuHwvcKZaDvZNqyGvuS-1">
                    <mxGeometry x="580" y="260" width="40" height="200" as="geometry"/>
                </mxCell>
                <mxCell id="8HuHwvcKZaDvZNqyGvuS-24" value="6" style="rounded=0;whiteSpace=wrap;html=1;" vertex="1" parent="8HuHwvcKZaDvZNqyGvuS-1">
                    <mxGeometry x="620" y="220" width="40" height="240" as="geometry"/>
                </mxCell>
                <mxCell id="8HuHwvcKZaDvZNqyGvuS-25" value="2" style="rounded=0;whiteSpace=wrap;html=1;" vertex="1" parent="8HuHwvcKZaDvZNqyGvuS-1">
                    <mxGeometry x="660" y="380" width="40" height="80" as="geometry"/>
                </mxCell>
                <mxCell id="8HuHwvcKZaDvZNqyGvuS-26" value="3" style="rounded=0;whiteSpace=wrap;html=1;" vertex="1" parent="8HuHwvcKZaDvZNqyGvuS-1">
                    <mxGeometry x="700" y="340" width="40" height="120" as="geometry"/>
                </mxCell>
                <mxCell id="8HuHwvcKZaDvZNqyGvuS-27" value="One possible Rectangle: 5&amp;nbsp; X 2 = 10 unit" style="text;html=1;strokeColor=#b85450;fillColor=#f8cecc;align=center;verticalAlign=middle;whiteSpace=wrap;rounded=0;opacity=40;" vertex="1" parent="8HuHwvcKZaDvZNqyGvuS-1">
                    <mxGeometry x="500" y="480" width="240" height="30" as="geometry"/>
                </mxCell>
                <mxCell id="8HuHwvcKZaDvZNqyGvuS-28" value="" style="rounded=0;whiteSpace=wrap;html=1;opacity=40;fillColor=#dae8fc;strokeColor=#6c8ebf;" vertex="1" parent="8HuHwvcKZaDvZNqyGvuS-1">
                    <mxGeometry x="580" y="260" width="80" height="200" as="geometry"/>
                </mxCell>
                <mxCell id="8HuHwvcKZaDvZNqyGvuS-29" value="2" style="rounded=0;whiteSpace=wrap;html=1;" vertex="1" parent="8HuHwvcKZaDvZNqyGvuS-1">
                    <mxGeometry x="200" y="690" width="40" height="80" as="geometry"/>
                </mxCell>
                <mxCell id="8HuHwvcKZaDvZNqyGvuS-30" value="1" style="rounded=0;whiteSpace=wrap;html=1;" vertex="1" parent="8HuHwvcKZaDvZNqyGvuS-1">
                    <mxGeometry x="240" y="730" width="40" height="40" as="geometry"/>
                </mxCell>
                <mxCell id="8HuHwvcKZaDvZNqyGvuS-31" value="5" style="rounded=0;whiteSpace=wrap;html=1;" vertex="1" parent="8HuHwvcKZaDvZNqyGvuS-1">
                    <mxGeometry x="280" y="570" width="40" height="200" as="geometry"/>
                </mxCell>
                <mxCell id="8HuHwvcKZaDvZNqyGvuS-32" value="6" style="rounded=0;whiteSpace=wrap;html=1;" vertex="1" parent="8HuHwvcKZaDvZNqyGvuS-1">
                    <mxGeometry x="320" y="530" width="40" height="240" as="geometry"/>
                </mxCell>
                <mxCell id="8HuHwvcKZaDvZNqyGvuS-33" value="2" style="rounded=0;whiteSpace=wrap;html=1;" vertex="1" parent="8HuHwvcKZaDvZNqyGvuS-1">
                    <mxGeometry x="360" y="690" width="40" height="80" as="geometry"/>
                </mxCell>
                <mxCell id="8HuHwvcKZaDvZNqyGvuS-34" value="3" style="rounded=0;whiteSpace=wrap;html=1;" vertex="1" parent="8HuHwvcKZaDvZNqyGvuS-1">
                    <mxGeometry x="400" y="650" width="40" height="120" as="geometry"/>
                </mxCell>
                <mxCell id="8HuHwvcKZaDvZNqyGvuS-35" value="One possible Rectangle: 4X 2= 8 unit" style="text;html=1;strokeColor=#b85450;fillColor=#f8cecc;align=center;verticalAlign=middle;whiteSpace=wrap;rounded=0;opacity=40;" vertex="1" parent="8HuHwvcKZaDvZNqyGvuS-1">
                    <mxGeometry x="200" y="790" width="240" height="30" as="geometry"/>
                </mxCell>
                <mxCell id="8HuHwvcKZaDvZNqyGvuS-36" value="" style="rounded=0;whiteSpace=wrap;html=1;opacity=40;fillColor=#dae8fc;strokeColor=#6c8ebf;" vertex="1" parent="8HuHwvcKZaDvZNqyGvuS-1">
                    <mxGeometry x="280" y="690" width="160" height="80" as="geometry"/>
                </mxCell>
                <mxCell id="8HuHwvcKZaDvZNqyGvuS-47" value="2" style="rounded=0;whiteSpace=wrap;html=1;" vertex="1" parent="8HuHwvcKZaDvZNqyGvuS-1">
                    <mxGeometry x="180" y="-440" width="40" height="80" as="geometry"/>
                </mxCell>
                <mxCell id="8HuHwvcKZaDvZNqyGvuS-48" value="1" style="rounded=0;whiteSpace=wrap;html=1;" vertex="1" parent="8HuHwvcKZaDvZNqyGvuS-1">
                    <mxGeometry x="220" y="-400" width="40" height="40" as="geometry"/>
                </mxCell>
                <mxCell id="8HuHwvcKZaDvZNqyGvuS-49" value="5" style="rounded=0;whiteSpace=wrap;html=1;fillColor=#f5f5f5;fontColor=#333333;strokeColor=#666666;" vertex="1" parent="8HuHwvcKZaDvZNqyGvuS-1">
                    <mxGeometry x="260" y="-560" width="40" height="200" as="geometry"/>
                </mxCell>
                <mxCell id="8HuHwvcKZaDvZNqyGvuS-50" value="6" style="rounded=0;whiteSpace=wrap;html=1;" vertex="1" parent="8HuHwvcKZaDvZNqyGvuS-1">
                    <mxGeometry x="300" y="-600" width="40" height="240" as="geometry"/>
                </mxCell>
                <mxCell id="8HuHwvcKZaDvZNqyGvuS-51" value="2" style="rounded=0;whiteSpace=wrap;html=1;" vertex="1" parent="8HuHwvcKZaDvZNqyGvuS-1">
                    <mxGeometry x="340" y="-440" width="40" height="80" as="geometry"/>
                </mxCell>
                <mxCell id="8HuHwvcKZaDvZNqyGvuS-52" value="3" style="rounded=0;whiteSpace=wrap;html=1;" vertex="1" parent="8HuHwvcKZaDvZNqyGvuS-1">
                    <mxGeometry x="380" y="-480" width="40" height="120" as="geometry"/>
                </mxCell>
                <mxCell id="8HuHwvcKZaDvZNqyGvuS-53" value="Index" style="text;html=1;strokeColor=#b85450;fillColor=#f8cecc;align=center;verticalAlign=middle;whiteSpace=wrap;rounded=0;" vertex="1" parent="8HuHwvcKZaDvZNqyGvuS-1">
                    <mxGeometry x="100" y="-350" width="60" height="30" as="geometry"/>
                </mxCell>
                <mxCell id="8HuHwvcKZaDvZNqyGvuS-55" value="0" style="text;html=1;strokeColor=#b85450;fillColor=#f8cecc;align=center;verticalAlign=middle;whiteSpace=wrap;rounded=0;" vertex="1" parent="8HuHwvcKZaDvZNqyGvuS-1">
                    <mxGeometry x="180" y="-350" width="40" height="30" as="geometry"/>
                </mxCell>
                <mxCell id="8HuHwvcKZaDvZNqyGvuS-56" value="1" style="text;html=1;strokeColor=#b85450;fillColor=#f8cecc;align=center;verticalAlign=middle;whiteSpace=wrap;rounded=0;" vertex="1" parent="8HuHwvcKZaDvZNqyGvuS-1">
                    <mxGeometry x="220" y="-350" width="40" height="30" as="geometry"/>
                </mxCell>
                <mxCell id="8HuHwvcKZaDvZNqyGvuS-57" value="2" style="text;html=1;strokeColor=#b85450;fillColor=#f8cecc;align=center;verticalAlign=middle;whiteSpace=wrap;rounded=0;" vertex="1" parent="8HuHwvcKZaDvZNqyGvuS-1">
                    <mxGeometry x="260" y="-350" width="40" height="30" as="geometry"/>
                </mxCell>
                <mxCell id="8HuHwvcKZaDvZNqyGvuS-58" value="3" style="text;html=1;strokeColor=#b85450;fillColor=#f8cecc;align=center;verticalAlign=middle;whiteSpace=wrap;rounded=0;" vertex="1" parent="8HuHwvcKZaDvZNqyGvuS-1">
                    <mxGeometry x="300" y="-350" width="40" height="30" as="geometry"/>
                </mxCell>
                <mxCell id="8HuHwvcKZaDvZNqyGvuS-59" value="4" style="text;html=1;strokeColor=#b85450;fillColor=#f8cecc;align=center;verticalAlign=middle;whiteSpace=wrap;rounded=0;" vertex="1" parent="8HuHwvcKZaDvZNqyGvuS-1">
                    <mxGeometry x="340" y="-350" width="40" height="30" as="geometry"/>
                </mxCell>
                <mxCell id="8HuHwvcKZaDvZNqyGvuS-60" value="5" style="text;html=1;strokeColor=#b85450;fillColor=#f8cecc;align=center;verticalAlign=middle;whiteSpace=wrap;rounded=0;" vertex="1" parent="8HuHwvcKZaDvZNqyGvuS-1">
                    <mxGeometry x="380" y="-350" width="40" height="30" as="geometry"/>
                </mxCell>
                <mxCell id="8HuHwvcKZaDvZNqyGvuS-61" value="index of&amp;nbsp; next smaller element on Left" style="text;html=1;strokeColor=none;fillColor=none;align=center;verticalAlign=middle;whiteSpace=wrap;rounded=0;" vertex="1" parent="8HuHwvcKZaDvZNqyGvuS-1">
                    <mxGeometry x="170" y="-270" width="230" height="20" as="geometry"/>
                </mxCell>
                <mxCell id="8HuHwvcKZaDvZNqyGvuS-62" value="1" style="text;html=1;strokeColor=#b85450;fillColor=#f8cecc;align=center;verticalAlign=middle;whiteSpace=wrap;rounded=0;" vertex="1" parent="8HuHwvcKZaDvZNqyGvuS-1">
                    <mxGeometry x="390" y="-280" width="30" height="30" as="geometry"/>
                </mxCell>
                <mxCell id="8HuHwvcKZaDvZNqyGvuS-63" value="index of&amp;nbsp; next smaller element on Right" style="text;html=1;strokeColor=none;fillColor=none;align=center;verticalAlign=middle;whiteSpace=wrap;rounded=0;" vertex="1" parent="8HuHwvcKZaDvZNqyGvuS-1">
                    <mxGeometry x="160" y="-240" width="230" height="20" as="geometry"/>
                </mxCell>
                <mxCell id="8HuHwvcKZaDvZNqyGvuS-64" value="4" style="text;html=1;strokeColor=#b85450;fillColor=#f8cecc;align=center;verticalAlign=middle;whiteSpace=wrap;rounded=0;" vertex="1" parent="8HuHwvcKZaDvZNqyGvuS-1">
                    <mxGeometry x="390" y="-245" width="30" height="30" as="geometry"/>
                </mxCell>
                <mxCell id="8HuHwvcKZaDvZNqyGvuS-65" value="for index i = 2" style="text;html=1;strokeColor=#82b366;fillColor=#d5e8d4;align=center;verticalAlign=middle;whiteSpace=wrap;rounded=0;" vertex="1" parent="8HuHwvcKZaDvZNqyGvuS-1">
                    <mxGeometry x="100" y="-300" width="170" height="30" as="geometry"/>
                </mxCell>
                <mxCell id="8HuHwvcKZaDvZNqyGvuS-67" value="length of Rectangle" style="text;html=1;strokeColor=none;fillColor=none;align=center;verticalAlign=middle;whiteSpace=wrap;rounded=0;" vertex="1" parent="8HuHwvcKZaDvZNqyGvuS-1">
                    <mxGeometry x="190" y="-205" width="170" height="20" as="geometry"/>
                </mxCell>
                <mxCell id="8HuHwvcKZaDvZNqyGvuS-69" value="4 -1 -1" style="text;html=1;strokeColor=#b85450;fillColor=#f8cecc;align=center;verticalAlign=middle;whiteSpace=wrap;rounded=0;" vertex="1" parent="8HuHwvcKZaDvZNqyGvuS-1">
                    <mxGeometry x="390" y="-210" width="80" height="30" as="geometry"/>
                </mxCell>
                <mxCell id="8HuHwvcKZaDvZNqyGvuS-74" value="=&amp;nbsp; 2" style="text;html=1;strokeColor=none;fillColor=none;align=center;verticalAlign=middle;whiteSpace=wrap;rounded=0;" vertex="1" parent="8HuHwvcKZaDvZNqyGvuS-1">
                    <mxGeometry x="470" y="-210" width="60" height="30" as="geometry"/>
                </mxCell>
                <mxCell id="8HuHwvcKZaDvZNqyGvuS-75" value="area of Rectangle" style="text;html=1;strokeColor=none;fillColor=none;align=center;verticalAlign=middle;whiteSpace=wrap;rounded=0;" vertex="1" parent="8HuHwvcKZaDvZNqyGvuS-1">
                    <mxGeometry x="190" y="-165" width="170" height="20" as="geometry"/>
                </mxCell>
                <mxCell id="8HuHwvcKZaDvZNqyGvuS-76" value="2 * 5" style="text;html=1;strokeColor=#b85450;fillColor=#f8cecc;align=center;verticalAlign=middle;whiteSpace=wrap;rounded=0;" vertex="1" parent="8HuHwvcKZaDvZNqyGvuS-1">
                    <mxGeometry x="390" y="-170" width="80" height="30" as="geometry"/>
                </mxCell>
                <mxCell id="8HuHwvcKZaDvZNqyGvuS-77" value="=&amp;nbsp; 10" style="text;html=1;strokeColor=none;fillColor=none;align=center;verticalAlign=middle;whiteSpace=wrap;rounded=0;" vertex="1" parent="8HuHwvcKZaDvZNqyGvuS-1">
                    <mxGeometry x="470" y="-170" width="60" height="30" as="geometry"/>
                </mxCell>
                <mxCell id="8HuHwvcKZaDvZNqyGvuS-79" value="" style="rounded=0;whiteSpace=wrap;html=1;fillColor=none;strokeColor=#FF3333;" vertex="1" parent="8HuHwvcKZaDvZNqyGvuS-1">
                    <mxGeometry x="253" y="-566" width="95" height="210" as="geometry"/>
                </mxCell>
                <mxCell id="8HuHwvcKZaDvZNqyGvuS-80" value="2" style="rounded=0;whiteSpace=wrap;html=1;" vertex="1" parent="8HuHwvcKZaDvZNqyGvuS-1">
                    <mxGeometry x="710" y="-424" width="40" height="80" as="geometry"/>
                </mxCell>
                <mxCell id="8HuHwvcKZaDvZNqyGvuS-81" value="1" style="rounded=0;whiteSpace=wrap;html=1;" vertex="1" parent="8HuHwvcKZaDvZNqyGvuS-1">
                    <mxGeometry x="750" y="-384" width="40" height="40" as="geometry"/>
                </mxCell>
                <mxCell id="8HuHwvcKZaDvZNqyGvuS-82" value="5" style="rounded=0;whiteSpace=wrap;html=1;fillColor=#f5f5f5;fontColor=#333333;strokeColor=#666666;" vertex="1" parent="8HuHwvcKZaDvZNqyGvuS-1">
                    <mxGeometry x="790" y="-544" width="40" height="200" as="geometry"/>
                </mxCell>
                <mxCell id="8HuHwvcKZaDvZNqyGvuS-83" value="6" style="rounded=0;whiteSpace=wrap;html=1;" vertex="1" parent="8HuHwvcKZaDvZNqyGvuS-1">
                    <mxGeometry x="830" y="-584" width="40" height="240" as="geometry"/>
                </mxCell>
                <mxCell id="8HuHwvcKZaDvZNqyGvuS-84" value="2" style="rounded=0;whiteSpace=wrap;html=1;" vertex="1" parent="8HuHwvcKZaDvZNqyGvuS-1">
                    <mxGeometry x="870" y="-424" width="40" height="80" as="geometry"/>
                </mxCell>
                <mxCell id="8HuHwvcKZaDvZNqyGvuS-85" value="3" style="rounded=0;whiteSpace=wrap;html=1;" vertex="1" parent="8HuHwvcKZaDvZNqyGvuS-1">
                    <mxGeometry x="910" y="-464" width="40" height="120" as="geometry"/>
                </mxCell>
                <mxCell id="8HuHwvcKZaDvZNqyGvuS-86" value="Index" style="text;html=1;strokeColor=#b85450;fillColor=#f8cecc;align=center;verticalAlign=middle;whiteSpace=wrap;rounded=0;" vertex="1" parent="8HuHwvcKZaDvZNqyGvuS-1">
                    <mxGeometry x="630" y="-334" width="60" height="30" as="geometry"/>
                </mxCell>
                <mxCell id="8HuHwvcKZaDvZNqyGvuS-87" value="0" style="text;html=1;strokeColor=#b85450;fillColor=#f8cecc;align=center;verticalAlign=middle;whiteSpace=wrap;rounded=0;" vertex="1" parent="8HuHwvcKZaDvZNqyGvuS-1">
                    <mxGeometry x="710" y="-334" width="40" height="30" as="geometry"/>
                </mxCell>
                <mxCell id="8HuHwvcKZaDvZNqyGvuS-88" value="1" style="text;html=1;strokeColor=#b85450;fillColor=#f8cecc;align=center;verticalAlign=middle;whiteSpace=wrap;rounded=0;" vertex="1" parent="8HuHwvcKZaDvZNqyGvuS-1">
                    <mxGeometry x="750" y="-334" width="40" height="30" as="geometry"/>
                </mxCell>
                <mxCell id="8HuHwvcKZaDvZNqyGvuS-89" value="2" style="text;html=1;strokeColor=#b85450;fillColor=#f8cecc;align=center;verticalAlign=middle;whiteSpace=wrap;rounded=0;" vertex="1" parent="8HuHwvcKZaDvZNqyGvuS-1">
                    <mxGeometry x="790" y="-334" width="40" height="30" as="geometry"/>
                </mxCell>
                <mxCell id="8HuHwvcKZaDvZNqyGvuS-90" value="3" style="text;html=1;strokeColor=#b85450;fillColor=#f8cecc;align=center;verticalAlign=middle;whiteSpace=wrap;rounded=0;" vertex="1" parent="8HuHwvcKZaDvZNqyGvuS-1">
                    <mxGeometry x="830" y="-334" width="40" height="30" as="geometry"/>
                </mxCell>
                <mxCell id="8HuHwvcKZaDvZNqyGvuS-91" value="4" style="text;html=1;strokeColor=#b85450;fillColor=#f8cecc;align=center;verticalAlign=middle;whiteSpace=wrap;rounded=0;" vertex="1" parent="8HuHwvcKZaDvZNqyGvuS-1">
                    <mxGeometry x="870" y="-334" width="40" height="30" as="geometry"/>
                </mxCell>
                <mxCell id="8HuHwvcKZaDvZNqyGvuS-92" value="5" style="text;html=1;strokeColor=#b85450;fillColor=#f8cecc;align=center;verticalAlign=middle;whiteSpace=wrap;rounded=0;" vertex="1" parent="8HuHwvcKZaDvZNqyGvuS-1">
                    <mxGeometry x="910" y="-334" width="40" height="30" as="geometry"/>
                </mxCell>
                <mxCell id="8HuHwvcKZaDvZNqyGvuS-93" value="index of&amp;nbsp; next smaller element on Left" style="text;html=1;strokeColor=none;fillColor=none;align=center;verticalAlign=middle;whiteSpace=wrap;rounded=0;" vertex="1" parent="8HuHwvcKZaDvZNqyGvuS-1">
                    <mxGeometry x="700" y="-254" width="230" height="20" as="geometry"/>
                </mxCell>
                <mxCell id="8HuHwvcKZaDvZNqyGvuS-94" value="-1" style="text;html=1;strokeColor=#b85450;fillColor=#f8cecc;align=center;verticalAlign=middle;whiteSpace=wrap;rounded=0;" vertex="1" parent="8HuHwvcKZaDvZNqyGvuS-1">
                    <mxGeometry x="920" y="-264" width="30" height="30" as="geometry"/>
                </mxCell>
                <mxCell id="8HuHwvcKZaDvZNqyGvuS-95" value="index of&amp;nbsp; next smaller element on Right" style="text;html=1;strokeColor=none;fillColor=none;align=center;verticalAlign=middle;whiteSpace=wrap;rounded=0;" vertex="1" parent="8HuHwvcKZaDvZNqyGvuS-1">
                    <mxGeometry x="690" y="-224" width="230" height="20" as="geometry"/>
                </mxCell>
                <mxCell id="8HuHwvcKZaDvZNqyGvuS-96" value="1" style="text;html=1;strokeColor=#b85450;fillColor=#f8cecc;align=center;verticalAlign=middle;whiteSpace=wrap;rounded=0;" vertex="1" parent="8HuHwvcKZaDvZNqyGvuS-1">
                    <mxGeometry x="920" y="-229" width="30" height="30" as="geometry"/>
                </mxCell>
                <mxCell id="8HuHwvcKZaDvZNqyGvuS-97" value="for index i = 0" style="text;html=1;strokeColor=#82b366;fillColor=#d5e8d4;align=center;verticalAlign=middle;whiteSpace=wrap;rounded=0;" vertex="1" parent="8HuHwvcKZaDvZNqyGvuS-1">
                    <mxGeometry x="630" y="-284" width="170" height="30" as="geometry"/>
                </mxCell>
                <mxCell id="8HuHwvcKZaDvZNqyGvuS-98" value="length of Rectangle" style="text;html=1;strokeColor=none;fillColor=none;align=center;verticalAlign=middle;whiteSpace=wrap;rounded=0;" vertex="1" parent="8HuHwvcKZaDvZNqyGvuS-1">
                    <mxGeometry x="720" y="-189" width="170" height="20" as="geometry"/>
                </mxCell>
                <mxCell id="8HuHwvcKZaDvZNqyGvuS-99" value="1 -1 -1" style="text;html=1;strokeColor=#b85450;fillColor=#f8cecc;align=center;verticalAlign=middle;whiteSpace=wrap;rounded=0;" vertex="1" parent="8HuHwvcKZaDvZNqyGvuS-1">
                    <mxGeometry x="920" y="-194" width="80" height="30" as="geometry"/>
                </mxCell>
                <mxCell id="8HuHwvcKZaDvZNqyGvuS-100" value="=&amp;nbsp; 2" style="text;html=1;strokeColor=none;fillColor=none;align=center;verticalAlign=middle;whiteSpace=wrap;rounded=0;" vertex="1" parent="8HuHwvcKZaDvZNqyGvuS-1">
                    <mxGeometry x="1000" y="-194" width="60" height="30" as="geometry"/>
                </mxCell>
                <mxCell id="8HuHwvcKZaDvZNqyGvuS-101" value="area of Rectangle" style="text;html=1;strokeColor=none;fillColor=none;align=center;verticalAlign=middle;whiteSpace=wrap;rounded=0;" vertex="1" parent="8HuHwvcKZaDvZNqyGvuS-1">
                    <mxGeometry x="720" y="-149" width="170" height="20" as="geometry"/>
                </mxCell>
                <mxCell id="8HuHwvcKZaDvZNqyGvuS-102" value="2 * 5" style="text;html=1;strokeColor=#b85450;fillColor=#f8cecc;align=center;verticalAlign=middle;whiteSpace=wrap;rounded=0;" vertex="1" parent="8HuHwvcKZaDvZNqyGvuS-1">
                    <mxGeometry x="920" y="-154" width="80" height="30" as="geometry"/>
                </mxCell>
                <mxCell id="8HuHwvcKZaDvZNqyGvuS-103" value="=&amp;nbsp; 10" style="text;html=1;strokeColor=none;fillColor=none;align=center;verticalAlign=middle;whiteSpace=wrap;rounded=0;" vertex="1" parent="8HuHwvcKZaDvZNqyGvuS-1">
                    <mxGeometry x="1000" y="-154" width="60" height="30" as="geometry"/>
                </mxCell>
                <mxCell id="8HuHwvcKZaDvZNqyGvuS-104" value="" style="rounded=0;whiteSpace=wrap;html=1;fillColor=none;strokeColor=#FF3333;" vertex="1" parent="8HuHwvcKZaDvZNqyGvuS-1">
                    <mxGeometry x="783" y="-550" width="95" height="210" as="geometry"/>
                </mxCell>
                <mxCell id="8HuHwvcKZaDvZNqyGvuS-105" value="2" style="rounded=0;whiteSpace=wrap;html=1;" vertex="1" parent="8HuHwvcKZaDvZNqyGvuS-1">
                    <mxGeometry x="950" y="210" width="40" height="80" as="geometry"/>
                </mxCell>
                <mxCell id="8HuHwvcKZaDvZNqyGvuS-106" value="1" style="rounded=0;whiteSpace=wrap;html=1;" vertex="1" parent="8HuHwvcKZaDvZNqyGvuS-1">
                    <mxGeometry x="990" y="250" width="40" height="40" as="geometry"/>
                </mxCell>
                <mxCell id="8HuHwvcKZaDvZNqyGvuS-107" value="5" style="rounded=0;whiteSpace=wrap;html=1;" vertex="1" parent="8HuHwvcKZaDvZNqyGvuS-1">
                    <mxGeometry x="1030" y="90" width="40" height="200" as="geometry"/>
                </mxCell>
                <mxCell id="8HuHwvcKZaDvZNqyGvuS-108" value="6" style="rounded=0;whiteSpace=wrap;html=1;" vertex="1" parent="8HuHwvcKZaDvZNqyGvuS-1">
                    <mxGeometry x="1070" y="50" width="40" height="240" as="geometry"/>
                </mxCell>
                <mxCell id="8HuHwvcKZaDvZNqyGvuS-109" value="2" style="rounded=0;whiteSpace=wrap;html=1;" vertex="1" parent="8HuHwvcKZaDvZNqyGvuS-1">
                    <mxGeometry x="1110" y="210" width="40" height="80" as="geometry"/>
                </mxCell>
                <mxCell id="8HuHwvcKZaDvZNqyGvuS-110" value="3" style="rounded=0;whiteSpace=wrap;html=1;" vertex="1" parent="8HuHwvcKZaDvZNqyGvuS-1">
                    <mxGeometry x="1150" y="170" width="40" height="120" as="geometry"/>
                </mxCell>
                <mxCell id="8HuHwvcKZaDvZNqyGvuS-111" value="index -1" style="rounded=0;whiteSpace=wrap;html=1;strokeColor=#FF3333;fillColor=none;" vertex="1" parent="8HuHwvcKZaDvZNqyGvuS-1">
                    <mxGeometry x="910" y="370" width="70" height="60" as="geometry"/>
                </mxCell>
                <mxCell id="8HuHwvcKZaDvZNqyGvuS-112" value="" style="shape=flexArrow;endArrow=classic;html=1;width=5;endSize=5.55;" edge="1" parent="8HuHwvcKZaDvZNqyGvuS-1">
                    <mxGeometry width="50" height="50" relative="1" as="geometry">
                        <mxPoint x="939" y="365" as="sourcePoint"/>
                        <mxPoint x="939" y="302" as="targetPoint"/>
                    </mxGeometry>
                </mxCell>
                <mxCell id="8HuHwvcKZaDvZNqyGvuS-113" value="0" style="text;html=1;strokeColor=#b85450;fillColor=#f8cecc;align=center;verticalAlign=middle;whiteSpace=wrap;rounded=0;" vertex="1" parent="8HuHwvcKZaDvZNqyGvuS-1">
                    <mxGeometry x="950" y="290" width="40" height="30" as="geometry"/>
                </mxCell>
                <mxCell id="8HuHwvcKZaDvZNqyGvuS-114" value="1" style="text;html=1;strokeColor=#b85450;fillColor=#f8cecc;align=center;verticalAlign=middle;whiteSpace=wrap;rounded=0;" vertex="1" parent="8HuHwvcKZaDvZNqyGvuS-1">
                    <mxGeometry x="990" y="290" width="40" height="30" as="geometry"/>
                </mxCell>
                <mxCell id="8HuHwvcKZaDvZNqyGvuS-115" value="2" style="text;html=1;strokeColor=#b85450;fillColor=#f8cecc;align=center;verticalAlign=middle;whiteSpace=wrap;rounded=0;" vertex="1" parent="8HuHwvcKZaDvZNqyGvuS-1">
                    <mxGeometry x="1030" y="290" width="40" height="30" as="geometry"/>
                </mxCell>
                <mxCell id="8HuHwvcKZaDvZNqyGvuS-116" value="3" style="text;html=1;strokeColor=#b85450;fillColor=#f8cecc;align=center;verticalAlign=middle;whiteSpace=wrap;rounded=0;" vertex="1" parent="8HuHwvcKZaDvZNqyGvuS-1">
                    <mxGeometry x="1070" y="290" width="40" height="30" as="geometry"/>
                </mxCell>
                <mxCell id="8HuHwvcKZaDvZNqyGvuS-117" value="4" style="text;html=1;strokeColor=#b85450;fillColor=#f8cecc;align=center;verticalAlign=middle;whiteSpace=wrap;rounded=0;" vertex="1" parent="8HuHwvcKZaDvZNqyGvuS-1">
                    <mxGeometry x="1110" y="290" width="40" height="30" as="geometry"/>
                </mxCell>
                <mxCell id="8HuHwvcKZaDvZNqyGvuS-118" value="5" style="text;html=1;strokeColor=#b85450;fillColor=#f8cecc;align=center;verticalAlign=middle;whiteSpace=wrap;rounded=0;" vertex="1" parent="8HuHwvcKZaDvZNqyGvuS-1">
                    <mxGeometry x="1150" y="290" width="40" height="30" as="geometry"/>
                </mxCell>
                <mxCell id="8HuHwvcKZaDvZNqyGvuS-119" value="Index of smaller element on left for teh first element" style="text;html=1;strokeColor=none;fillColor=none;align=center;verticalAlign=middle;whiteSpace=wrap;rounded=0;" vertex="1" parent="8HuHwvcKZaDvZNqyGvuS-1">
                    <mxGeometry x="1000" y="385" width="290" height="30" as="geometry"/>
                </mxCell>
                <mxCell id="8HuHwvcKZaDvZNqyGvuS-120" value="2" style="rounded=0;whiteSpace=wrap;html=1;" vertex="1" parent="8HuHwvcKZaDvZNqyGvuS-1">
                    <mxGeometry x="950" y="610" width="40" height="80" as="geometry"/>
                </mxCell>
                <mxCell id="8HuHwvcKZaDvZNqyGvuS-121" value="1" style="rounded=0;whiteSpace=wrap;html=1;" vertex="1" parent="8HuHwvcKZaDvZNqyGvuS-1">
                    <mxGeometry x="990" y="650" width="40" height="40" as="geometry"/>
                </mxCell>
                <mxCell id="8HuHwvcKZaDvZNqyGvuS-122" value="5" style="rounded=0;whiteSpace=wrap;html=1;" vertex="1" parent="8HuHwvcKZaDvZNqyGvuS-1">
                    <mxGeometry x="1030" y="490" width="40" height="200" as="geometry"/>
                </mxCell>
                <mxCell id="8HuHwvcKZaDvZNqyGvuS-123" value="6" style="rounded=0;whiteSpace=wrap;html=1;" vertex="1" parent="8HuHwvcKZaDvZNqyGvuS-1">
                    <mxGeometry x="1070" y="450" width="40" height="240" as="geometry"/>
                </mxCell>
                <mxCell id="8HuHwvcKZaDvZNqyGvuS-124" value="2" style="rounded=0;whiteSpace=wrap;html=1;" vertex="1" parent="8HuHwvcKZaDvZNqyGvuS-1">
                    <mxGeometry x="1110" y="610" width="40" height="80" as="geometry"/>
                </mxCell>
                <mxCell id="8HuHwvcKZaDvZNqyGvuS-125" value="3" style="rounded=0;whiteSpace=wrap;html=1;" vertex="1" parent="8HuHwvcKZaDvZNqyGvuS-1">
                    <mxGeometry x="1150" y="570" width="40" height="120" as="geometry"/>
                </mxCell>
                <mxCell id="8HuHwvcKZaDvZNqyGvuS-126" value="index&amp;nbsp; 6" style="rounded=0;whiteSpace=wrap;html=1;strokeColor=#FF3333;fillColor=none;" vertex="1" parent="8HuHwvcKZaDvZNqyGvuS-1">
                    <mxGeometry x="1206" y="740" width="70" height="60" as="geometry"/>
                </mxCell>
                <mxCell id="8HuHwvcKZaDvZNqyGvuS-127" value="" style="shape=flexArrow;endArrow=classic;html=1;width=5;endSize=5.55;" edge="1" parent="8HuHwvcKZaDvZNqyGvuS-1">
                    <mxGeometry width="50" height="50" relative="1" as="geometry">
                        <mxPoint x="1200" y="770" as="sourcePoint"/>
                        <mxPoint x="1200" y="707" as="targetPoint"/>
                    </mxGeometry>
                </mxCell>
                <mxCell id="8HuHwvcKZaDvZNqyGvuS-128" value="0" style="text;html=1;strokeColor=#b85450;fillColor=#f8cecc;align=center;verticalAlign=middle;whiteSpace=wrap;rounded=0;" vertex="1" parent="8HuHwvcKZaDvZNqyGvuS-1">
                    <mxGeometry x="950" y="690" width="40" height="30" as="geometry"/>
                </mxCell>
                <mxCell id="8HuHwvcKZaDvZNqyGvuS-129" value="1" style="text;html=1;strokeColor=#b85450;fillColor=#f8cecc;align=center;verticalAlign=middle;whiteSpace=wrap;rounded=0;" vertex="1" parent="8HuHwvcKZaDvZNqyGvuS-1">
                    <mxGeometry x="990" y="690" width="40" height="30" as="geometry"/>
                </mxCell>
                <mxCell id="8HuHwvcKZaDvZNqyGvuS-130" value="2" style="text;html=1;strokeColor=#b85450;fillColor=#f8cecc;align=center;verticalAlign=middle;whiteSpace=wrap;rounded=0;" vertex="1" parent="8HuHwvcKZaDvZNqyGvuS-1">
                    <mxGeometry x="1030" y="690" width="40" height="30" as="geometry"/>
                </mxCell>
                <mxCell id="8HuHwvcKZaDvZNqyGvuS-131" value="3" style="text;html=1;strokeColor=#b85450;fillColor=#f8cecc;align=center;verticalAlign=middle;whiteSpace=wrap;rounded=0;" vertex="1" parent="8HuHwvcKZaDvZNqyGvuS-1">
                    <mxGeometry x="1070" y="690" width="40" height="30" as="geometry"/>
                </mxCell>
                <mxCell id="8HuHwvcKZaDvZNqyGvuS-132" value="4" style="text;html=1;strokeColor=#b85450;fillColor=#f8cecc;align=center;verticalAlign=middle;whiteSpace=wrap;rounded=0;" vertex="1" parent="8HuHwvcKZaDvZNqyGvuS-1">
                    <mxGeometry x="1110" y="690" width="40" height="30" as="geometry"/>
                </mxCell>
                <mxCell id="8HuHwvcKZaDvZNqyGvuS-133" value="5" style="text;html=1;strokeColor=#b85450;fillColor=#f8cecc;align=center;verticalAlign=middle;whiteSpace=wrap;rounded=0;" vertex="1" parent="8HuHwvcKZaDvZNqyGvuS-1">
                    <mxGeometry x="1150" y="690" width="40" height="30" as="geometry"/>
                </mxCell>
                <mxCell id="8HuHwvcKZaDvZNqyGvuS-134" value="Index of smaller element on right for teh last element" style="text;html=1;strokeColor=none;fillColor=none;align=center;verticalAlign=middle;whiteSpace=wrap;rounded=0;" vertex="1" parent="8HuHwvcKZaDvZNqyGvuS-1">
                    <mxGeometry x="890" y="770" width="290" height="30" as="geometry"/>
                </mxCell>
                <mxCell id="8HuHwvcKZaDvZNqyGvuS-135" value="1" style="rounded=0;whiteSpace=wrap;html=1;" vertex="1" parent="8HuHwvcKZaDvZNqyGvuS-1">
                    <mxGeometry x="1500" y="560" width="40" height="40" as="geometry"/>
                </mxCell>
                <mxCell id="8HuHwvcKZaDvZNqyGvuS-136" value="1" style="rounded=0;whiteSpace=wrap;html=1;" vertex="1" parent="8HuHwvcKZaDvZNqyGvuS-1">
                    <mxGeometry x="1540" y="560" width="40" height="40" as="geometry"/>
                </mxCell>
                <mxCell id="8HuHwvcKZaDvZNqyGvuS-137" value="1" style="rounded=0;whiteSpace=wrap;html=1;" vertex="1" parent="8HuHwvcKZaDvZNqyGvuS-1">
                    <mxGeometry x="1580" y="560" width="40" height="40" as="geometry"/>
                </mxCell>
                <mxCell id="8HuHwvcKZaDvZNqyGvuS-138" value="1" style="rounded=0;whiteSpace=wrap;html=1;" vertex="1" parent="8HuHwvcKZaDvZNqyGvuS-1">
                    <mxGeometry x="1620" y="560" width="40" height="40" as="geometry"/>
                </mxCell>
                <mxCell id="8HuHwvcKZaDvZNqyGvuS-139" value="1" style="rounded=0;whiteSpace=wrap;html=1;" vertex="1" parent="8HuHwvcKZaDvZNqyGvuS-1">
                    <mxGeometry x="1660" y="560" width="40" height="40" as="geometry"/>
                </mxCell>
                <mxCell id="8HuHwvcKZaDvZNqyGvuS-140" value="1" style="rounded=0;whiteSpace=wrap;html=1;" vertex="1" parent="8HuHwvcKZaDvZNqyGvuS-1">
                    <mxGeometry x="1700" y="560" width="40" height="40" as="geometry"/>
                </mxCell>
                <mxCell id="8HuHwvcKZaDvZNqyGvuS-142" value="0" style="text;html=1;strokeColor=#b85450;fillColor=#f8cecc;align=center;verticalAlign=middle;whiteSpace=wrap;rounded=0;" vertex="1" parent="8HuHwvcKZaDvZNqyGvuS-1">
                    <mxGeometry x="1500" y="600" width="40" height="30" as="geometry"/>
                </mxCell>
                <mxCell id="8HuHwvcKZaDvZNqyGvuS-143" value="1" style="text;html=1;strokeColor=#b85450;fillColor=#f8cecc;align=center;verticalAlign=middle;whiteSpace=wrap;rounded=0;" vertex="1" parent="8HuHwvcKZaDvZNqyGvuS-1">
                    <mxGeometry x="1540" y="600" width="40" height="30" as="geometry"/>
                </mxCell>
                <mxCell id="8HuHwvcKZaDvZNqyGvuS-144" value="2" style="text;html=1;strokeColor=#b85450;fillColor=#f8cecc;align=center;verticalAlign=middle;whiteSpace=wrap;rounded=0;" vertex="1" parent="8HuHwvcKZaDvZNqyGvuS-1">
                    <mxGeometry x="1580" y="600" width="40" height="30" as="geometry"/>
                </mxCell>
                <mxCell id="8HuHwvcKZaDvZNqyGvuS-145" value="3" style="text;html=1;strokeColor=#b85450;fillColor=#f8cecc;align=center;verticalAlign=middle;whiteSpace=wrap;rounded=0;" vertex="1" parent="8HuHwvcKZaDvZNqyGvuS-1">
                    <mxGeometry x="1620" y="600" width="40" height="30" as="geometry"/>
                </mxCell>
                <mxCell id="8HuHwvcKZaDvZNqyGvuS-146" value="4" style="text;html=1;strokeColor=#b85450;fillColor=#f8cecc;align=center;verticalAlign=middle;whiteSpace=wrap;rounded=0;" vertex="1" parent="8HuHwvcKZaDvZNqyGvuS-1">
                    <mxGeometry x="1660" y="600" width="40" height="30" as="geometry"/>
                </mxCell>
                <mxCell id="8HuHwvcKZaDvZNqyGvuS-147" value="5" style="text;html=1;strokeColor=#b85450;fillColor=#f8cecc;align=center;verticalAlign=middle;whiteSpace=wrap;rounded=0;" vertex="1" parent="8HuHwvcKZaDvZNqyGvuS-1">
                    <mxGeometry x="1700" y="600" width="40" height="30" as="geometry"/>
                </mxCell>
                <mxCell id="8HuHwvcKZaDvZNqyGvuS-148" value="-1" style="text;html=1;strokeColor=#b85450;fillColor=#f8cecc;align=center;verticalAlign=middle;whiteSpace=wrap;rounded=0;" vertex="1" parent="8HuHwvcKZaDvZNqyGvuS-1">
                    <mxGeometry x="1500" y="670" width="40" height="30" as="geometry"/>
                </mxCell>
                <mxCell id="8HuHwvcKZaDvZNqyGvuS-149" value="-1" style="text;html=1;strokeColor=#b85450;fillColor=#f8cecc;align=center;verticalAlign=middle;whiteSpace=wrap;rounded=0;" vertex="1" parent="8HuHwvcKZaDvZNqyGvuS-1">
                    <mxGeometry x="1540" y="670" width="40" height="30" as="geometry"/>
                </mxCell>
                <mxCell id="8HuHwvcKZaDvZNqyGvuS-150" value="-1" style="text;html=1;strokeColor=#b85450;fillColor=#f8cecc;align=center;verticalAlign=middle;whiteSpace=wrap;rounded=0;" vertex="1" parent="8HuHwvcKZaDvZNqyGvuS-1">
                    <mxGeometry x="1580" y="670" width="40" height="30" as="geometry"/>
                </mxCell>
                <mxCell id="8HuHwvcKZaDvZNqyGvuS-151" value="-1" style="text;html=1;strokeColor=#b85450;fillColor=#f8cecc;align=center;verticalAlign=middle;whiteSpace=wrap;rounded=0;" vertex="1" parent="8HuHwvcKZaDvZNqyGvuS-1">
                    <mxGeometry x="1620" y="670" width="40" height="30" as="geometry"/>
                </mxCell>
                <mxCell id="8HuHwvcKZaDvZNqyGvuS-152" value="-1" style="text;html=1;strokeColor=#b85450;fillColor=#f8cecc;align=center;verticalAlign=middle;whiteSpace=wrap;rounded=0;" vertex="1" parent="8HuHwvcKZaDvZNqyGvuS-1">
                    <mxGeometry x="1660" y="670" width="40" height="30" as="geometry"/>
                </mxCell>
                <mxCell id="8HuHwvcKZaDvZNqyGvuS-153" value="-1" style="text;html=1;strokeColor=#b85450;fillColor=#f8cecc;align=center;verticalAlign=middle;whiteSpace=wrap;rounded=0;" vertex="1" parent="8HuHwvcKZaDvZNqyGvuS-1">
                    <mxGeometry x="1700" y="670" width="40" height="30" as="geometry"/>
                </mxCell>
                <mxCell id="8HuHwvcKZaDvZNqyGvuS-154" value="6" style="text;html=1;strokeColor=#82b366;fillColor=#d5e8d4;align=center;verticalAlign=middle;whiteSpace=wrap;rounded=0;" vertex="1" parent="8HuHwvcKZaDvZNqyGvuS-1">
                    <mxGeometry x="1500" y="715" width="40" height="30" as="geometry"/>
                </mxCell>
                <mxCell id="8HuHwvcKZaDvZNqyGvuS-155" value="6" style="text;html=1;strokeColor=#82b366;fillColor=#d5e8d4;align=center;verticalAlign=middle;whiteSpace=wrap;rounded=0;" vertex="1" parent="8HuHwvcKZaDvZNqyGvuS-1">
                    <mxGeometry x="1540" y="715" width="40" height="30" as="geometry"/>
                </mxCell>
                <mxCell id="8HuHwvcKZaDvZNqyGvuS-156" value="6" style="text;html=1;strokeColor=#82b366;fillColor=#d5e8d4;align=center;verticalAlign=middle;whiteSpace=wrap;rounded=0;" vertex="1" parent="8HuHwvcKZaDvZNqyGvuS-1">
                    <mxGeometry x="1580" y="715" width="40" height="30" as="geometry"/>
                </mxCell>
                <mxCell id="8HuHwvcKZaDvZNqyGvuS-157" value="6" style="text;html=1;strokeColor=#82b366;fillColor=#d5e8d4;align=center;verticalAlign=middle;whiteSpace=wrap;rounded=0;" vertex="1" parent="8HuHwvcKZaDvZNqyGvuS-1">
                    <mxGeometry x="1620" y="715" width="40" height="30" as="geometry"/>
                </mxCell>
                <mxCell id="8HuHwvcKZaDvZNqyGvuS-158" value="6" style="text;html=1;strokeColor=#82b366;fillColor=#d5e8d4;align=center;verticalAlign=middle;whiteSpace=wrap;rounded=0;" vertex="1" parent="8HuHwvcKZaDvZNqyGvuS-1">
                    <mxGeometry x="1660" y="715" width="40" height="30" as="geometry"/>
                </mxCell>
                <mxCell id="8HuHwvcKZaDvZNqyGvuS-159" value="6" style="text;html=1;strokeColor=#82b366;fillColor=#d5e8d4;align=center;verticalAlign=middle;whiteSpace=wrap;rounded=0;" vertex="1" parent="8HuHwvcKZaDvZNqyGvuS-1">
                    <mxGeometry x="1700" y="715" width="40" height="30" as="geometry"/>
                </mxCell>
                <mxCell id="8HuHwvcKZaDvZNqyGvuS-160" value="index of SEL" style="text;html=1;strokeColor=none;fillColor=none;align=center;verticalAlign=middle;whiteSpace=wrap;rounded=0;" vertex="1" parent="8HuHwvcKZaDvZNqyGvuS-1">
                    <mxGeometry x="1370" y="670" width="100" height="30" as="geometry"/>
                </mxCell>
                <mxCell id="8HuHwvcKZaDvZNqyGvuS-161" value="index of SER" style="text;html=1;strokeColor=none;fillColor=none;align=center;verticalAlign=middle;whiteSpace=wrap;rounded=0;" vertex="1" parent="8HuHwvcKZaDvZNqyGvuS-1">
                    <mxGeometry x="1370" y="710" width="100" height="30" as="geometry"/>
                </mxCell>
                <mxCell id="8HuHwvcKZaDvZNqyGvuS-162" value="" style="rounded=0;whiteSpace=wrap;html=1;strokeColor=#FF3333;fillColor=none;" vertex="1" parent="8HuHwvcKZaDvZNqyGvuS-1">
                    <mxGeometry x="1615" y="520" width="50" height="260" as="geometry"/>
                </mxCell>
                <mxCell id="8HuHwvcKZaDvZNqyGvuS-163" value="length of&amp;nbsp; rectangle at index : 3" style="text;html=1;strokeColor=none;fillColor=none;align=center;verticalAlign=middle;whiteSpace=wrap;rounded=0;" vertex="1" parent="8HuHwvcKZaDvZNqyGvuS-1">
                    <mxGeometry x="1350" y="790" width="180" height="30" as="geometry"/>
                </mxCell>
                <mxCell id="8HuHwvcKZaDvZNqyGvuS-164" value="6 - (-1) -1" style="text;html=1;strokeColor=none;fillColor=none;align=center;verticalAlign=middle;whiteSpace=wrap;rounded=0;" vertex="1" parent="8HuHwvcKZaDvZNqyGvuS-1">
                    <mxGeometry x="1570" y="790" width="60" height="30" as="geometry"/>
                </mxCell>
                <mxCell id="8HuHwvcKZaDvZNqyGvuS-165" value="= 6" style="text;html=1;strokeColor=none;fillColor=none;align=center;verticalAlign=middle;whiteSpace=wrap;rounded=0;" vertex="1" parent="8HuHwvcKZaDvZNqyGvuS-1">
                    <mxGeometry x="1654" y="790" width="60" height="30" as="geometry"/>
                </mxCell>
            </root>
        </mxGraphModel>
    </diagram>
</mxfile>